<?xml version="1.0" standalone="no"?>
<!DOCTYPE svg PUBLIC "-//W3C//DTD SVG 20010904//EN"
 "http://www.w3.org/TR/2001/REC-SVG-20010904/DTD/svg10.dtd">
<svg version="1.0" xmlns="http://www.w3.org/2000/svg"
 width="576.000000pt" height="576.000000pt" viewBox="0 0 576.000000 576.000000"
 preserveAspectRatio="xMidYMid meet">
<metadata>
Created by potrace 1.14, written by Peter Selinger 2001-2017
</metadata>
<g transform="translate(0.000000,576.000000) scale(0.100000,-0.100000)"
fill="#000000" stroke="none">
<path d="M2877 4904 c-1 -1 -18 -5 -38 -8 -51 -8 -89 -23 -127 -53 -25 -19
-37 -22 -45 -14 -17 17 -51 13 -64 -8 -6 -10 -31 -28 -55 -40 -95 -49 -136
-115 -123 -197 5 -34 14 -50 40 -71 40 -32 65 -38 65 -14 0 29 25 54 54 54 31
0 66 -28 66 -54 0 -10 9 -19 23 -22 12 -2 -7 -5 -43 -6 -36 0 -98 -8 -138 -16
-40 -9 -85 -14 -100 -11 -15 2 -30 5 -35 5 -15 2 -47 67 -47 96 l-1 30 -14
-25 c-25 -45 -3 -144 42 -188 22 -22 105 -49 143 -46 19 1 67 14 105 29 72 27
149 35 220 25 l40 -6 -28 -12 c-16 -7 -49 -26 -74 -44 -31 -21 -62 -33 -95
-36 -26 -2 -48 -9 -48 -13 0 -5 21 -23 48 -40 44 -29 51 -30 115 -25 53 5 69
3 73 -8 7 -18 -12 -54 -40 -78 l-21 -18 24 -20 c21 -18 22 -20 5 -27 -10 -4
-37 -7 -61 -7 -47 -1 -50 -7 -28 -49 14 -27 13 -28 -26 -48 -22 -11 -50 -31
-61 -45 l-22 -25 -41 44 c-22 24 -72 62 -112 85 -60 35 -73 48 -83 79 -17 53
-49 103 -66 103 -8 0 -15 -4 -15 -10 -1 -5 -2 -13 -4 -17 -1 -5 -5 -25 -9 -46
-11 -52 -22 -54 -34 -4 -6 24 -22 53 -36 66 l-25 24 -6 -29 c-3 -16 -11 -47
-17 -69 -18 -64 -17 -100 3 -144 l18 -41 -37 -1 c-52 -1 -65 -4 -138 -33 -35
-14 -66 -26 -69 -26 -2 0 -9 9 -15 20 -8 15 -7 31 1 60 10 34 9 46 -10 91 -27
66 -27 73 7 120 24 35 30 38 57 32 46 -10 114 -8 126 4 8 8 2 20 -22 42 -29
26 -32 32 -19 41 8 5 25 10 37 10 22 0 70 55 56 63 -5 2 -25 10 -46 16 -49 16
-59 37 -63 135 -7 140 -49 223 -136 267 -79 40 -158 31 -321 -40 -55 -24 -106
-28 -188 -17 -56 7 -56 7 -69 -23 -7 -17 -10 -45 -7 -63 3 -18 7 -42 9 -52 2
-15 -12 -28 -62 -54 -73 -39 -313 -126 -377 -137 -23 -3 -44 -12 -47 -20 -9
-25 45 -58 117 -70 32 -6 44 -12 36 -19 -6 -5 -322 -186 -325 -186 -4 0 -175
-78 -203 -92 -67 -35 -19 -60 117 -63 108 -2 245 19 330 52 23 9 46 13 50 9 4
-5 -20 -33 -53 -65 -85 -79 -230 -166 -482 -289 -43 -21 -59 -57 -38 -88 17
-26 17 -26 85 -28 86 -4 246 42 373 106 56 28 57 28 43 6 -19 -29 -205 -210
-310 -303 -146 -129 -156 -139 -162 -171 -5 -24 0 -37 19 -60 59 -68 183 -20
352 138 l86 81 -37 -64 c-77 -130 -166 -357 -188 -474 -3 -16 -8 -43 -12 -60
-3 -16 -8 -81 -10 -143 -3 -101 -2 -114 16 -132 16 -16 24 -17 47 -9 38 13 46
28 102 192 27 78 61 174 76 212 15 39 37 97 50 130 36 95 78 185 86 185 5 0 6
-19 3 -42 -9 -75 -12 -130 -13 -265 l-1 -132 -43 -53 c-24 -29 -62 -66 -84
-83 -43 -31 -58 -61 -25 -51 9 3 33 8 52 11 19 3 52 10 73 15 45 10 41 20 62
-134 19 -139 65 -284 141 -444 83 -177 169 -283 261 -327 32 -15 37 -16 51 -1
22 22 5 88 -57 230 -75 169 -115 296 -95 296 3 0 41 -9 85 -20 87 -22 207 -45
284 -55 28 -3 57 -8 65 -10 8 -2 37 -6 64 -10 27 -3 54 -9 59 -12 5 -3 -13
-24 -39 -47 l-48 -42 21 -21 c41 -41 176 -42 327 -2 21 6 39 9 41 7 2 -2 -1
-22 -8 -45 -9 -34 -8 -45 6 -67 9 -14 17 -27 17 -30 0 -8 -61 12 -86 29 -13 8
-26 15 -28 15 -12 0 -22 -67 -15 -92 4 -16 5 -28 1 -28 -4 0 -34 26 -67 56
-97 90 -143 114 -225 116 -74 2 -87 -12 -47 -54 18 -19 51 -68 72 -109 45 -86
107 -150 170 -176 42 -17 59 -33 34 -33 -21 0 5 -23 48 -42 30 -13 66 -19 114
-19 65 0 70 -1 82 -27 13 -27 15 -77 3 -107 -10 -27 -57 -6 -119 54 -32 31
-65 62 -72 68 -24 23 -68 34 -123 32 -63 -3 -80 -23 -42 -48 39 -26 80 -72
122 -136 l38 -60 -35 -30 c-19 -16 -35 -32 -35 -35 0 -5 60 -5 110 0 14 2 44
-6 68 -16 l43 -19 -25 -24 c-41 -38 -33 -48 47 -61 39 -6 107 -22 149 -36 99
-32 199 -32 296 3 79 28 102 21 133 -39 28 -55 88 -91 159 -96 43 -3 64 0 86
14 79 49 118 110 105 165 -11 45 -25 78 -50 114 -26 37 -26 63 -1 94 30 35 68
31 102 -10 78 -96 94 -111 133 -129 116 -53 243 -45 327 21 27 22 48 29 80 29
61 1 117 29 166 85 54 61 66 89 92 198 22 96 32 120 63 154 25 28 19 35 -25
35 -91 0 -144 -54 -203 -207 -20 -52 -41 -97 -46 -101 -13 -8 -2 37 27 110 13
32 21 62 18 67 -8 14 -72 11 -102 -5 -43 -22 -67 -54 -116 -152 -46 -91 -89
-149 -66 -90 10 27 10 27 -35 25 -42 -3 -48 1 -107 57 -35 32 -76 69 -93 81
-75 55 -75 54 -26 48 24 -2 78 -14 120 -26 93 -26 131 -26 204 1 60 22 77 37
58 49 -7 5 27 24 81 46 132 55 142 62 258 187 58 61 120 127 138 145 18 18 31
37 28 42 -11 18 -157 -14 -226 -49 -39 -20 -183 -128 -188 -142 -9 -21 -18 -5
-14 23 l5 31 -69 -6 c-68 -6 -69 -6 -39 11 29 15 130 90 157 116 79 75 179
141 263 174 72 29 109 37 242 57 110 17 209 57 284 117 l40 31 -6 -28 c-10
-58 -14 -72 -34 -142 -31 -102 -84 -231 -178 -429 -19 -40 -12 -60 22 -69 74
-18 246 167 336 363 42 91 102 278 115 358 4 28 9 52 9 55 1 3 5 28 10 55 4
28 18 62 31 78 25 30 26 66 2 111 -18 34 -16 103 5 118 21 16 22 40 0 81 -9
18 -17 48 -19 67 -6 84 -16 205 -19 219 -1 9 -6 41 -10 71 -9 70 -11 80 -23
124 -10 35 1 53 11 19 31 -104 60 -201 62 -213 2 -8 8 -35 15 -60 17 -65 19
-72 45 -216 13 -72 27 -157 30 -190 4 -32 9 -61 10 -64 2 -3 6 -32 10 -65 3
-33 8 -69 10 -80 2 -11 4 -28 4 -37 1 -26 34 -22 63 7 29 29 75 111 81 145 3
14 9 43 15 65 5 22 10 49 10 60 3 103 2 177 -1 183 -3 4 -8 28 -11 54 -4 25
-13 65 -21 89 -19 54 -20 52 16 44 46 -10 117 3 129 24 11 21 21 2 -174 322
-212 349 -199 323 -131 255 58 -58 141 -117 180 -129 11 -4 43 -9 71 -12 39
-4 54 -2 64 10 10 12 -2 34 -79 137 -51 68 -97 130 -104 138 -19 23 -97 146
-97 152 0 3 22 1 49 -5 28 -5 61 -7 74 -3 49 12 41 34 -45 119 -46 45 -105
114 -132 152 -27 39 -64 82 -82 95 -39 29 -42 37 -11 35 56 -5 62 21 15 66
-75 73 -296 198 -352 199 -15 0 -17 5 -12 28 4 15 9 40 12 55 l5 28 -78 -2
c-69 -2 -87 2 -153 30 -96 42 -156 59 -205 56 -55 -2 -144 -25 -180 -45 -16
-9 -52 -17 -79 -19 -27 -1 -58 -4 -69 -7 -48 -9 -163 -109 -173 -151 -6 -22 1
-106 9 -121 3 -4 1 -17 -4 -29 -10 -28 -40 -30 -64 -3 -34 37 -49 -9 -19 -55
10 -15 12 -25 5 -25 -20 0 -25 -2 -62 -20 -39 -20 -62 -50 -73 -92 -8 -34 1
-35 48 -7 38 22 75 25 172 14 65 -7 90 0 130 36 21 19 21 19 47 -7 15 -15 28
-31 28 -35 1 -5 2 -15 3 -21 1 -7 -9 -30 -21 -51 -13 -20 -33 -63 -44 -95 -26
-68 -58 -105 -104 -119 l-34 -11 4 37 c3 20 7 55 9 79 4 43 14 62 49 94 13 12
14 17 5 20 -22 8 -66 -9 -110 -41 l-41 -30 -24 23 c-13 13 -34 26 -48 28 -24
5 -24 4 -19 -51 l5 -56 -50 -53 c-27 -29 -55 -66 -63 -82 -7 -17 -17 -30 -23
-31 -78 -7 -73 -10 -77 44 -4 58 -1 63 22 37 16 -18 19 -18 30 -5 7 9 12 30
11 48 -7 88 -6 102 9 102 17 0 52 24 63 41 4 6 -9 28 -27 47 -65 69 -97 169
-58 181 33 11 61 85 42 115 -5 8 -24 15 -42 15 -30 1 -33 4 -36 36 -2 19 -8
41 -14 47 -8 10 -1 23 25 52 19 21 38 52 41 68 17 75 -31 173 -83 173 -6 0
-11 -18 -11 -40 0 -22 -4 -40 -10 -40 -5 0 -10 7 -10 15 0 20 -31 19 -74 -1
-34 -17 -35 -16 -110 19 -42 20 -92 39 -110 43 -37 6 -95 11 -99 8z m209 -99
c49 -19 80 -24 109 -21 l40 6 -30 -15 c-41 -19 -77 -18 -160 6 -96 28 -180 33
-235 16 -55 -16 -81 -12 -51 10 56 39 221 38 327 -2z m248 -81 c-20 -41 -60
-67 -109 -73 -16 -1 -32 -5 -34 -7 -2 -1 18 -13 45 -26 28 -13 50 -31 52 -42
4 -18 3 -18 -24 1 -16 11 -37 23 -46 26 -25 9 -23 -20 2 -33 34 -18 122 -100
107 -100 -7 0 -18 5 -25 12 -8 8 -14 5 -23 -15 -10 -22 -7 -36 21 -103 18 -43
33 -83 35 -89 1 -5 5 -17 8 -25 4 -8 11 -28 17 -45 l10 -30 -25 30 c-14 17
-32 52 -40 79 -16 54 -40 96 -54 96 -5 0 -3 -17 4 -37 22 -58 59 -187 57 -196
-1 -4 2 -16 8 -27 7 -12 7 -21 0 -25 -5 -3 -10 0 -10 7 0 23 -32 98 -42 98 -6
0 -8 -21 -4 -51 5 -43 4 -50 -9 -45 -18 7 -18 7 0 -69 8 -33 15 -71 15 -85 l0
-25 -25 30 -26 30 7 -35 c3 -19 6 -37 6 -40 1 -22 -4 -29 -17 -24 -11 5 -13 2
-9 -11 6 -14 3 -16 -15 -10 -20 6 -22 4 -16 -14 3 -12 8 -36 11 -54 8 -69 17
-94 47 -137 17 -25 34 -47 37 -50 11 -9 54 -74 56 -85 2 -5 6 -25 10 -44 l7
-33 -27 17 c-15 10 -38 40 -52 67 -14 27 -29 46 -34 43 -6 -3 -10 -3 -10 2 -1
4 -12 21 -25 38 l-24 29 13 -57 c14 -58 14 -117 1 -172 -11 -52 -38 -106 -49
-102 -6 2 -18 24 -27 48 -16 43 -18 126 -3 174 6 19 6 19 -13 2 -12 -10 -24
-37 -28 -60 -7 -33 -9 -37 -12 -17 -7 43 -25 80 -44 91 -11 5 -19 8 -19 7 1
-2 7 -28 14 -58 15 -66 5 -132 -30 -201 -45 -89 -57 -80 -59 44 -2 72 -7 101
-24 135 -12 23 -25 42 -30 42 -5 0 -10 -24 -10 -54 0 -54 -13 -91 -50 -133
-41 -48 -48 -32 -49 107 -1 112 2 121 53 157 l31 21 22 -34 c15 -22 30 -34 45
-34 26 0 71 43 82 78 3 12 10 22 14 22 10 0 28 -37 35 -73 6 -24 9 -26 26 -17
11 6 32 29 47 51 23 35 26 49 25 127 0 67 5 97 20 132 31 67 38 97 44 186 l6
82 -26 -5 c-25 -5 -26 -9 -26 -67 -1 -91 -9 -135 -36 -193 -19 -40 -24 -69
-24 -130 -1 -43 -7 -91 -14 -108 l-14 -30 -11 27 c-6 16 -18 40 -28 55 -10 15
-19 41 -19 58 -2 51 -4 55 -18 55 -9 0 -15 -21 -19 -74 -4 -62 -27 -136 -41
-136 -3 0 -11 -2 -19 -6 -23 -8 -40 47 -35 116 2 33 1 60 -2 60 -13 0 -39 -36
-65 -92 -15 -32 -31 -58 -36 -58 -5 0 -12 -1 -16 -2 -5 -2 -9 15 -9 37 -2 42
24 105 59 142 11 13 17 26 13 30 -11 11 -45 -33 -74 -97 -14 -30 -35 -63 -46
-73 -59 -50 -105 -53 -91 -6 11 35 57 98 76 104 39 13 102 95 73 95 -8 0 -48
-22 -54 -29 -9 -11 -60 -42 -60 -36 0 18 31 74 54 97 37 36 83 56 140 61 60 6
68 14 22 22 -45 9 -65 30 -36 38 11 3 54 27 95 54 87 56 109 91 100 156 -4 23
-8 43 -9 45 -2 1 -16 -2 -31 -8 -19 -7 -24 -14 -18 -23 5 -6 8 -18 7 -24 -1
-7 -2 -18 -3 -25 0 -6 -8 -3 -16 8 -13 17 -16 17 -15 -1 1 -17 -33 -65 -45
-65 -12 0 -13 9 -8 45 4 33 1 51 -11 71 -17 25 -21 25 -79 19 l-62 -6 48 32
c70 46 126 53 189 21 27 -13 52 -31 55 -38 3 -8 12 -14 20 -14 13 0 13 4 -2
26 -9 14 -15 27 -13 29 2 2 12 -9 23 -26 22 -32 35 -37 35 -13 0 32 -42 73
-103 103 -34 16 -80 46 -102 66 -22 19 -69 52 -105 72 -36 21 -79 52 -96 70
-18 19 -42 33 -55 33 -21 1 -22 2 -6 11 9 5 17 17 17 24 0 24 33 17 62 -14 36
-38 81 -58 148 -66 116 -13 134 -17 171 -41 21 -13 46 -24 54 -24 54 0 -84 76
-155 85 -85 11 -89 13 -135 40 -81 47 -143 131 -117 157 13 13 120 -36 140
-64 19 -25 76 -47 111 -43 32 4 92 32 102 47 4 6 35 11 70 13 35 1 80 6 100
10 28 5 38 3 42 -9 4 -9 15 -16 25 -16 23 0 82 57 83 79 0 11 4 9 11 -6 8 -17
6 -30 -8 -59z m939 40 c18 -3 64 -19 104 -35 75 -29 105 -37 163 -38 33 -2 34
-2 16 -16 -23 -17 -98 -20 -127 -5 -16 9 -19 7 -19 -8 0 -10 5 -23 12 -30 13
-13 19 -52 8 -52 -3 0 -15 7 -26 15 -38 28 -48 14 -11 -16 32 -26 74 -95 64
-105 -1 -2 -21 -4 -45 -5 -31 -2 -47 2 -65 19 -34 32 -38 18 -10 -39 14 -28
23 -53 20 -56 -13 -12 -63 11 -94 43 -32 35 -33 35 -33 11 0 -29 55 -82 106
-103 18 -8 36 -19 40 -25 5 -8 13 -4 26 12 11 14 18 18 16 9 -1 -8 3 -24 9
-35 13 -24 9 -55 -9 -66 -13 -9 -32 7 -74 65 -12 16 -24 25 -27 20 -11 -18 34
-99 76 -139 45 -42 70 -87 80 -142 7 -38 0 -41 -37 -12 -45 35 -113 152 -104
179 1 3 -4 15 -10 26 -6 12 -14 36 -17 54 -3 18 -14 45 -24 59 -21 28 -81 87
-82 80 0 -2 -2 -17 -4 -33 -4 -32 -30 -73 -57 -89 -11 -8 -24 -4 -47 12 -19
14 -39 20 -49 16 -9 -3 -12 -9 -6 -13 16 -11 44 -61 59 -103 24 -68 -4 -92
-50 -43 -23 25 -25 26 -25 6 0 -11 13 -49 30 -84 51 -108 36 -149 -41 -108
l-42 21 8 -33 c7 -32 9 -60 6 -85 -2 -22 -44 -14 -73 14 -25 24 -28 25 -29 7
-3 -75 -23 -136 -44 -138 -5 0 -24 20 -42 47 -33 50 -34 50 -48 -19 -7 -37
-60 -124 -74 -124 -13 0 -6 87 9 104 8 10 7 15 -5 19 -18 8 -58 -43 -74 -95
-20 -60 -61 -63 -61 -3 0 49 -18 53 -26 6 -8 -51 -39 -102 -57 -95 -29 11 -42
90 -22 137 11 25 -12 21 -27 -5 -7 -13 -22 -48 -33 -78 -11 -31 -26 -55 -34
-55 -14 0 -81 88 -81 106 0 6 8 5 19 -1 29 -15 32 -13 20 18 -31 80 -14 101
87 105 75 3 73 1 89 81 4 16 26 49 51 73 28 28 44 53 44 68 0 14 5 25 10 25 6
0 10 -11 10 -24 0 -38 15 -39 41 -1 14 18 37 43 52 55 l26 21 -13 -33 c-8 -18
-17 -51 -20 -73 -10 -68 -25 -91 -68 -111 -58 -26 -118 -71 -118 -89 0 -21 4
-20 61 20 28 19 90 47 138 61 141 43 174 74 201 188 6 28 24 64 41 83 16 19
29 41 29 49 0 22 -28 73 -57 103 -13 14 -29 37 -34 51 l-10 25 -21 -37 c-31
-55 -92 -78 -163 -64 -11 3 -35 5 -54 5 -48 1 -33 11 25 17 71 8 101 22 114
55 17 40 7 46 -24 14 -18 -18 -35 -25 -54 -23 -37 4 -34 21 6 29 51 10 56 21
54 107 -3 86 6 105 70 161 44 38 84 52 118 39 18 -7 38 -3 82 17 90 40 169 49
261 29z m-1398 -14 c3 -5 1 -10 -4 -10 -6 0 -11 5 -11 10 0 6 2 10 4 10 3 0 8
-4 11 -10z m-25 -30 c13 -25 13 -25 -8 -6 -12 10 -19 23 -16 28 7 11 7 11 24
-22z m124 5 c-4 -8 -10 -15 -15 -15 -4 0 -6 7 -3 15 4 8 10 15 15 15 4 0 6 -7
3 -15z m-1080 -17 c26 -14 35 -22 27 -28 -9 -5 -3 -18 23 -43 35 -35 49 -60
24 -40 -14 11 -48 24 -48 19 0 -2 14 -20 30 -41 29 -37 43 -72 18 -47 -7 7
-21 12 -32 12 -17 0 -14 -6 17 -38 36 -37 41 -57 11 -45 -23 9 -16 -18 11 -43
32 -30 32 -44 -2 -44 l-27 0 26 -27 c25 -28 72 -122 64 -130 -2 -3 -17 2 -34
11 -20 11 -36 32 -52 71 -12 30 -26 55 -31 55 -5 0 -8 -27 -8 -59 1 -54 -2
-65 -36 -110 -43 -60 -52 -126 -20 -161 20 -22 22 -53 11 -117 -8 -38 -6 -44
19 -67 36 -34 95 -34 175 -2 79 32 169 31 224 -3 61 -38 54 -16 -18 52 -36 35
-66 70 -67 78 0 8 -2 24 -3 36 -1 12 4 37 11 54 l14 33 21 -43 c21 -42 86 -97
108 -89 6 2 0 18 -15 38 -25 34 -30 68 -15 105 9 22 9 22 32 -55 11 -40 19
-48 67 -72 70 -36 96 -61 126 -122 37 -79 39 -126 5 -179 -35 -56 -44 -61 -65
-41 -12 12 -15 31 -13 73 3 60 -12 81 -24 34 -12 -43 -50 -85 -71 -78 -13 6
-17 17 -15 53 2 29 -1 47 -9 49 -7 3 -13 -2 -13 -11 0 -29 -24 -68 -50 -81
-39 -20 -52 -3 -35 45 7 21 11 41 8 44 -15 15 -31 2 -61 -54 -18 -33 -37 -62
-41 -65 -18 -11 -22 64 -6 96 11 20 13 35 7 41 -6 6 -21 -7 -43 -39 -33 -48
-57 -72 -72 -73 -17 0 -19 34 -3 67 23 48 10 61 -28 25 -46 -43 -76 -61 -92
-55 -21 8 -17 27 11 53 22 20 34 50 20 50 -2 0 -21 -11 -41 -25 -21 -14 -48
-28 -61 -31 -28 -7 -57 2 -48 16 3 5 8 19 10 30 2 10 11 35 21 55 21 46 10 57
-21 21 -26 -31 -61 -32 -79 -3 -11 17 -10 20 52 184 9 23 13 45 10 49 -4 4
-28 -14 -52 -40 -25 -25 -49 -46 -54 -46 -5 0 -9 26 -8 58 1 64 23 103 82 148
36 28 49 63 17 45 -10 -5 -28 -19 -40 -31 -27 -25 -27 -23 -9 43 8 29 17 68
20 87 5 34 29 111 41 130 3 5 12 7 20 3 29 -10 12 -88 -28 -131 -15 -16 -18
-25 -10 -33 15 -15 49 23 79 86 38 81 29 165 -19 165 -59 -1 -126 -119 -141
-250 -11 -92 -28 -132 -74 -178 -46 -44 -67 -46 -59 -5 7 37 -15 22 -40 -28
-13 -24 -33 -50 -44 -58 -21 -13 -22 -12 -16 41 3 29 9 66 13 82 6 26 5 27
-15 17 -11 -7 -21 -18 -21 -25 0 -25 -64 -86 -97 -92 -39 -8 -41 0 -13 55 21
39 35 91 25 91 -3 0 -25 -20 -48 -45 -42 -43 -78 -57 -92 -35 -4 6 14 36 39
67 71 86 79 150 9 72 -40 -44 -86 -70 -118 -65 -36 5 -24 60 24 115 28 32 20
37 -23 17 -51 -24 -108 -41 -131 -40 -11 1 -36 2 -55 3 -29 1 -32 3 -17 12 9
6 27 11 40 13 12 1 29 5 37 8 8 3 51 18 95 33 44 15 104 40 133 56 58 33 63
27 38 -42 -18 -51 -12 -60 30 -43 45 19 54 12 44 -32 -10 -43 3 -52 46 -29 49
26 64 20 61 -22 -2 -37 -1 -38 28 -35 17 2 43 10 59 18 16 8 40 14 53 14 19 0
23 5 23 31 0 17 5 39 10 50 21 38 -17 20 -44 -21 -29 -44 -72 -68 -89 -51 -7
7 -2 28 15 63 15 29 25 55 23 57 -2 1 -19 -8 -37 -21 -34 -25 -41 -27 -70 -14
-34 15 18 83 78 103 39 14 63 1 57 -30 -7 -37 20 -40 65 -7 51 37 72 67 72
105 l0 30 -22 -35 c-12 -19 -31 -43 -42 -53 -29 -26 -36 -5 -21 59 7 30 9 54
4 54 -5 0 -25 -17 -45 -37 -25 -27 -32 -31 -24 -15 15 30 5 40 -18 19 -30 -27
-35 -20 -12 17 22 36 13 57 -13 31 -9 -8 -30 -46 -48 -85 -34 -71 -68 -100
-118 -100 -31 0 -26 22 20 73 l41 47 -22 30 c-29 40 -24 76 10 72 116 -12 174
-1 301 56 24 11 51 22 59 24 36 11 98 4 134 -14z m700 -3 c-3 -8 -21 -19 -40
-25 -35 -12 -43 -38 -10 -32 10 2 24 -5 32 -15 18 -24 17 -33 -2 -33 -8 0 -29
-14 -46 -30 -28 -29 -31 -30 -44 -13 -21 28 -16 69 13 104 46 54 112 85 97 44z
m2024 -124 c78 -25 262 -131 262 -152 0 -12 -98 26 -133 52 -16 11 -31 18 -34
15 -13 -13 46 -77 105 -117 76 -49 163 -130 212 -194 34 -45 57 -69 130 -133
l35 -31 -40 10 c-68 18 -99 37 -140 87 -111 132 -233 229 -408 321 -124 66
-118 60 -115 111 2 36 6 46 23 51 19 5 31 3 103 -20z m7 -169 c129 -71 296
-195 317 -237 l11 -20 -24 20 c-13 11 -26 22 -29 25 -3 3 -23 18 -46 33 -22
15 -50 36 -61 46 -36 34 -147 106 -183 120 -76 28 -100 41 -100 56 0 18 11 14
115 -43z m-1896 13 c2 -3 -8 -5 -23 -5 -15 0 -66 -11 -114 -24 -48 -14 -99
-27 -114 -30 -34 -6 -92 9 -107 28 -10 12 -4 13 31 10 24 -3 72 2 108 10 36 9
76 17 90 18 34 4 122 -1 129 -7z m1783 -31 c35 -18 62 -72 46 -92 -9 -10 -17
-8 -40 6 -48 30 -118 92 -118 104 0 14 72 3 112 -18z m125 -46 c61 -35 112
-77 206 -168 49 -47 113 -108 142 -136 29 -28 90 -107 135 -174 45 -68 102
-150 127 -182 25 -33 43 -61 41 -64 -8 -8 -114 105 -174 186 -66 90 -88 123
-108 163 -26 51 -97 122 -176 177 -19 13 -37 27 -40 31 -6 8 -69 44 -122 71
-27 13 -43 31 -58 64 -28 65 -29 64 27 32z m-382 -51 c-12 -6 -13 -13 -5 -28
6 -11 8 -29 5 -40 -4 -11 -1 -27 6 -35 13 -16 18 -98 7 -110 -13 -12 -35 14
-53 64 -10 26 -26 62 -36 80 l-19 33 30 17 c16 9 35 27 42 40 11 22 13 22 25
6 11 -15 11 -19 -2 -27z m-2168 0 c4 -7 0 -8 -11 -4 -10 4 -22 7 -27 7 -5 0
-9 4 -9 9 0 12 38 2 47 -12z m2480 -93 c27 -39 38 -112 22 -153 -8 -20 -12
-21 -25 -10 -8 7 -24 30 -35 51 -11 21 -23 37 -28 34 -4 -3 -15 4 -24 15 -18
21 -22 33 -8 25 23 -15 22 75 -1 118 -18 33 71 -38 99 -80z m-3466 -14 c33
-21 -42 -81 -125 -100 l-37 -8 33 59 c18 32 49 70 68 84 l35 26 7 -27 c4 -15
12 -30 19 -34z m3586 34 c139 -77 259 -182 313 -274 60 -102 153 -223 230
-299 61 -60 65 -67 37 -57 -91 33 -155 95 -307 294 -109 144 -214 261 -225
250 -4 -4 56 -114 132 -245 77 -131 153 -260 169 -288 16 -27 84 -140 151
-249 68 -110 123 -203 123 -208 0 -18 -67 29 -131 92 -77 76 -158 197 -223
331 -25 53 -46 100 -46 104 0 12 -99 206 -147 286 -25 43 -61 93 -79 111 -19
18 -39 49 -45 68 -7 19 -23 49 -36 66 -12 17 -23 34 -23 37 0 16 63 5 107 -19z
m-3787 -92 c0 -34 -112 -99 -242 -141 -88 -28 -108 -26 -38 3 67 28 204 98
245 125 36 23 35 23 35 13z m3344 -116 c33 -27 49 -50 62 -89 9 -29 38 -98 65
-155 27 -57 51 -115 55 -130 3 -15 7 -37 10 -48 2 -12 13 -24 24 -27 11 -3 23
-13 27 -23 4 -10 23 -43 43 -74 20 -30 53 -80 73 -110 23 -36 38 -72 42 -105
4 -28 8 -62 11 -77 2 -16 1 -28 -3 -28 -7 0 -157 218 -158 230 0 3 -23 43 -51
90 -129 218 -272 534 -278 613 l-4 52 19 -41 c10 -22 38 -57 63 -78z m-3081
80 c23 -17 22 -28 -5 -53 -22 -20 -116 -73 -130 -73 -16 0 20 68 55 102 40 41
52 45 80 24z m471 3 c-3 -6 -8 -82 -9 -168 -2 -166 -6 -198 -36 -331 -60 -262
-204 -580 -321 -705 l-28 -30 0 30 c0 18 14 51 33 80 43 63 99 165 92 165 -3
0 1 10 9 23 27 41 134 367 120 367 -3 0 0 8 5 18 5 9 12 35 15 56 4 21 8 48
11 60 8 33 14 76 21 139 4 36 18 79 35 110 21 37 29 66 29 102 0 59 9 95 22
95 5 0 6 -5 2 -11z m3056 -58 c56 -72 154 -254 224 -418 60 -141 157 -298 238
-384 41 -44 111 -96 153 -114 18 -8 17 -9 -8 -13 -94 -12 -225 133 -339 376
-83 178 -128 264 -177 337 -25 39 -48 75 -51 81 -3 5 -23 29 -45 53 -31 34
-39 50 -40 82 0 21 2 39 6 39 4 0 21 -18 39 -39z m-3807 -3 c6 -4 23 -5 39 -3
33 4 38 -10 6 -19 -102 -30 -182 -47 -238 -51 l-65 -5 75 28 c41 15 95 39 120
53 27 15 47 21 49 14 2 -5 9 -13 14 -17z m689 20 c-5 -7 -13 -32 -17 -56 -7
-45 -25 -48 -25 -4 0 48 -23 7 -31 -58 -7 -48 -26 -93 -94 -219 -77 -142 -147
-307 -159 -376 -3 -14 -7 -33 -10 -43 -10 -33 -18 -79 -32 -185 -17 -124 -9
-530 12 -642 2 -10 6 -37 9 -60 19 -126 97 -408 146 -521 10 -24 16 -44 14
-44 -7 0 -82 151 -101 202 -65 178 -113 357 -130 492 -3 23 -7 52 -10 66 -6
38 -17 225 -17 315 -1 92 11 317 17 337 3 7 7 33 10 58 5 46 12 85 22 130 7
36 104 260 126 292 10 14 18 29 18 33 0 3 11 21 24 38 40 54 58 97 58 144 0
25 -3 47 -6 51 -11 10 -27 -14 -32 -49 -6 -35 -19 -60 -50 -94 -24 -26 -74
-65 -84 -65 -14 0 15 94 48 157 29 57 36 64 79 76 l48 14 3 -28 c2 -16 8 -29
13 -29 18 0 116 50 129 65 7 8 17 15 22 15 7 0 7 -4 0 -12z m-317 -36 c-1 -60
-100 -182 -148 -182 -11 0 -14 10 -11 40 4 45 2 47 -20 24 -9 -9 -16 -32 -16
-56 0 -34 -6 -46 -37 -75 -46 -42 -125 -95 -190 -128 -65 -32 -222 -84 -275
-91 -24 -3 -52 -7 -64 -9 -40 -6 -45 11 -7 24 65 24 204 92 271 132 35 21 66
39 68 39 11 0 233 159 261 189 10 9 34 27 53 39 19 11 51 37 69 56 19 20 38
36 41 36 3 0 5 -17 5 -38z m3095 30 c0 -4 15 -23 33 -42 28 -30 32 -43 33 -90
1 -55 11 -116 20 -131 2 -4 1 -10 -4 -13 -10 -6 -78 128 -108 217 l-23 67 25
0 c13 0 24 -3 24 -8z m-166 -95 c66 -154 180 -386 251 -507 74 -127 176 -283
208 -317 18 -20 37 -113 23 -113 -8 0 -164 212 -227 310 -94 144 -187 305
-246 428 -57 116 -63 144 -50 215 3 16 2 39 -3 53 -5 13 -6 24 -2 24 4 0 25
-42 46 -93z m384 -51 c23 -52 24 -61 13 -90 -7 -17 -16 -50 -21 -74 -9 -56
-17 -62 -26 -17 -7 39 -20 37 -27 -5 -8 -42 -19 -70 -27 -70 -5 0 -5 12 -1 28
9 34 6 152 -7 217 -12 59 -10 65 29 65 25 0 29 4 30 28 2 26 2 26 6 2 3 -14
16 -51 31 -84z m73 2 c87 -148 183 -410 204 -558 4 -24 8 -47 10 -51 2 -3 11
-50 19 -105 8 -54 18 -117 21 -139 4 -22 8 -128 10 -235 2 -150 -1 -222 -15
-310 -18 -120 -63 -309 -82 -344 -6 -12 -10 -22 -9 -24 5 -5 -43 -117 -76
-175 -18 -33 -33 -62 -33 -65 -1 -4 -12 -20 -26 -37 l-25 -30 20 55 c52 147
105 363 116 475 5 48 12 65 34 86 16 15 34 28 42 31 19 6 3 38 -20 38 -28 0
-35 16 -32 69 5 65 9 151 10 188 1 18 12 44 27 62 l26 31 -26 0 c-21 0 -26 5
-27 28 -1 57 -18 236 -24 272 -3 14 -8 45 -11 70 -3 25 -7 54 -8 65 -4 25 -17
103 -22 130 -3 11 -7 35 -10 54 -11 66 -41 199 -61 268 -8 29 -14 55 -14 58 0
2 -11 32 -25 67 -33 84 -31 92 7 26z m-2946 -70 c-1 -57 -6 -116 -10 -133 -18
-76 -91 -300 -127 -390 -75 -191 -216 -433 -294 -506 -31 -29 -32 -8 -1 23
152 152 323 513 374 788 2 14 8 43 13 65 11 49 23 155 24 212 1 25 6 43 12 43
9 0 11 -31 9 -102z m2382 58 c13 -11 30 -40 37 -65 84 -282 296 -648 495 -854
55 -57 75 -85 76 -105 0 -25 -15 -52 -30 -52 -13 0 -119 116 -180 196 -16 21
-33 44 -38 49 -85 104 -235 341 -316 499 -101 200 -99 192 -92 339 1 30 7 29
48 -7z m-3112 -42 c-50 -36 -97 -68 -105 -72 -8 -3 -17 -8 -20 -12 -32 -38
-400 -214 -400 -191 0 5 28 19 63 32 88 32 238 113 332 178 171 117 190 130
205 130 8 1 -26 -29 -75 -65z m225 -65 c-6 -20 -32 -64 -60 -98 -27 -33 -72
-96 -101 -139 -65 -98 -123 -166 -224 -265 -139 -137 -251 -205 -304 -185 -23
8 -21 10 35 50 77 55 71 50 134 104 61 51 239 229 314 313 26 30 80 97 119
150 92 123 104 133 87 70z m2740 11 c0 -16 -4 -30 -10 -30 -11 0 -14 43 -3 53
11 12 13 8 13 -23z m-2404 -22 c-3 -24 -8 -61 -11 -83 -9 -68 -65 -285 -100
-385 -46 -132 -60 -163 -113 -257 -65 -114 -81 -110 -29 7 63 141 140 428 150
555 2 24 94 205 105 205 2 0 1 -19 -2 -42z m3134 -33 c11 -38 22 -87 26 -109
3 -22 8 -44 11 -48 2 -5 6 -21 9 -36 2 -15 9 -49 14 -77 41 -215 64 -402 64
-535 1 -75 1 -75 -26 -78 -26 -3 -28 -1 -29 35 -1 21 -2 49 -4 63 -1 14 -5 59
-9 100 -3 41 -8 85 -10 97 -3 12 -7 50 -11 84 -4 35 -8 66 -10 69 -2 3 -6 31
-9 62 -5 49 -36 212 -54 288 -10 44 1 171 14 157 3 -2 13 -35 24 -72z m-3556
3 c-91 -127 -299 -353 -425 -463 -60 -53 -190 -147 -195 -142 -11 10 20 43 89
97 81 63 275 253 394 385 142 158 158 175 166 175 5 0 -8 -24 -29 -52z m2916
-4 c0 -25 146 -316 162 -322 4 -2 8 -8 8 -13 0 -16 96 -163 195 -300 95 -130
118 -159 198 -245 49 -53 58 -74 32 -74 -22 0 -259 239 -337 340 -130 168
-243 353 -309 502 -16 36 -29 70 -29 74 0 4 10 28 22 52 l21 45 19 -23 c10
-12 18 -28 18 -36z m-2255 4 c-3 -13 -14 -68 -25 -123 -32 -166 -38 -189 -72
-270 -109 -259 -226 -446 -384 -612 -54 -57 -46 -23 10 41 171 196 349 566
426 888 10 43 21 82 25 88 12 19 25 10 20 -12z m3055 -53 c13 -25 21 -47 19
-50 -3 -2 -17 21 -32 51 -33 66 -21 65 13 -1z m-905 -40 c31 -85 187 -384 260
-500 79 -126 189 -282 240 -340 19 -22 35 -44 36 -50 0 -5 2 -24 3 -42 l2 -32
-25 19 c-39 28 -121 118 -254 280 -6 8 -53 76 -103 151 -117 175 -251 438
-277 542 -10 39 15 35 35 -5 l16 -33 17 39 c19 44 24 41 50 -29z m-2752 -28
c-122 -185 -238 -404 -318 -597 -38 -92 -55 -142 -110 -315 -7 -22 -21 -77
-31 -123 -19 -88 -36 -95 -23 -9 5 29 11 70 14 92 4 22 15 76 26 120 18 75 26
100 45 150 4 11 8 25 10 32 5 27 146 309 199 400 78 132 215 323 233 323 1 0
-19 -33 -45 -73z m697 51 c0 -16 -31 -48 -47 -48 -21 0 -15 27 9 44 27 19 38
20 38 4z m2053 -301 c91 -173 252 -410 356 -527 59 -65 117 -125 147 -150 32
-27 48 -56 35 -64 -20 -13 -228 183 -321 301 -8 10 -31 39 -51 63 -88 109
-216 315 -295 474 l-48 97 23 46 23 47 37 -89 c20 -50 62 -139 94 -198z
m-2824 37 c-173 -358 -177 -367 -214 -466 -58 -151 -131 -370 -139 -409 -3
-21 -14 -43 -23 -50 -14 -12 -15 -10 -10 16 4 17 8 41 11 55 14 89 90 327 148
465 52 125 210 440 229 455 3 3 8 10 10 16 7 19 93 153 96 150 2 -2 -47 -106
-108 -232z m889 189 c-2 -22 3 -37 12 -44 13 -8 11 -12 -9 -29 -26 -22 -61
-27 -61 -7 1 26 22 102 32 114 17 20 30 4 26 -34z m1639 -15 c-3 -41 2 -71 25
-137 66 -188 305 -583 435 -721 39 -41 39 -43 12 -86 l-20 -33 -71 77 c-179
196 -290 381 -367 610 -26 75 -67 225 -76 272 -2 12 50 70 64 70 1 0 1 -24 -2
-52z m-1527 -7 c-8 -16 -8 -21 2 -21 18 0 -12 -26 -39 -35 -22 -6 -22 -6 -7
32 9 21 23 46 32 57 15 15 17 16 20 3 2 -9 -2 -25 -8 -36z m235 9 c-23 -26
-55 -27 -48 -2 5 21 44 42 57 30 6 -4 2 -16 -9 -28z m408 -21 c2 -30 -1 -74
-7 -99 -6 -25 -10 -54 -10 -65 1 -11 2 -39 3 -63 1 -34 7 -50 32 -74 27 -27
30 -35 24 -69 -4 -23 -12 -39 -20 -39 -8 0 -22 -16 -31 -35 -21 -45 -30 -50
-44 -26 -13 25 -9 46 18 98 22 41 29 93 14 93 -4 0 -18 -24 -32 -52 -18 -38
-35 -58 -60 -70 -31 -16 -35 -16 -43 -2 -14 25 0 101 32 172 17 37 33 79 35
94 2 14 9 35 15 46 21 40 31 72 21 72 -5 0 -19 -23 -31 -50 -17 -39 -30 -54
-57 -65 -50 -22 -55 -19 -49 21 9 52 31 81 85 108 26 13 58 33 72 44 14 11 26
19 27 18 2 -2 5 -27 6 -57z m1861 21 c3 -19 10 -59 16 -89 14 -76 13 -80 -14
-40 -44 64 -73 124 -69 141 3 13 38 26 60 23 0 0 4 -16 7 -35z m264 15 c-3 -3
-9 2 -12 12 -6 14 -5 15 5 6 7 -7 10 -15 7 -18z m-2420 -26 c1 -14 -8 -36 -24
-54 l-26 -30 22 38 c18 30 19 37 7 37 -9 0 -25 -16 -37 -35 -12 -19 -23 -35
-25 -35 -2 0 -10 -3 -19 -6 -32 -12 -15 28 30 72 49 48 67 52 72 13z m128 6
c-1 -14 -10 -33 -18 -42 -32 -37 -46 -80 -52 -163 -2 -19 -10 -58 -18 -86 -9
-28 -15 -77 -13 -110 4 -90 -81 -444 -106 -444 -15 0 -39 43 -30 54 10 13 46
123 61 186 6 25 13 54 15 65 10 40 54 282 61 335 22 173 24 178 58 205 39 31
45 31 42 0z m-706 -12 c-35 -117 -136 -354 -192 -448 -51 -85 -131 -196 -187
-256 -22 -24 -41 -47 -41 -51 0 -5 -13 -8 -30 -8 -16 0 -30 3 -30 6 0 4 22 36
49 73 86 116 231 371 231 408 0 4 7 21 15 37 15 28 60 172 67 211 2 13 19 25
48 36 69 26 80 24 70 -8z m1560 12 c12 -14 27 -64 35 -119 2 -15 7 -35 9 -45
3 -9 8 -32 11 -51 16 -95 110 -323 197 -482 26 -48 48 -89 48 -91 0 -3 -14
-10 -31 -16 l-30 -10 -38 82 c-20 45 -62 143 -91 217 -61 151 -58 145 -66 137
-3 -3 17 -86 46 -184 28 -98 53 -185 55 -194 2 -9 13 -49 25 -88 15 -52 20
-88 16 -129 -3 -31 -5 -69 -5 -84 -1 -16 -5 -28 -11 -28 -30 0 -179 228 -207
317 -16 50 -15 53 7 104 27 63 29 128 5 186 -13 34 -15 49 -6 75 14 43 7 327
-8 356 -8 16 -9 28 -1 42 13 24 23 25 40 5z m300 -51 c39 -136 126 -303 243
-469 84 -118 186 -254 204 -273 35 -36 34 -49 -4 -72 l-37 -22 -29 34 c-163
185 -409 598 -448 752 -10 43 -10 49 12 81 13 19 28 33 33 32 5 -2 17 -30 26
-63z m-1512 50 c12 -4 22 -11 22 -16 0 -11 -49 -58 -61 -58 -4 0 -14 -3 -23
-6 -22 -8 -20 14 4 54 21 34 23 35 58 26z m1352 -204 c41 -136 82 -233 180
-433 74 -151 199 -358 221 -365 5 -2 9 -10 9 -18 0 -8 4 -14 9 -14 5 0 21 -16
35 -35 19 -24 25 -42 21 -56 -7 -20 -9 -19 -42 12 -69 67 -212 253 -217 283
-1 7 -16 29 -32 50 -40 47 -151 272 -198 397 -30 80 -50 154 -80 292 -2 9 6
28 17 42 l22 24 11 -37 c7 -20 26 -84 44 -142z m726 108 c25 -49 179 -287 193
-298 3 -3 17 -21 31 -40 29 -41 58 -75 124 -147 27 -29 46 -56 43 -59 -6 -6
-75 60 -129 123 -74 87 -229 326 -275 426 -31 64 -20 60 13 -5z m-2030 -10
c-5 -51 -9 -72 -22 -130 -3 -15 -5 -29 -4 -30 1 -2 -5 -21 -13 -43 -8 -22 -27
-74 -42 -115 -68 -185 -165 -369 -243 -457 -25 -30 -36 -29 -51 3 -11 24 -8
33 28 88 102 158 232 463 280 659 5 21 11 40 13 41 17 13 53 36 56 36 3 0 2
-24 -2 -52z m-186 -35 c-86 -274 -233 -526 -418 -713 l-104 -105 -14 34 c-8
18 -14 35 -14 37 0 2 24 28 53 57 81 83 114 124 182 228 82 123 166 290 203
402 17 49 32 90 34 92 2 2 19 7 38 10 19 3 36 8 39 11 16 16 16 -4 1 -53z
m1190 -49 c-14 -61 -5 -144 22 -211 23 -57 27 -106 9 -117 -4 -3 -24 5 -45 17
-35 20 -40 29 -57 94 -16 66 -16 103 1 128 14 21 39 102 46 150 l7 50 13 -37
c8 -24 10 -49 4 -74z m-1925 10 c-20 -90 -46 -177 -55 -188 -5 -4 -4 11 2 35
5 24 11 51 13 59 14 67 47 172 52 166 2 -2 -3 -34 -12 -72z m619 16 c-58 -196
-220 -471 -366 -622 -44 -46 -74 -74 -67 -63 7 11 20 27 29 36 112 118 252
370 319 576 33 99 43 119 63 124 35 9 38 3 22 -51z m215 23 c-15 -58 -39 -136
-49 -158 -5 -11 -25 -62 -44 -112 -44 -114 -126 -285 -160 -336 -14 -21 -26
-41 -26 -46 0 -4 -9 -16 -20 -26 -19 -17 -20 -17 -20 0 0 10 11 32 24 49 43
57 158 293 171 351 1 5 5 19 9 30 20 53 27 77 50 163 14 50 22 92 18 93 -5 0
42 25 55 29 1 0 -3 -17 -8 -37z m246 -94 c-15 -62 -36 -141 -47 -177 -11 -36
-21 -72 -23 -81 -5 -19 -46 -130 -68 -183 -9 -21 -23 -38 -31 -38 -16 0 -18
-4 -21 -52 -2 -27 -50 -118 -63 -118 -4 0 -13 4 -21 9 -11 7 -8 18 16 58 35
58 112 233 128 293 1 3 5 12 8 20 6 13 41 127 52 170 2 8 8 30 14 48 5 18 10
35 10 37 0 3 5 29 11 58 8 38 17 55 33 63 12 5 24 9 26 8 1 -2 -9 -53 -24
-115z m-51 83 c9 -15 -61 -286 -98 -382 -44 -112 -61 -152 -92 -215 -44 -89
-59 -109 -78 -102 -13 5 -12 14 9 61 35 79 112 324 130 413 2 10 10 49 19 86
9 38 16 79 16 93 0 19 8 29 33 39 37 17 54 18 61 7z m744 -170 c47 -78 86
-199 48 -146 -21 28 -30 11 -19 -35 9 -33 7 -45 -8 -70 -10 -17 -23 -31 -28
-31 -15 0 -52 89 -59 146 -7 55 -24 73 -30 33 -3 -18 -6 -17 -21 13 -16 32
-16 34 4 68 20 32 51 105 54 123 1 4 2 22 2 40 1 23 4 17 9 -21 5 -33 23 -77
48 -120z m227 110 c18 -42 22 -92 11 -146 -6 -33 -10 -37 -21 -25 -26 27 -37
114 -26 207 2 21 20 4 36 -36z m1629 3 c25 -46 76 -167 81 -195 2 -8 4 -15 5
-15 1 0 3 -7 5 -15 2 -8 13 -49 25 -90 25 -90 27 -98 34 -141 3 -19 8 -45 11
-59 25 -108 38 -313 23 -369 -11 -40 -22 -33 -24 17 -7 120 -25 258 -58 432
-29 155 -78 342 -109 418 -13 34 -23 62 -22 62 2 0 15 -20 29 -45z m-76 10
c-3 -3 -9 2 -12 12 -6 14 -5 15 5 6 7 -7 10 -15 7 -18z m-3741 8 c-3 -5 -8
-30 -11 -58 -3 -27 -8 -75 -12 -105 -19 -171 -19 -435 0 -605 10 -83 44 -273
57 -315 5 -19 12 -44 14 -54 24 -108 125 -339 206 -471 28 -46 49 -89 47 -95
-4 -14 -86 64 -131 127 -93 128 -205 425 -232 610 -3 23 -8 57 -11 75 -21 155
-22 559 0 673 2 11 7 44 11 74 6 48 48 151 61 151 3 0 3 -3 1 -7z m1413 -35
c0 -2 -9 -35 -19 -75 -10 -40 -17 -73 -16 -75 2 -2 6 -33 10 -70 11 -109 -13
-84 -38 40 -6 28 18 149 34 168 10 12 29 20 29 12z m317 -56 c10 -81 44 -138
73 -122 15 8 18 3 24 -33 12 -66 9 -109 -5 -118 -26 -16 -49 23 -55 91 -4 36
-13 72 -21 80 -12 13 -14 9 -12 -32 2 -39 -2 -53 -21 -73 -23 -25 -25 -25 -38
-8 -27 37 -8 195 30 240 14 17 21 10 25 -25z m-1077 -26 c-49 -143 -178 -356
-287 -476 -13 -14 -23 -28 -23 -32 0 -4 -7 -5 -15 -2 -20 8 -19 16 8 44 24 26
102 123 129 161 66 92 84 121 128 207 27 53 53 109 59 125 19 50 20 28 1 -27z
m3331 -136 c61 -60 94 -190 92 -367 -1 -84 -26 -227 -42 -237 -3 -3 -7 24 -8
59 -1 68 -11 177 -18 197 -2 7 -6 29 -9 48 -10 69 -37 187 -61 266 -14 45 -25
85 -25 89 0 10 26 -10 71 -55z m-2337 -92 c27 -57 40 -63 65 -32 12 15 21 25
22 23 0 -2 2 -11 4 -19 16 -70 15 -93 -7 -150 -13 -33 -27 -60 -31 -60 -5 0
-6 30 -2 68 7 62 6 66 -9 47 -8 -11 -23 -41 -31 -67 -31 -90 -46 -38 -18 62 6
23 5 24 -11 10 -10 -8 -22 -23 -27 -35 -7 -15 -8 -10 -5 19 4 40 -9 94 -21 83
-3 -4 -7 -20 -8 -37 -3 -36 -20 -59 -54 -72 -50 -19 -80 59 -46 120 28 53 30
54 58 41 33 -15 52 -1 75 55 l16 41 6 -30 c4 -16 14 -47 24 -67z m-862 -59
c-27 -57 -64 -123 -81 -147 -27 -36 -35 -41 -47 -31 -13 10 -12 15 4 33 28 30
82 111 127 188 21 37 40 66 42 64 2 -2 -18 -50 -45 -107z m575 56 c20 -39 21
-50 12 -102 -17 -94 -50 -225 -62 -249 l-12 -23 -33 28 -34 27 25 74 c36 107
50 165 64 253 3 20 8 37 12 37 3 0 16 -20 28 -45z m81 5 c-7 -11 -16 -20 -21
-20 -4 0 -3 9 3 20 6 11 15 20 20 20 6 0 5 -9 -2 -20z m772 -22 c0 -43 -18
-91 -21 -58 -5 57 0 100 11 100 6 0 10 -19 10 -42z m-99 -30 c39 -42 89 -238
60 -238 -5 0 -11 9 -14 20 -11 43 -23 16 -25 -57 -2 -43 -4 -85 -6 -93 -8 -42
-19 -70 -27 -70 -16 0 -36 99 -38 188 -1 17 -4 32 -8 32 -5 0 -21 -24 -36 -54
-25 -47 -110 -146 -127 -146 -3 0 -6 24 -7 53 -1 75 -21 193 -44 255 -16 46
-17 53 -4 58 8 4 15 11 15 18 1 6 7 25 14 41 l13 30 20 -40 c11 -22 23 -57 27
-77 4 -21 11 -40 16 -43 4 -3 23 21 41 52 69 124 70 125 88 111 9 -7 28 -25
42 -40z m-936 -110 c-18 -54 -31 -76 -40 -67 -3 3 7 33 22 67 33 73 42 74 18
0z m282 -111 l27 -58 -19 -54 c-24 -72 -51 -116 -67 -109 -7 3 -25 22 -40 44
-26 37 -26 39 -12 87 14 44 30 110 40 158 2 11 7 34 11 50 l6 30 13 -45 c8
-25 26 -71 41 -103z m1915 25 c61 -48 66 -55 55 -73 -12 -19 -12 -19 -30 3
-11 13 -46 52 -78 87 -32 35 -59 69 -59 74 0 5 10 -1 23 -14 12 -13 52 -48 89
-77z m-2451 16 c-17 -35 -34 -68 -38 -72 -4 -3 -8 -13 -9 -21 -1 -8 -19 -45
-40 -82 -34 -61 -38 -65 -50 -48 -20 27 -18 33 19 79 37 45 104 145 126 189
28 54 21 18 -8 -45z m888 12 c5 -19 12 -51 15 -70 7 -44 8 -271 2 -291 -3 -8
-8 -32 -11 -54 -4 -22 -10 -62 -14 -88 -12 -72 -5 -157 23 -272 8 -33 13 -61
12 -62 -7 -8 -101 172 -122 233 -76 228 -69 348 34 581 38 85 44 88 61 23z
m-228 17 c-10 -9 -11 -8 -5 6 3 10 9 15 12 12 3 -3 0 -11 -7 -18z m1157 -84
c44 -54 101 -120 127 -146 44 -45 47 -51 39 -80 l-9 -31 -46 55 c-55 65 -141
192 -160 237 -8 17 -17 32 -20 32 -4 0 -9 7 -13 15 -3 8 -4 15 -2 15 2 0 39
-44 84 -97z m-1148 49 c0 -10 6 -26 14 -37 8 -11 12 -36 9 -64 -10 -122 -51
-37 -44 92 1 30 21 38 21 9z m-90 -28 c0 -21 -4 -33 -10 -29 -17 10 -11 65 7
65 2 0 3 -16 3 -36z m2076 -25 c-7 -24 -21 -78 -31 -119 -10 -41 -29 -97 -42
-123 -13 -27 -23 -51 -21 -53 2 -2 21 1 42 7 73 20 73 8 -1 -68 -123 -126
-227 -180 -400 -208 -223 -36 -331 -94 -557 -297 -10 -9 -44 -29 -75 -44 -119
-58 -137 -67 -153 -82 -10 -8 -18 -21 -18 -29 0 -9 7 -12 18 -9 9 3 64 8 122
11 58 4 108 9 112 11 11 7 -4 -35 -17 -46 -7 -6 -53 -19 -103 -30 -87 -19
-113 -22 -286 -35 -75 -6 -122 -22 -170 -60 -34 -26 -8 -29 57 -7 59 21 83 25
222 37 61 5 85 9 165 26 100 21 170 43 187 58 133 117 185 153 236 165 l29 7
-23 -33 c-57 -81 -124 -147 -196 -196 -101 -67 -129 -77 -221 -77 -45 0 -82
-3 -82 -6 0 -3 12 -11 27 -18 21 -10 24 -14 13 -21 -8 -5 -17 -7 -20 -5 -3 1
-32 6 -65 10 -32 3 -63 9 -67 11 -16 10 -144 6 -173 -5 -45 -18 -105 -62 -105
-77 0 -18 5 -18 36 3 22 14 31 15 62 4 46 -16 132 -82 165 -124 14 -18 34 -43
46 -56 22 -25 20 -41 -5 -41 -8 0 -14 -4 -14 -10 0 -11 20 -14 57 -11 17 1 21
-2 17 -14 -4 -10 0 -15 13 -15 34 0 107 81 151 165 34 64 83 135 95 135 1 0
17 4 35 9 l32 10 -20 -29 c-12 -16 -34 -61 -50 -100 -48 -117 -99 -177 -177
-206 -93 -36 -193 1 -284 106 -48 55 -67 68 -108 75 -51 7 -135 -64 -133 -113
0 -17 15 -58 33 -93 51 -102 44 -172 -21 -199 -35 -15 -51 -6 -70 41 -16 38
-2 72 41 98 31 19 31 19 10 31 -17 8 -31 8 -57 0 -47 -16 -56 -5 -56 59 0 38
6 62 24 89 49 75 45 95 -27 137 -35 21 -53 25 -88 22 -54 -6 -124 -36 -185
-81 -26 -18 -61 -41 -79 -50 l-31 -16 0 45 c0 55 33 92 123 136 99 49 181 50
249 4 35 -23 36 -24 36 -4 0 20 -29 82 -52 109 -54 65 -152 103 -263 102 -129
-1 -170 -14 -335 -103 -57 -31 -75 -36 -140 -37 l-75 -2 35 20 c19 10 28 20
20 20 -136 7 -212 63 -281 206 -21 44 -39 83 -39 87 0 3 14 2 31 -3 33 -10 76
-39 132 -92 70 -66 96 -87 128 -103 32 -17 32 -17 25 7 -18 64 -29 118 -24
123 3 3 20 -1 40 -9 75 -32 144 -27 295 20 106 33 138 30 323 -25 19 -6 38
-10 41 -8 3 1 13 -4 22 -11 10 -9 17 -9 22 -3 9 15 -132 77 -250 111 -122 34
-216 34 -314 1 -35 -12 -65 -21 -66 -19 -8 8 -8 46 -2 71 9 34 38 46 89 37 43
-8 59 3 28 20 -32 17 -106 18 -205 3 -113 -18 -192 -21 -235 -10 l-32 8 32 24
c69 51 133 55 304 21 118 -23 118 -4 -1 33 -69 22 -104 28 -218 36 -44 4 -87
8 -95 10 -8 2 -37 6 -65 10 -139 16 -208 27 -231 36 -12 4 -24 6 -27 3 -7 -7
-214 46 -233 60 -14 11 -6 15 52 31 109 28 109 28 74 76 -50 70 -62 125 -64
290 0 82 2 149 5 149 14 0 59 -51 78 -89 12 -22 19 -41 17 -41 -3 0 0 -15 5
-32 5 -18 12 -49 15 -68 11 -76 17 -97 46 -152 17 -32 41 -64 54 -73 22 -14
24 -14 24 4 0 11 -5 32 -10 46 -8 21 -6 33 7 55 l16 28 27 -36 c60 -83 135
-135 212 -149 36 -5 35 1 -3 45 -32 36 -64 102 -75 150 -3 15 -8 87 -11 161
-4 99 -3 132 6 127 12 -8 43 -74 98 -206 48 -115 77 -169 110 -206 27 -30 83
-71 83 -61 0 2 -12 30 -26 61 -28 62 -28 91 2 208 9 33 14 82 12 109 -1 27 0
49 3 49 11 0 47 -46 68 -87 29 -59 42 -123 46 -241 3 -70 9 -111 20 -130 20
-34 79 -76 84 -61 2 6 0 14 -5 18 -42 30 -62 88 -43 123 11 20 13 17 29 -33
46 -148 93 -187 328 -268 147 -51 179 -68 251 -135 l44 -41 -7 33 c-17 96 -72
153 -222 237 -163 91 -195 125 -253 270 -26 66 -63 145 -82 175 -47 74 -86
158 -94 200 l-7 35 33 -37 c19 -21 58 -55 87 -76 29 -22 71 -63 93 -93 35 -47
39 -58 34 -91 -9 -54 3 -64 29 -26 26 39 42 40 151 10 30 -8 30 -9 31 -84 1
-87 2 -90 139 -281 95 -134 147 -250 149 -334 1 -64 -8 -74 -36 -37 -47 63
-141 144 -202 174 -82 41 -108 29 -32 -14 31 -17 76 -48 100 -68 43 -37 117
-140 151 -210 9 -21 21 -38 25 -38 4 0 10 28 14 63 3 34 9 80 13 102 15 85 7
196 -22 330 -20 91 -27 257 -13 320 8 39 28 71 90 147 43 54 81 98 83 98 2 0
12 -39 24 -87 29 -126 22 -191 -32 -333 -25 -63 -48 -131 -53 -150 -4 -19 -8
-37 -9 -40 -4 -14 -18 -124 -20 -157 -1 -21 2 -51 8 -67 l10 -28 12 34 c6 19
35 70 63 113 l52 79 0 82 c0 85 12 115 25 66 16 -55 9 -119 -21 -196 -6 -17
-5 -17 17 -6 13 7 29 19 37 26 26 27 53 112 67 214 7 53 44 160 55 160 23 0
31 -107 17 -217 -3 -18 -3 -33 -1 -33 10 0 67 69 85 104 25 47 26 96 5 170
-19 66 -26 130 -16 146 6 9 17 -1 39 -31 30 -40 39 -61 45 -102 1 -10 5 -17 9
-17 4 0 11 0 16 0 5 0 19 19 30 43 17 35 21 62 21 148 0 107 17 167 49 177 9
3 11 0 6 -7 -7 -12 -13 -341 -7 -341 2 0 33 16 69 36 74 40 94 40 33 0 -65
-43 -99 -86 -190 -237 -47 -78 -104 -166 -127 -196 -24 -30 -40 -59 -37 -64 9
-15 77 26 119 72 42 45 88 113 145 214 35 61 103 137 152 169 30 20 48 14 86
-27 l23 -24 -45 -56 c-25 -30 -69 -76 -98 -101 l-53 -47 -12 30 c-7 16 -17 32
-22 36 -6 3 -35 -32 -65 -78 -64 -99 -81 -118 -164 -181 -44 -33 -60 -51 -51
-56 7 -5 33 8 68 33 85 64 89 68 138 135 25 34 50 62 55 62 10 0 1 -40 -13
-54 -5 -6 -9 -23 -9 -40 l0 -30 34 40 c19 22 54 53 78 69 68 45 170 155 205
222 27 50 41 94 78 248 1 6 5 19 9 30 5 11 12 32 18 47 5 15 16 29 24 32 11 4
14 -7 15 -52 3 -157 -20 -240 -105 -371 -44 -68 -46 -82 -8 -61 9 5 78 39 152
74 205 98 278 186 304 364 6 47 14 51 28 14 14 -36 33 -42 35 -12 3 31 32 85
61 113 27 25 103 69 109 63 2 -1 -3 -22 -11 -47z m-3360 14 c-3 -14 -9 -29
-13 -33 -64 -52 -132 -84 -87 -41 10 10 36 37 57 60 21 22 40 41 43 41 2 0 2
-12 0 -27z m404 -14 c0 -26 -15 -46 -90 -120 -87 -86 -120 -106 -120 -73 0 11
190 215 208 223 1 1 2 -13 2 -30z m2528 -66 c8 -7 30 -26 50 -41 21 -15 39
-29 42 -32 3 -3 17 -13 32 -22 24 -16 26 -20 15 -53 l-10 -35 -25 22 c-13 13
-58 66 -100 118 -42 52 -79 97 -82 100 -3 3 -12 14 -20 25 -12 17 52 -37 98
-82z m-1487 60 c2 -29 -1 -41 -21 -86 l-20 -42 6 40 c3 22 5 51 5 64 -1 12 2
27 5 32 9 15 24 10 25 -8z m1974 -95 c-3 -57 -6 -110 -6 -120 0 -11 -11 -17
-40 -20 -39 -3 -40 -3 -34 22 4 14 8 32 10 41 5 25 67 179 72 179 3 0 2 -46
-2 -102z m-950 -24 c58 -81 74 -99 138 -165 26 -27 47 -54 47 -59 0 -39 -64 2
-169 110 -86 87 -101 114 -101 175 1 58 -5 62 85 -61z m-1592 57 c4 -18 0 -42
-10 -61 l-16 -32 -19 30 c-18 30 -18 30 4 65 26 40 33 39 41 -2z m1184 -62
c41 -57 43 -61 37 -116 -4 -42 0 -82 15 -144 24 -100 25 -115 9 -125 -6 -4 -8
-3 -5 3 8 13 -30 122 -54 154 l-17 23 -30 -47 c-26 -42 -40 -82 -68 -202 -6
-24 -8 -26 -12 -10 -2 11 -13 42 -24 68 -15 34 -25 46 -36 42 -9 -3 -12 0 -9
8 6 16 26 113 31 152 2 17 11 44 20 60 8 17 22 62 31 99 9 38 23 83 32 100 15
28 17 29 27 12 6 -10 30 -45 53 -77z m898 -34 c22 -26 50 -59 62 -74 27 -31
28 -35 8 -51 -17 -14 -54 9 -135 86 -43 41 -44 45 -45 104 l-1 62 36 -40 c19
-22 53 -61 75 -87z m-2965 65 c-12 -23 -78 -70 -98 -70 -20 0 -2 24 48 62 47
37 67 40 50 8z m700 5 c0 -8 -14 -29 -30 -47 l-31 -33 26 39 c14 21 25 43 25
47 0 5 2 9 5 9 3 0 5 -7 5 -15z m-290 -9 c0 -15 -124 -130 -171 -158 -47 -29
-33 -5 25 42 30 25 72 64 93 87 40 45 53 51 53 29z m887 -54 c2 -67 1 -69 -22
-65 l-23 5 21 64 c12 35 22 64 22 64 1 0 2 -31 2 -68z m58 3 c10 -34 22 -55
31 -55 8 0 14 -9 14 -21 0 -18 -4 -20 -27 -14 -16 4 -30 9 -33 11 -7 7 -13
134 -6 134 3 0 13 -25 21 -55z m-691 -86 c-30 -31 -40 -36 -46 -25 -6 10 6 33
34 72 l43 57 3 -33 c3 -27 -3 -40 -34 -71z m-254 53 c0 -33 -5 -40 -35 -56
-28 -15 -37 -16 -49 -7 -13 11 -20 5 -45 -34 -17 -26 -32 -53 -34 -59 -6 -15
-14 -6 -22 24 -5 20 -1 28 22 42 16 9 56 41 88 72 33 30 63 55 68 56 4 0 7
-17 7 -38z m501 -42 c-16 -24 -29 -33 -33 -26 -13 20 -9 47 14 78 l21 30 12
-22 c11 -20 9 -28 -14 -60z m-907 7 c4 -24 0 -30 -36 -48 -44 -23 -68 -20 -63
8 2 10 4 21 4 24 1 7 83 50 87 46 2 -1 5 -15 8 -30z m2892 -3 c16 -14 39 -32
52 -41 45 -31 21 -31 -33 0 -34 19 -55 38 -55 49 0 23 1 23 36 -8z m-1932 -13
c15 -28 14 -31 -25 -85 -23 -32 -43 -56 -45 -53 -2 2 -5 21 -6 43 -1 29 7 52
27 82 15 23 29 42 31 42 2 0 10 -13 18 -29z m1463 -48 c-32 -18 -33 -17 -31
25 2 51 2 51 29 17 l24 -30 -22 -12z m-2002 -30 c19 -97 19 -98 -2 -82 -25 20
-73 73 -73 81 0 7 49 37 61 38 4 0 10 -17 14 -37z m248 -15 c-8 -43 -11 -46
-22 -17 -5 15 -5 29 1 37 18 22 28 13 21 -20z m2272 -55 c-14 -13 -34 -23 -43
-23 -24 0 -63 60 -56 87 6 22 6 22 65 -10 l60 -32 -26 -22z m-2935 69 c0 -4
-13 -19 -30 -34 -16 -14 -30 -33 -30 -41 0 -25 36 -48 79 -50 22 0 43 -7 45
-13 4 -11 -13 -18 -74 -31 -51 -11 -54 -9 -61 32 -22 117 -22 111 13 128 36
18 58 21 58 9z m976 -55 c-8 -19 -12 -38 -9 -40 2 -3 0 -8 -6 -12 -17 -10 -13
48 5 73 22 32 28 21 10 -21z m436 -34 c10 -42 16 -78 14 -80 -9 -9 -46 90 -46
122 0 58 14 40 32 -42z m1041 45 c-82 -70 -123 -119 -158 -184 -20 -38 -48
-82 -62 -99 -33 -39 -29 -32 51 102 63 106 119 172 169 200 39 22 39 14 0 -19z
m932 -50 c-10 -80 -11 -87 -35 -183 -30 -127 -57 -218 -88 -304 -21 -58 -39
-86 -81 -128 -29 -29 -57 -53 -61 -53 -4 0 5 26 21 58 91 185 163 386 184 512
3 19 8 51 12 70 5 29 37 80 50 80 3 0 1 -24 -2 -52z m-3357 24 c2 -7 -7 -12
-23 -12 -24 0 -26 2 -15 15 14 17 31 16 38 -3z m1012 -74 c0 -11 -8 -18 -20
-18 -16 0 -20 7 -20 33 0 17 3 43 7 56 5 21 7 20 19 -15 8 -22 14 -47 14 -56z
m1810 61 c13 -23 13 -22 -17 -38 -31 -16 -32 -15 -20 24 12 40 22 44 37 14z
m-1746 -153 c37 -46 130 -111 229 -161 32 -17 72 -43 90 -58 32 -28 32 -28 2
-8 -16 11 -73 36 -127 55 -173 62 -254 110 -291 175 -14 25 -15 30 -3 25 8 -3
23 -1 33 5 26 15 27 15 67 -33z m720 -139 c-1 -56 -5 -70 -29 -99 l-28 -33 8
45 c4 25 8 52 9 60 1 9 5 20 8 25 3 6 9 25 13 43 11 51 21 30 19 -41z m-778
-239 c-50 -16 -106 -28 -125 -26 l-36 3 42 23 c24 12 66 25 95 28 29 3 54 7
56 8 1 2 15 1 30 -2 22 -5 11 -11 -62 -34z m248 -217 c17 -11 43 -22 57 -25
34 -6 89 -34 89 -45 0 -5 -17 -11 -37 -14 -69 -8 -272 70 -223 86 8 3 22 8 30
10 30 10 53 7 84 -12z m128 0 c46 -20 106 -76 94 -88 -4 -4 -10 -3 -14 3 -30
45 -56 65 -108 83 -32 11 -49 20 -37 21 12 0 41 -8 65 -19z m-276 -46 c18 -12
61 -30 139 -59 18 -7 18 -9 -10 -23 -16 -9 -47 -29 -67 -45 -37 -29 -38 -29
-38 -8 0 12 8 35 17 51 33 55 -17 51 -85 -6 l-42 -36 -46 35 -46 35 69 35 c78
40 81 41 109 21z m1461 -57 c-17 -154 -90 -272 -174 -282 -58 -8 -57 9 4 62
62 54 104 118 123 192 10 40 34 80 48 80 2 0 2 -24 -1 -52z m-1635 -48 c14
-11 38 -45 53 -77 17 -36 30 -52 33 -43 3 8 17 29 33 47 25 29 28 30 32 12 6
-23 1 -148 -6 -156 -3 -2 -1 -18 3 -34 11 -38 -3 -46 -28 -14 -28 36 -46 33
-27 -4 17 -34 61 -69 119 -96 46 -20 124 -16 177 10 l34 16 -23 -20 c-63 -55
-225 -68 -317 -26 -57 27 -128 44 -160 39 -15 -2 -16 -1 -4 11 12 12 38 19 82
24 14 2 7 20 -19 46 -28 28 -28 30 -9 170 1 11 -6 41 -15 68 -17 45 -17 47 0
47 9 0 29 -9 42 -20z m-294 -44 c15 -8 53 -39 86 -69 32 -30 72 -59 89 -64 26
-7 33 -15 38 -43 3 -19 10 -43 14 -52 9 -22 2 -22 -52 -2 -23 9 -40 20 -37 25
3 5 -15 9 -40 9 -34 0 -44 3 -40 14 5 12 -67 134 -99 168 -6 7 -18 21 -26 31
-13 16 -12 17 13 8 14 -6 38 -17 54 -25z m872 -57 c0 -26 -17 -33 -29 -10 -16
29 -13 40 9 34 11 -3 20 -14 20 -24z m-58 -41 l12 -40 -60 -57 c-79 -76 -122
-96 -205 -92 -28 1 -71 38 -75 64 -1 9 9 20 25 25 15 5 52 29 82 53 70 57 103
78 147 94 45 15 58 7 74 -47z m33 -192 c3 -25 3 -46 1 -46 -9 0 -66 23 -66 27
0 7 54 72 58 69 2 -2 5 -24 7 -50z m-29 -76 c45 -25 54 -27 64 -15 20 24 25
18 26 -30 1 -28 8 -53 19 -65 25 -27 17 -31 -29 -15 -39 14 -96 60 -96 79 0 6
-11 24 -25 40 -40 47 -33 48 41 6z"/>
<path d="M3866 4641 c-16 -18 -13 -51 5 -51 5 0 9 -14 9 -30 0 -35 36 -74 87
-96 40 -17 43 -17 43 1 0 8 -15 21 -34 30 -37 18 -57 52 -49 84 7 29 33 26 81
-9 52 -38 82 -95 82 -157 0 -43 1 -46 16 -31 38 38 6 142 -67 216 -57 59 -140
80 -173 43z"/>
<path d="M2349 1310 c-11 -106 88 -250 170 -250 31 0 25 17 -11 36 -58 30
-109 95 -129 164 -14 49 -28 73 -30 50z"/>
</g>
</svg>
