<?xml version="1.0" encoding="utf-8"?>
<!-- Generator: Adobe Illustrator 24.3.0, SVG Export Plug-In . SVG Version: 6.00 Build 0)  -->
<svg version="1.1" xmlns="http://www.w3.org/2000/svg" xmlns:xlink="http://www.w3.org/1999/xlink" x="0px" y="0px"
	 viewBox="0 0 576 504" style="enable-background:new 0 0 576 504;" xml:space="preserve">
<style type="text/css">
	.st0{display:none;}
	.st1{display:inline;fill:#231F20;}
	.st2{display:inline;fill:#800000;}
	.st3{fill:#800000;}
	.st4{fill:#FFFFFF;}
	.st5{fill:#231F20;}
	.st6{fill:#737373;}
	.st7{display:inline;}
</style>
<g id="Background" class="st0">
</g>
<g id="phoenix">
	<g>
		<g>
			<path class="st3" d="M527.14,185.76c5.45,1,9.9,1.83,11.12-0.3c0.18-0.32,0.27-0.69,0.27-1.1c0-1.54-1.3-3.69-4.02-6.79
				c-7.65-8.71-21.31-28.78-25.51-35.7c3.94,1.24,8.17,2.14,11.17,1.89c2.26-0.2,4.96-0.64,5.47-2.48c0.04-0.18,0.08-0.41,0.08-0.61
				c0-1.84-2.1-4.21-6.84-7.71c-5.67-4.28-11.93-13.1-15.68-18.37l-1.55-2.2c-2.99-4.13-6.39-6.52-9.92-8.79
				c4.23,0.31,7.29,0.11,8.04-1.54c0.71-1.53-0.85-3.27-2.1-4.44c-6.74-6.31-24.17-18.73-38.9-21.23c2.58-3.1,3-7.49,2.89-10.02
				l-0.04-0.89l-2.13,0.38l-9.67,0.73c-3.41,0-7.52-1.88-11.91-3.85c-5.26-2.4-11.22-5.13-17.42-5.27
				c-7.19-0.16-15.14,1.95-23.6,6.31l-3.75,0.25l-6.64,0.26c-4.16,1.17-11.07,5.22-16.74,12.72c-2.7,3.58-1.67,8.59-0.82,12.64
				c0.58,2.73,1.08,5.3,0.21,6.2c-1.11,1.12-2.46,1.2-3.4,1.07c-1.91-0.24-3.82-1.5-4.77-3.11l-0.81-1.37l-0.59,1.48
				c-0.35,0.87-0.52,1.64-0.52,2.45c0,1.94,1.25,4.05,3.37,6.92c-4.13-0.08-8.55,1.72-11.61,4.8c-2.57,2.55-3.74,5.58-3.33,8.5
				l0.19,1.33l1.07-0.83c3.34-2.58,7.27-4.33,10.8-4.82l4.14,0.45l7.64,1.23c6.18,0.22,8.76-1.9,11.26-3.94l2.47-1.86
				c0.66,0.92,4.61,3.37,5.39,6.77c0.09,0.4,0.13,0.77,0.13,1.17c0,1.21-0.39,2.46-1.21,3.69c-3.63,5.72-3.98,6.28-6.44,13.86
				c-2.3,7.23-8.97,9.87-13.29,10.06c0.65-1.79,0.99-4.41,1.29-7.64l0.66-5.91c0.6-3.53,1.64-4.52,3.48-6.3l3.02-2.99l-1.43-0.3
				c-3.78-0.88-11.25,3.68-15.04,8.11c-1.39-2.45-3.69-5.92-8.79-5.92h-1.17l0.43,1.06c1.03,2.6,2.21,7.74,0.1,10.58l-2.59,2.89
				c-3.35,3.54-7.79,7.71-8.84,12.63c-1.56,0.26-5.31,0.87-9.24,0.73c0.26-1,0.39-1.93,0.39-3.28c0-0.11,0-0.24-0.02-0.35
				c0,0-0.19-5.19-0.42-8.13c1.58,1.68,1.33,1.93,4.61,5.23l0.46-0.84c1.14-1.9,1.72-4.01,1.72-6.04c0-1.03-0.15-2.02-0.45-3
				c0,0-1-4.45-1.41-6.26c0.05-0.02,5.65-1.12,5.65-1.12l2.77-3.02l1.16-2.06l-0.63-0.43c-3.73-2.14-5.59-5.52-8.13-10.17
				l-0.65-1.15c-0.99-1.81-1.75-6.05-1.87-8.34c0.23,0.02,0.75-0.27,0.75-0.27c1.77-0.97,4.18-2.28,5.43-5.67
				c1.2-3.47,1.03-6.07-0.55-8.22l-0.46-0.61l-0.62,0.42c-1.21,0.81-3.09,1.45-4.58,1.07l-1.72-1.45c0-0.01-0.3-2.86-0.3-2.86
				l0.36-2.54c-0.16-1.7-1.74-3.05-2.63-3.75c0.76-0.74,2.39-2.22,2.39-2.22l5-5.48c0.58-1.07,0.98-3.18,0.98-5.68
				c0-3.79-0.95-8.47-3.78-11.67l-1.9-2.05l-4.18-1.37l0.33,1.37c0,2.27-0.1,7.26-1.46,9.29v-0.09c-0.34-2.41-0.64-5.46-3.87-5.26
				l-2.14,0.8l-3.13,1.99l-1.37,0.37c-3.38,0-6.21-1.28-9.19-3.02c-4.29-2.48-9.17-5.3-17.89-5.04
				c-13.42,0.36-18.71,5.51-20.96,7.69l-0.99,0.68c-1.19,0.08-1.3,0.04-1.55-0.43c-0.41-0.81-0.97-1.81-2.94-1.81
				c-2.25,0-3.01,1.49-3.59,2.64l-1.18,1.7c-4.84,1.61-16.68,7.07-16.9,18.62c-0.13,8.23,6.2,12.07,9.62,12.95l0.96,0.25l0.01-1.01
				c0.04-2.41,0.93-6.45,6.41-6.63c1.98-0.06,3.4,1.08,4.27,2.03c1.37,1.55,1.98,3.45,1.87,4.18l-0.11,0.65l6.27,2.14
				c0,0-6.98-0.72-12.02-0.48c-3.66,0.18-9.43,1.64-9.43,1.64c-4.08,0.91-7.95,1.76-10.28,1.46c-6.82-0.85-8.19-5.62-8.71-10.62
				l-0.27-2.93l-1.23,2.69c-2.67,5.89,0,16.68,6.84,20.44c3.34,1.85,6.96,2.86,10.48,2.92c3.48,0.08,7.06-1.28,10.85-2.72
				c4.09-1.59,8.34-3.47,12.92-3.47c8.33,0,11.29,0.45,13.73,1.21c0.25,0.33,0.2,0.25,0.48,0.56c-1.68,0.43-5.06,1.43-5.06,1.43
				l-4.55,3.16c-2.56,1.83-5.51,3.92-7.44,4.14l-8.35,0.25l0.76,1.2c1.48,2.05,7.48,6.91,13.67,6.75l5.53-0.84
				c1.93-0.49,2.96-0.71,3.72-0.14c0.9,0.68,0.97,1.83,0.9,2.72c-0.27,2.36-2.24,5.61-5.53,7.22l-0.91,0.41l1.5,1.81l3.29,2.61
				c-3.8,1.95-7.88,2.57-11.16,1.47l-1.6-0.54l1.47,3.76c0,0,1.47,3.62,1.9,4.72c-0.57,0.3-4.18,1.78-4.18,1.78l-4.03,2.57
				c-0.98,0.91-3.66,3.76-4.35,4.93c-3.18-5.11-7.02-8.54-11.88-11.51l-4.01-2.39l-5.35-2.41l-2.9-6.63l-1.12-3.12
				c-0.01,0-1.87-3.35-1.87-3.35l-2.73-2.42l-1.45,0.23c0,0-0.25,2.89-1.02,6.16c-0.61,2.59-1.7,5.49-2.21,6.99
				c-0.73-2.16-1.82-5.44-1.82-5.44l-0.8-3.47l-2.39-3.11l-2.75-2.28l-1.36,8.39l-1.07,2.76c-0.86,2.39-1.17,4.51-1.17,6.38
				c0,4.42,1.81,7.46,2.95,9.34c0,0,0.83,1.64,0.83,1.65c-0.02-0.11-1.68-0.02-1.68-0.02c-2.09-0.11-5.6-0.3-11.78,1.37l-8.24,3.53
				l-2.44,1.09l-1.76-0.89l-1.4-3.11l0.74-2.49l1.47-6.18l-2.15-4.97l-2.42-5.22c-0.01-0.13-0.03-0.24-0.03-0.39
				c0-2.79,3.45-6.76,5.57-9.18c0,0,0.84-1.03,1.36-1.65c2.87,2.45,8.96,2.97,12.63,2.07c1.79-0.44,2.79-1.11,3-2.04l0.16-0.78
				l-0.76-0.17c-1.82-0.38-5.05-3.1-5.65-5.75c0-0.53,0-1.12,0.01-1.32c0.22,0.27,1.46,0.27,1.46,0.27c4.35-0.13,5.9-0.4,9.25-5.69
				l0.62-0.93l-1.1-0.26c-8.17-1.94-9.84-2.9-10.61-9.55l-0.07-7.15h0.03l-0.05-0.81l-0.1-0.8c-0.71-9.97-4.01-17.17-9.97-21.25
				c-6.8-4.67-8.43-4.78-19.28-4.27l-8.11,2.87l-11.43,4.75c-3.6,1.21-13.21,2.03-19.48-0.67l-0.58-0.25l-0.36,0.49
				c-2.33,3.01-3.18,5.8-3.18,8.28c0,3.15,1.41,5.75,2.83,7.88c-1.26,0.58-5.02,2.39-5.02,2.39c-0.8,0.39-2.59,1.44-2.59,1.44
				l-8.11,4.11v0.04c-1.33,0.42-13.77,4.78-13.77,4.78l-10.1,3.56l-8.81,1.64c-0.67,0.01-1.69,0.97-2.01,1.71l-0.2,0.48l0.37,1.03
				c3.63,4.15,9.09,4.81,14.38,5.46c1.27,0.17,2.01,0.5,2.08,0.89c0.07,0.46-0.72,0.84-1.6,1.26c-0.79,0.4-7.03,4.16-7.03,4.16
				l-23.61,13.45c-1.84,0.77-5.67,2.53-5.67,2.53l-11.77,5.32l-5.67,2.45c-1.14,0.55-1.3,1.41-1.29,1.89
				c0.04,1.17,1.17,2.33,1.93,2.62c4.38,1.65,20.31,1.54,24.09,1.08l16.73-3.32l3.18-1.43c0,0,6.61-1.88,6.66-1.88h0.95
				c0.22,0.04,0.25,0.16,0.25,0.16c-2.86,4.02-7.71,9.1-15.32,14.41l-15.64,9.63l-2.85,1.57l-14.47,7.51l-7.84,3.32
				c-2.14,0.86-3.69,3.87-3.32,6.41c0.17,1.26,1.11,4.2,5.98,4.73c10.55,1.08,25.74-3.2,45.16-12.75l-0.02-0.1
				c1.01-0.51,1.78-1,2.64-1.5c-11.6,13.92-23.64,24.53-36.41,35.77l-11,9.8c-3.17,2.88-3.54,7.87-0.87,11.4l3.15,1.79
				c7.36,2.73,13.78-1.71,19.45-5.61l1.4-0.96c7.84-5.35,14.19-12.17,20.33-18.76l1.09-1.16c-4.17,7.16-7.56,13-7.56,13l-5.84,12.25
				l-1.91,4.36c-6.87,15.27-9.22,28.69-10.73,40.87c-1.2,9.74-0.63,17.05,1.54,19.56l1.86,0.98c4.14,0.13,6.87-2.71,7.94-5.19
				l4.96-14.33l4.03-11.97c1.76-4.91,11.37-29.43,11.23-29.46c1.22-2.16,3.1-6.49,3.1-6.49l2.13-4.92l2.3-4.61
				c-1.68,11.92-3.42,32.06-2.23,47.97c-4.49,6.18-10.76,13.49-14.47,15.51c-2.67,1.43-3.37,2.08-3.11,2.92
				c0.28,0.84,1.35,0.72,2.15,0.63c0.2,0,16.27-3.26,16.27-3.26l0.5-0.14c1.66,16.41,3.35,24.94,4.59,29.22
				c4.12,14.5,15.64,45.02,29.7,56.77c6.81,5.71,10.78,7.57,12.8,6.03c3.33-2.51-1.07-13.14-6.34-24.72l-1.09-2.41
				c-5.24-11.81-7.07-17.87-9.18-26.56c5.45,1.6,19.1,4.85,23.85,5.79c0,0,32.27,4.89,34.91,5.29c-0.18,0.16-0.45,0.42-0.45,0.42
				l-7.14,6.21c-1.2,0.96-1.79,1.91-1.79,2.83c0,0.24,0.03,0.46,0.12,0.69c1.11,3.5,11.23,4.21,14.3,4.34
				c4.55,0.24,13.34-1.8,19.78-3.27c0,0,3.03-0.68,4.58-1.01c-0.02,0.09-1.54,4.65-1.54,4.65c-0.43,1.33-0.62,2.43-0.62,3.4
				c0,2.99,1.72,4.67,3.48,6.41l0.65,0.68c-5.1-0.56-8.26-1.66-12.08-4.66l-0.92-0.7l-0.32,1.11c-0.81,2.67-1.19,4.49-1.19,6.22
				c0,1.79,0.47,3.76,1.2,6.36c-2.16-1.88-5.82-5.11-5.82-5.11c-5.86-5.43-11.94-11.03-15.11-11.89
				c-5.16-1.35-12.14-2.13-16.29-0.23l-1.17,0.54l0.98,0.81c3.92,3.17,8.03,8.97,10.45,14.74c4.33,10.34,14.65,17.49,22.28,18.59
				c-0.9,0.6-2.8,1.89-2.8,1.89l-0.67,0.59l0.94,0.55c1.77,1.26,10.9,6.5,22.42,3.84l2.42,3.54c0.21,0.42,0.68,1.22,0.9,2.08
				c0.26,1.02,0.29,2.1,0.29,2.75c0,2.21-0.7,4.6-1.35,6.45c0,0-0.09,0.12-0.23,0.82c-4.39-0.56-6.23-1.62-8.5-3.98l-1.43-1.45
				c-11.18-11.55-11.65-11.6-22.55-11.6c-2.3,0-4.55,0.5-4.9,1.92c-0.02,0.13-0.03,0.27-0.03,0.4c0,1.44,2,2.51,2.68,2.89
				c5.78,3.12,9.73,9.73,12.62,14.58c0,0,2.47,3.7,3.2,4.77c-0.65,0.5-7.99,6.58-7.99,6.58l2.17,0.04l5.9-0.19l3.85-0.33l2.9-0.51
				c0.21-0.04,0.38,0.55,0.38,0.55c0.63,0.84,1.52,2.09,5.44,2.42l1.86,0.68l0.53,0.42l-0.62,0.49l-1.14,1.5l-1.55,1.4
				c-1.45,1.08-2.36,2-2.1,3.02c0.36,1.31,2.38,1.55,7.29,2.15l2.4,0.28c6.8,0.82,10.02,2.16,12.89,3.34
				c2.84,1.17,5.31,2.19,10.41,2.47c11.63,0.6,19.62-2.02,25.5-5.66c3.33,2.15,5.86,4.13,7.19,7.52c1.17,2.89,4.6,5.52,7.33,7.16
				c4.67,2.79,14.09,2.76,16.25,0.47l0.18-0.2c6.13-2.16,11.84-9.96,11.07-15.19c-0.71-4.99-3.02-8.55-4.89-11.43
				c-2.66-4.08-4.24-6.54-0.83-10.48c1.12-1.28,3-2.98,5.38-2.76c2.62,0.25,5.21,2.73,7.6,6.81c3.9,6.59,10.49,10.94,18.65,12.57
				c8.77,1.77,18.24,0.23,24.15-4.19c1.11-0.85,2.51-2.23,3.95-3.96c13.79,2.24,20.83-6.19,26.26-14.48c1.93-2.94,3-8.06,4.01-13
				l1.02-4.66l1.26-4.19l0.58-1.56c0.62-1.8,1.04-2.96,4.94-7.19l1.13-1.37l-1.97-0.18c-12.83-1.39-17.85,6.42-22.76,19.97
				c-2.8,7.83-4.3,10.62-6.44,12.82c0.55-1.65,0.97-3.28,1.06-4.79c0.12-2.04,1.68-5.57,3.16-9.02l2.47-5.96l-0.76-0.27
				c-3.13-1.25-6.28-1.21-9.32,0.09c-5.67,2.46-9.25,8.51-10.38,11.38c-3.44,8.91-6.49,15.5-14.68,19.34
				c-2.25,1.06-2.28,2.05-2.09,2.54c0.29,0.82,1.32,1.04,3.05,0.61c2.38-0.61,10-7.58,12.42-13.2c4.34-10.12,8.12-16.46,14.07-17.71
				l3.29-0.47c-0.06,0.04-0.11,1.05-2.5,3.82l-1.97,3.21l-1.82,4.5c-2.17,5.71-4.87,12.8-11.62,18.34
				c-4.77,3.9-10.48,5.55-16.54,4.73c-7.09-0.95-13.82-5.24-18.42-11.77c-3.3-4.7-6.91-7.41-10.73-7.62
				c-3.82-0.23-7.73,1.98-11.52,6.18c-4.07,4.52-1.07,9.96,1.84,15.22c1.86,3.34,3.78,6.82,3.5,9.71c-0.67,6.81-2.36,7.67-5.15,9.09
				l-1.68,0.9l0.02-0.03c-1.76,1.04-3.38,0.9-5.68-2.99c-1.38-2.33-1.84-4.41-1.38-6.22c0.8-3.08,4.03-4.96,6.4-6.35l1.11-0.66
				l0.59-0.37l-0.92-0.77c-3.27-2-6.96-0.28-9.19,0.73l-1.49,0.61c-2.02-1.79-2.97-8.11-1.58-12.15c0.43-1.24,0.64-2.14,0.78-2.89
				l0.68-0.86c3-3.29,4.43-6.06,4.17-8.21c-0.29-2.48-2.61-3.72-4.95-5.29l-2.1-1.48c-5.2-3.97-17.96,0.62-23.05,4.12l-3.85,2.85
				c-3.56,2.74-7.18,5.29-11.04,6.23c0.07-0.93,0.65-5.27,0.65-5.27l-0.41-3.58c12.68-12.92,28.38-16.71,38.25-9.41
				c0.14,0.12,0.33,0.1,0.49,0.14l1.36,2.14l1.39-0.6c-0.17-0.92-0.4-1.94-0.74-3.09c-0.01-0.09-0.06-0.17-0.1-0.24
				c-2.38-7.52-9.34-19.02-30.33-19.31c-16.01-0.21-25.11,5.24-31.75,9.21l-5.14,2.91c-6.45,3.09-15.32,2.75-18.84,2.09
				c1.82-0.95,7.25-3.74,7.25-3.74l-2.68-0.25c-11.15-0.78-17.36-2.79-26.23-17.71l-3.05-6.96c0,0-1.45-3.25-2.11-4.76
				c6.63-0.1,12.01,5.17,17.66,10.73c4.22,4.14,8.56,8.41,13.54,10.29l1.75,0.65l-0.76-1.71c-1.9-4.29-2.83-8.4-2.83-12.5
				c0-0.5,0.05-0.97,0.09-1.47c11.79,6.64,20.52,4.02,33.45-0.14l6.14-1.95c4.11-1.28,13.54,0.38,18.75,2.08l3.81,1.2
				c5.7,1.79,10.6,3.37,12.02,4.33c0.01,0.01,0.05,0.04,0.06,0.04l0.86-1.33l-0.04-0.02c-0.69-0.42-13.6-8.04-24.27-10.16
				c-0.26-0.1-0.52-0.19-0.79-0.28c-12.84-4.52-26.99-3.61-38.17,2.21c-0.87-1.16-1.45-2.63-1.45-4.35c0-2.05,0.61-4.31,1.86-6.37
				c0.88-1.5,4.51-1.12,7.41-0.81l6.74,0.35l-2.32-1.57c-4.54-3.22-15.24-2.11-20.28-1.1l-4.06,0.47l-6.38,1.07
				c-5.11,1.46-16.55-0.24-17.63-1.18c0.21-0.84,5.64-5.02,11.3-6.73c2.69-0.8,10.18-0.8,30.59,3.75l0.6-1.42
				c-3.22-2-16.55-6.61-26.56-6.78c-8.54-0.12-40.44-4.84-47.18-6.05c-7.95-1.43-21.22-4.82-24.74-6.72l-0.06-0.22
				c0.31-0.05,18.29-5.45,18.29-5.45l-0.91-1.05c-3.05-3.6-8.66-12.71-8.66-21.54c0-0.79,0.04-1.6,0.13-2.38l0.43-14.26
				c-0.02-0.01-0.21-1.96-0.21-1.96c-0.25-2.2-0.52-4.62-0.52-6.46c0-0.49,0.1-0.78,0.13-1.17c4,2.01,7.33,5.55,9.04,10.21
				c1.18,3.23,3.5,13.78,3.87,17.65c0.74,7.54,6.9,17.73,10.5,18.92l1.27,0.38l0.15-1.3l-0.88-2.99l-1.33-4.08
				c0.01,0,0.88-2.01,0.88-2.01c0.43-1.06,1.43-3.2,2.34-4.6c2.16,4.25,7.46,10.39,9.85,12.39c1.84,1.53,11.52,7.09,16.58,6.95
				l0.25-1.54c-2.02-0.71-7-7.2-9.49-14.38c-1.43-4.08-2.74-15.31-2.74-21.06v-6.61c0,0,0.11-4.46,0.16-7.08
				c1.83,2.77,4.34,7.31,5.2,9.16l9.05,21.52c3.19,7.74,7.2,13.24,11.88,16.6c0.68,0.7,1.52,1.29,2.48,1.68
				c0.04,0.03,0.08,0.07,0.11,0.08c0.02,0.02,0.04,0.02,0.09,0.06l2.16,0.81l-1.22-1.96c0-0.02-0.01-0.02-0.02-0.03h-0.01
				c-2.78-4.65-4.55-7.57-4.55-12.32c0-3.11,0.78-7.04,2.41-12.67c0.08-0.15,0.11-0.29,0.14-0.46c0.02-0.05,0.03-0.1,0.05-0.14
				c0.01-0.11,0.02-0.22,0.06-0.32c0.03-0.22,0.09-0.41,0.12-0.62c0.77-3,1.11-6.24,1.11-9.16c0-2.8-0.25-4.94-0.52-6.52
				c4.47,2.85,7.53,9.21,8.68,12.12c3.11,7.92,3.59,16.63,3.59,22.89c0,1.6-0.02,3.05-0.06,4.3c0,0.12-0.02,0.25-0.02,0.38
				c0,5.99,3.08,10.39,9.45,13.94c0,0.03,0.02,0.03,0.02,0.03c0.11,0.06,0.14,0.15,0.22,0.2l0.99-1.24l-0.66-0.72
				c-4.45-5.05-5.78-6.54-5.52-10.44c0.15-2.46,1.22-4.17,2.42-5.59c2.37,11.29,4.59,18.67,14.77,25.02
				c6.2,3.85,13.57,6.01,20.12,7.92l12.57,4.54c7.61,4.22,10.78,7.48,13.3,10.11l2.95,3.04l-0.4-2.5
				c-1.36-8.19-6.19-14.98-13.95-19.62l-8.43-4.78c-10.18-5.55-18.95-10.37-23.17-20.68l-4.52-12.59l-3.75-7.77
				c-4.37-5.9-9.86-16.7-10.97-20.75c-0.7-2.71-0.98-4.91-0.98-6.53c0-0.19,0.06-0.28,0.07-0.41c0.06,0.07,0.21,0.32,0.21,0.32
				c1.82,2.84,4.07,6.4,7.02,8.23c1.64,0.98,10.04,6.32,13.43,11.98l2.92,4.16c1.04,1.31,1.55,1.96,1.55,2.64
				c0,0.29-0.13,0.62-0.33,1.03l-1.19,6.4c0,0,0.83,0.79,0.86,0.73c0.32,0.29,0.61,0.53,0.61,0.53l0.92-1.78
				c1.38-2.8,2.56-5.2,6.36-5.01l10.91,2.88l3.03,0.84c-0.79,2.95-1.19,5.62-1.19,8c0,8.11,3.94,13.18,7.52,17.84l1.8,2.37
				l2.98,3.98c7.33,9.8,12.22,16.36,17.28,34.41c-0.08,3.75-0.48,7.19-1.32,9.97c-6.19-9.6-12.68-15.06-17.14-18.11
				c-3.82-2.63-9.39-5.61-13.76-6.27c-0.03,0-0.08-0.03-0.12-0.03v0.01c-0.03-0.01-0.11-0.04-0.14-0.05l-0.4,1.52
				c3.69,1.4,11.39,5.52,17.43,11.18c4.62,4.29,12.44,16.73,14.73,23.3l1.55-0.19l0.17-3.7l0.37-4.23l0.28-1.58
				c2.58-14.67,3.55-20.16-1.4-40.63l-2.02-14.46l-0.03-1.26c-0.16-4.89-0.14-10.5,1.05-15.2c0,0,0.5-2.44,1.11-5.35l2.45-3.02
				l6.51-7.97c0,0,5.24-6.48,7.18-8.84c1.65,4.09,4.44,15.69,4.44,19.09c0,0,0.02,2.76,0.02,3.22c0,7.47-0.45,8.85-8.13,27.86
				c-2.49,6.19-5.09,19.79-5.09,28.27c0,2.66,0.23,4.81,0.83,6.08l1.01,2.2l1.14-4.94c0.3-0.23,6.09-10.42,6.75-11.13
				c4.08-3.68,5.41-7.74,4.57-14c-0.47-3.66-0.01-7.9,1.09-11.72c1.78,3.49,3.45,8.65,2.46,13.57l-1.35,6.02l-0.99,2.81l-1.41,2.96
				l3.64-1.57c0,0,3.31-2.9,3.57-3.29c0.05-0.09,0.35-0.61,0.41-0.72l0.53-0.96l1.96-5.38c1.79-6.17,2.24-10.21,3.06-15.8
				c0.6-4.42,3-10.24,5.18-13.98c0.13,0.26,0.84,1.41,1.3,2.21l0.6,1.52c1.3,2.78,0.1,17.96-0.37,20.51l-0.56,2.5l4-4.35l3.79-4.56
				l1.91-3.07c1.05-2.42,1.51-4.43,1.51-6.65c0-3.02-0.88-6.47-2.41-11.82c-1.06-3.62-1.41-6.64-1.41-9.03
				c0-2.24,0.33-3.98,0.66-5.19c1.02,1.23,2.52,2.88,3.56,4.06c2.54,3.47,4.74,7.76,5.02,11.17l-0.09,2.54l1.65-0.78
				c2.71-1.63,5.12-5.4,5.59-9.79l0.05-6.4c-0.05-1.36-0.05-2.89-0.05-4.48c0-5.13,0.23-10.77,1.45-12.85
				c1.93-3.19,2.75-3.59,4.6-3.62c-0.68,1.93-1.21,3.97-1.21,5.8c0,0.6,0.22,1.26,0.31,1.9c0,0.02-0.07,10.66-0.07,10.66l-0.08,9.11
				l-0.56,7.98l1.28-0.67c0,0,12.55-7.44,12.59-7.48c-0.04,0,0.74,0.71,1.19,1.36c-5.43,2.47-12.99,9.3-15.91,14.03l-4.45,7.38
				c-4.09,6.9-9.66,16.3-13.79,22.6l-1.75,1.77l-2.77,3.56c-1.21,1.41-1.78,2.05-1.31,2.79l0.25,0.37l0.25,0.11l1.22-0.23
				c3.42-1.11,6.29-2.86,8.5-5.18c7.63-8.12,10.97-14,14.15-19.71l2.44-4.47l3.41-5.1c3.22-4.65,10.4-10.63,15.09-13.31
				c-0.4,0.21,6.23,5.6,7.74,6.82c-6.6,9.71-14.71,17.39-20.6,20.92c-0.54-3.53-0.86-5.53-2.8-6.57l-1.03-0.55l-0.42,0.8
				c-11.48,19.09-14.6,21.17-20.27,24.91l-5.55,3.92c-0.93,0.7-1.32,1.34-1.24,1.94l0.09,0.35l0.09,0.17l0.49,0.28
				c0.6,0.25,1.42-0.02,2.26-0.68l1.81-1.26c3.87-2.65,11.93-8.22,14.14-11.94l2.38-3.49l2.88-3.61c0,0,1.81-2.23,3.06-3.98
				c0,0.15,0.23,1.6,0.2,2.77c-0.02,1.15-0.5,1.91-0.5,1.91l-0.73,1.36c-0.98,1.77-1.98,3.11-1.98,4.67c0,0.28-0.02,0.91,0.16,1.47
				l0.46,1.28l0.8-1.08c3.74-5.28,10.12-9.65,13.56-11.97l1.76-1.23c2.64-1.96,16.73-14.9,19.69-28.95l0.33-1.54
				c2.16-10.36,4.75-22.28,9.3-24.95c0.05,0.6,0.21,1.9,0.21,1.9l0.34,9.03l-0.39,8.51c-1.27,12.52-11.68,27.11-14.45,30.38
				l1.03,1.2l9.08-4.56l16.8-7.73c6.15-3.72,11.17-8,14.12-12.09c2.95-4.02,4.94-8.53,6.21-13l0.21-0.08l-0.05-0.34
				c1.3-4.56,1.85-9.07,1.9-12.92c2,2.72,3.93,6.54,4.02,7.83l1.58-0.03c0.28-7.01,4.28-11.83,7.56-14.66
				c3.7-3.18,7.91-5.03,11.12-5.85c-2.33,3.71-3.75,8.34-4.06,11.45c-0.54,5.24-2.87,14.26-7.67,22.33l-0.97,1.68l4.83-1.34
				c2.8-0.8,5.84-1.58,7.6-1.19c-13.61,16.76-24.22,21.89-29.35,24.32c-6.76,3.17-12.68,3.93-18.45,4.66l-6.44,0.94
				c-9.89,1.82-18.89,5.71-29.19,12.68c-0.42,0.29-3.18,2.23-3.18,2.23l-2,1.33c-3.97,3.09-9.85,8.41-9.85,8.41
				c-5.62,5.03-9.68,8.63-17.11,10.96c-3.34,1.03-9.7,4.34-12.81,7.87c0,0,0.25,0.29,0.54,0.54c-0.02,0.4-0.03,0.85-0.03,0.85
				l15.18-1.03c0,0,9.26-0.85,10.81-0.97c-0.18,1.53-1.69,3.96-2.84,5.44c-7.36,1.97-20.18,4.36-23.28,4.62
				c-0.03,0-10.22,0.67-10.22,0.67c-9.52,0.38-17.03,0.69-23.69,8.16l0.9,1.25c8.29-3.87,17.58-6.04,24.86-5.74
				c7,0.28,34.42-5.49,38.11-8.01l8.55-7.06c5.47-5.01,10.91-9.96,18.82-10.74c-3.28,5.01-11.59,15.84-17.87,20.25l-6.16,4.22h0.06
				c-8.17,5.14-17.13,9.18-27.5,5.23l-0.74,1.36c0,0,6.34,3.8,6.71,4.02l-5.95,0.32l-4.57-0.63c-7.37-1.4-16.54-3.17-22.95-1.4
				c-3.74,1.05-11.46,5.22-12.29,8.61l-0.45,1.78l3.93-2.28c2.04-1.42,3.82-2.68,9.5,0.53c8.81,4.95,13.4,10.98,16.56,14.9
				c1.82,2.24,3.05,3.53,4.5,4.23c-0.43,0.25-3.13,1.97-3.13,1.97l-1.86,0.49l-0.08,1.56c5.28,0.99,13.87-0.73,15.84-8.15l0.3-1.1
				l-3.47,0.29c-5.18,0.47-6.27,0.56-9.39-3.47c-3.44-4.38-14.05-12.78-18.96-15.33c4.74-1.02,10.23,0.57,15.52,2.16
				c5.5,1.62,11.05,3.55,16,2.24c5.37-1.41,10.14-3.36,11.93-4.84l1.06-1.12c0,0-2.52-1.09-3.67-1.65c0.98-0.38,1.94-0.51,1.94-0.51
				c5.31-2.03,15.25-5.79,21.17-9.34l2.43-1.44l1.49-1.49l9.16-9.9l17.83-19.07h-1.83c-9.62,0.27-19.76,3.4-26.45,8.16
				c-9.39,6.69-13,9.99-17.11,14c1.42-3.47,1.83-5.97,1.57-7.72c-0.66-0.69-9.1,1.05-9.1,1.05s-3.08,0.39-5.82,0.77
				c9.15-5,16.13-10.68,23.1-16.76l3.89-3.37c0,0,4.46-3.29,7.09-5.26c10.14-6.5,22.84-10.74,34.82-11.55
				c8.17-0.6,13.98-2.79,16.71-4.1c8.35-3.84,13.7-7.73,17.47-11.08c-2.68,18.79-12.9,40.92-19.26,54.59l-3.91,8.53
				c-0.33,0.8,0.24,2.1,1.33,3.05c0.84,0.72,3.17,2.21,6.76,0.08c22.46-13.43,38.31-47.46,43-88.63c1.02,0.04,2.03-0.39,2.8-1.26
				c2.13-2.44,2.47-8.1-1.59-13.34c0.13-2.99,0.2-5.99,0.23-9.02c1.32-0.17,2.1-0.89,2.41-1.35c1.43-2.12,0.72-6.46-2.64-10.15
				c-0.06-1.37-0.03-2.75-0.11-4.13c-1.37-23.66-4.11-39.26-8.42-54.31c13.54,32.06,18.64,68.19,22.35,98.2l0.4,3.07
				c0.33,2.54,0.95,3.86,2.03,4.22c1.23,0.43,2.52-0.63,3.49-1.59c9.96-9.96,11.97-25.14,11.93-36.1
				c-0.04-11.97-2.6-23.15-5.75-30.69c2.74,1.43,5.29,2.36,7.26,2.26c5.54-0.28,8.57-1.27,9.54-3.17c0.22-0.44,0.32-0.89,0.32-1.4
				c0-0.8-0.32-1.74-0.96-2.72c-2.56-3.97-26.66-43.19-37.5-61.94C506.78,173.41,517.63,184.01,527.14,185.76 M96.99,282.01
				c-1.23,0.54-1.97,0.71-1.99,0.71c1.47-0.89,4.93-2.61,6.77-3.54c0.01,0.14,0.06,0.4,0.06,0.55
				C100.61,280.27,98.48,281.37,96.99,282.01 M376.52,414.38c5.77-3.94,14.38-10.49,17.13-25.29c0.61-3.26,2.57-4.24,4.65-5.3
				c0.01,0.16,0.04,0.27,0.04,0.43c0,5.91-2.33,21.71-10.17,29.17c-5.04,4.81-9.78,4.75-13.62,4.02
				C375.24,416.43,375.9,415.41,376.52,414.38 M222.41,421.24l-3.99-0.98c0,0-0.56-0.15-0.92-0.34c0.09-0.02,0.33-0.1,0.33-0.1
				l2.01-1.01l-4.87-1.05c-0.42,0.05-3.9,0.49-6.38,0.79c1.21-1.01,3.02-2.54,3.02-2.54l-0.51-0.6l-4.65-7.02
				c-2.25-3.88-4.77-8.28-10.06-13.02c0,0-0.59-0.67-0.91-1.01c0.57,0.37,2.57,0.86,8.5,3.36c3.13,1.31,5.45,3.67,7.87,6.18
				c3.45,3.55,7.26,7.51,14.05,8.68c-0.21,1.03,0.21,4.82,0.21,4.82l1.6,4.34c0,0,0.51,1.02,0.52,1.1
				c-0.15-0.03-1.04,0.54-1.68,0.82c-0.14-0.16-1.47-1.11-1.69-1.24L222.41,421.24z M291.96,437.32c1.2-1.26,2.62-2.82,4.59-4.04
				c-0.8,1.28-1.53,2.84-1.53,5.08c0,2.01,0.6,4.43,2.28,7.26c0.71,1.24,1.59,2.1,2.57,2.79c-2.66,0.11-6.34-0.4-7.74-1.4
				c-2.79-1.99-5.61-4-6.64-6.56c0,0-0.79-1.83-1.99-3.53c-1.06-1.48-2.58-2.86-2.58-2.86l-1.62-1.94c0.17-0.15,0.39-0.28,0.56-0.44
				c2.94,0.96,11.14,5.07,10.78,6.1l-0.23,0.77L291.96,437.32z M291.78,402.28c0.5,0.49,0.63,1.21,0.36,2.16
				c-0.25,0.85-0.85,1.94-1.6,3.1c-1.24-1.15-2.37-3.93-3.14-6.07C290.12,401.22,291.3,401.79,291.78,402.28 M289.35,421.01v3.57
				l0.54,5.64l0.18,2.88c-2.32-1.48-5.53-2.9-7.7-3.77C285,426.66,287.28,423.81,289.35,421.01 M256.28,418.04l2.85-1.56l6.17-4.59
				c3.69-3.23,7.85-6.89,15.81-9.18c0.79-0.21,1.47-0.39,2.12-0.54c1.87,1.62,3.65,6.27,3.97,9.83c-2.85,3.42-6.11,6.76-7.58,8.2
				c-3.83,3.9-14.55,10.36-22.81,5.54c-2.56-1.48-3.42-3.43-3.42-6.42c0-0.14,0.05-0.29,0.05-0.37
				C254.66,418.54,256.28,418.04,256.28,418.04 M290.12,388.57c-0.76-0.3-1.58-0.44-2.38-0.64l-2.26-2.67
				c-1.56-2.25-3.03-4.35-8.71-6.15l-3.37-1.05c-2.1-0.63-3.29-1.03-4.19-1.6C281.69,377.16,286.58,382.78,290.12,388.57
				 M263.56,376.52c1.89,2.4,6.3,4.59,9.79,5.08c3.08,0.44,6.96,2.94,8.99,5.51c-2.79-0.1-5.62,0.11-8.55,0.87l-4.81-1.51
				c-5.86-1.74-13.44-4.04-15.74-7.2C256.57,377.83,259.95,376.84,263.56,376.52 M243.56,384.2c1.86-1.02,3.66-2.02,5.43-2.94
				c3.73,3.62,9.77,5.73,17.32,8.21l1.69,0.55c-4.82,2.15-9.59,5.42-14.06,9.61c-0.08-0.78-0.15-1.49-0.15-2.15
				c0-2.54,0.78-4.45,3.22-8.16l0.49-0.74l-0.8-0.38c-2.79-1.4-7.92,2.77-13.07,7.48c0,0-0.39,0.36-0.75,0.67
				c-0.59-0.5-8.74-7.11-8.74-7.11c-0.14-0.12-0.27-0.16-0.4-0.24L243.56,384.2z M228.37,391.63l0.66-0.33
				c0.51,0.43,1.34,0.81,2.69,1.05c4.54,0.81,7.8,8.87,9.2,12.3l1.11,2.74l0.74-1.78c0.51-1.2,4.46-6.4,6.5-7.86
				c0.1,1.26,0.22,2.9,0.22,2.9c0.24,1.51,0.49,3.23,0.49,5.28c0,1.67-0.16,3.54-0.69,5.7c-0.34,1.46-0.5,2.92-0.5,4.31
				c0,3.49,0.84,6.3,1.35,7.66c-0.14-0.07-0.26-0.21-0.26-0.21c-1.03-0.43-3.43-1.75-4.92-4.05c-0.98-1.54-1.36-2.1-2.1-1.73
				c-0.74,0.41-0.63,0.67,0.66,3.88c1.11,2.85,4.29,4.65,7.96,6.7l2.92,1.71c7.91,4.77,18.77,0.23,22.81-2.71
				c2.85-2.1,5.67-4.71,7.89-6.91c-4.69,6.59-13.33,12.06-17.9,13.48c-5.9,1.79-17.39,2.58-23.58-0.6
				c-6.04-3.1-11.19-4.93-18.08-4.65c0,0-1.24-0.12-1.45-0.12c0.39-0.06,1.58-1.13,1.58-1.13c2.1-1.46,4.35-2,7.46-1.87
				c0.6,0.04,1.71,0.07,2.06-0.71c0.34-0.86-0.4-1.54-1.77-2.78l-2.28-2.23c-2.4-2.65-0.75-10.6,0.15-14.86
				c0.78-3.82-1.74-9.65-3.61-13.02C227.93,391.74,228.14,391.7,228.37,391.63 M251.4,354.24c-2.71,0.83-6.15,1.92-6.15,1.92
				c-5.83,2-12.43,4.28-15.88,4.09c-1.68-0.07-3.14-0.17-4.51-0.26C232.73,353.48,243.89,353.11,251.4,354.24 M514.85,157.21
				l2.52,3.89c1.67,2.48,10.37,14.2,14.88,19.66c-14.88-10.41-30.2-34.17-33.16-40.6c-3.14-6.86-28.64-25.23-35.7-26.77
				c-0.08-0.02-0.14,0.03-0.24,0.03l-1.88-4.4l-3.19-6.78c6.45,2.35,18.14,11.04,20.77,14.03c5.61,6.41,10.88,11.44,18.18,17.37
				C503.07,138.5,510.45,150.2,514.85,157.21 M450.13,99.89c1.98,0.75,5.26,1.98,6.32,7.35c0.1,0.47,0.15,0.9,0.15,1.29
				c0,0.93-0.28,1.62-0.79,1.97c-0.78,0.51-2.09,0.3-3.33-0.55c-1.83-1.22-10.05-7.32-11.44-9.2c0,0-2.04-3.49-2.04-3.5
				c0,0.14,3.34,0.4,3.34,0.4l0.94,0.13l4.76,1.32c0,0,0.39,0.15,0.84,0.3v0.04L450.13,99.89z M454.04,97.97
				c-1.1-0.81-2.09-1.54-2.09-1.54s-0.97-0.64-1.36-0.9c0.04-1.13,0.11-2.25,0.13-3.06c15.1,7.45,36.39,19.47,46.83,33.65
				l-3.73-2.89l-11.37-8.58C474.09,107.81,464.58,100.09,454.04,97.97 M489.6,102.6v0.04c-0.01-0.02-0.04-0.04-0.08-0.05
				C489.54,102.59,489.58,102.59,489.6,102.6 M489.35,98.1c-5.15-0.52-15.7-4.85-17.05-8.49l-1.51,0.48c0,0.02,0.04,0.06,0.04,0.07
				l-0.02,0.01c0.01,0.05,0.08,0.08,0.1,0.13c1.5,5.5,6.94,9.4,12.12,12.43c8.05,4.71,19.84,16.91,23.51,23.22
				c1.21,2.06,5.96,5.76,10.12,9.01c0,0,1.83,1.53,3.42,2.85c-10.54-1.85-11.95-2.86-14.81-5.69l-3.95-3.04
				c-9.59-16.56-34.58-30.52-50.84-38.2l-0.88-1.46l-1.08-1.69l1.05-8.09c1.75,0.22,3.29,0.12,4.7-0.15
				C462.93,81.53,481.59,89.15,489.35,98.1 M443.29,110.67l0.35,2.27c0.04,0.23,0.04,0.43,0.04,0.64c0,1.29-0.55,2.36-1.56,2.93
				c-0.93,0.52-1.99,0.45-2.72-0.15l-4.3-5.53l-3.54-4.88l0.03,2.45c0,1.89,3.1,8.96,4.74,10.31c5.08,4.09,8.77,7.52,10.39,14.2
				c0.79,3.38,1.05,5.08,1.05,5.92c0,0.39-0.07,0.59-0.14,0.68c0-0.06-3.07-1.52-3.07-1.52c-2.24-1.31-7.5-7.94-9.23-11.27
				c-1.34-2.53-4.78-15.24-5.49-18.08l-1.21-2.73l-4.38-5.06c-0.11-0.21-2.67-3.13-2.67-3.13l-1.62-1.29l-0.11,1.15
				c-0.33,8.38-3.86,11.34-7.99,12.85c-1.79-1.93-5.04-4.22-7.67-4.74c0-0.02-0.04-0.05-0.07-0.07l-0.01,0.04
				c-0.04-0.02-0.14-0.09-0.22-0.12l-0.49,1.49c1.03,0.52,4.7,6.63,6.26,10.78c1.19,3.04,1.45,5.12,0.8,6.21
				c-0.34,0.62-1.04,0.99-2.12,1.17c-1.13,0.2-4.33-2.47-4.83-3.56c-0.12-0.28-0.27-0.25-0.37-0.46v-0.01
				c-0.29-0.46-0.52-0.99-0.99-0.83c-0.71,0.18-0.65,0.59-0.46,2.28c0.06,0.29,1.97,4.35,1.97,4.35l3.63,7.78
				c1.11,4.1,1.28,6.59,0.48,7.52c-0.43,0.53-1.29,0.74-2.7,0.64c-2.9-0.23-4.92-1.91-6.26-3.03l-1.72-1.47l-0.05,1.67l0.93,4.63
				l0.72,2.98c0,1.42-0.23,3.3-1.28,4.22l-2.5,0.53c-1.58-0.23-3.13-1.86-4.23-3.07l-2.51-2.45l-0.11,1.85l-0.78,6.95
				c-0.34,2.26-2,6.63-3,7.2c-0.01,0.02-0.96,0.49-4.25-3.17c0-0.01-1.22-2.46-1.22-2.46l-2.77-4.92l-0.19,2l-0.5,2.28l-0.25,1.95
				c-0.03,0-2.95,7.68-2.95,7.68l-0.55,1.26l-3.09,3.37l-1.9,1.64c-0.01,0-0.5,0.36-0.54,0.37c0.14-0.01,0.14-0.87,0.14-1.71v-1.24
				l0.05-2.14c-0.02-0.12-0.02-0.23-0.02-0.34c0-2.14,1.04-5.38,1.96-6.62l0.7-0.99l-1.2-0.26c-3.93-0.78-6.87,7.68-7.4,9.4
				c-0.8,2.49-2.15,4.4-3.63,5.13l-1.72,0.17c-0.68-0.45-0.98-4.62-1.08-6l-0.19-1.96l-0.51-1.63l-0.91,1.28l-0.64,1.16l-0.33,2.42
				l-0.55,2.89c-0.89,2.73-3.03,6.62-4.29,6.49c-2.29-0.18-3.16-3.17-3.94-5.78c-0.85-2.87,0.12-7.61,1.18-9.01l1.16-1.53l-1.94,0.3
				c-0.13,0.04-3.5,4.04-3.79,5.22l-1.88,5.8l-1.05,3.34c-0.37,1.08-1.82,1.66-3.08,1.88c-0.37-0.56-0.64-0.96-0.64-0.96
				c-3.11-3.99-6.15-8.25-7.46-11.65c1.82,0.83,6.14,2.8,6.14,2.8l-0.64-1.74l-1.16-2.75c-0.72-1.54-1.35-2.94-1.37-4.44l0.05-0.17
				c0.85-4.08,4.57-4.42,12.2-4.74l5.87-0.31l0.42-2.96c0.64-5.06,1.15-9.08,7.35-13.31c3.01-2.09,3.31-5.63,3.63-9.39
				c1.12,1.35,1.9,3.76,1.9,6.38v0.66l1.56,0.23c0.67-2.7,5.09-7.99,10.31-11.36c-1.63,2.79-3.05,6.74-3.7,12.05
				c-0.95,7.96-3.48,8.95-7.02,10.31l-3.67,1.67c-3.56,2.07-7.89,4.63-7.89,7.23c0,0.17,0.02,0.37,0.07,0.55l0.28,1.15l3.82-2.86
				l7-4.57l8.77-2.77l9.2-2.89c6.61-3.31,10-8.73,10.94-17.61c0.26-2.24,1.68-3.7,3.2-5.24c2.12-2.17,4.52-4.63,2.84-9.34
				l-1.75-3.32l-5.91-7.21l-1.63-4.61l-0.79,2.63c-1.12,4.59-9.02,9.3-13.07,8.8l-3.33-0.61c-3.05-0.64-6.64-1.2-11.58-0.63
				c1.94-1.47,4.9-2.03,8.51-2.15l3.13-0.17c4.9-0.33,7.96-3.59,8.18-8.22c0.03-0.07,0.09-0.1,0.11-0.15h-0.03
				c0-0.13,0.1-0.18,0.1-0.29l-1.54-0.28c-1.03,2.64-3.81,4.74-5.98,5.47c-1.82,0.61-3.92-0.96-5.19-3.32
				c4.28,0.38,6.85-0.04,8.36-1.54c2.05-2.08,1.97-6,1.16-11.63c-1.09-7.58,4.92-12.16,8.9-15.2l2.08-1.68
				c2.78-2.53,8.11-1.51,10.81-0.01c4.18-2.75,13.43-6.69,22.8-6.69c8.71,0,16.27,3.31,21.78,5.72l4.32,1.65l2.18,0.55l0.71,0.1
				l6.49,0.46c0,0,2.34-0.02,3.66-0.04c-0.32,1.28-1.31,2.69-6.02,3.26c-4.65,0.54-6.17,0.12-9.88-1.21l-1.81-0.63l1.46,3
				c0.6,1.33,1.12,2.24,2.4,2.94l-0.07,0.55c-0.2,1.32-0.42,2.71-0.42,4.01c0,0.21,0.09,0.37,0.11,0.58
				c-1.37-1.29-2.84-2.43-4.09-3.36l-1.5-1.14c-0.34-0.28-0.87-0.21-1.11,0.14c-0.25,0.32-0.21,0.82,0.12,1.11l1.57,1.16
				c1.79,1.34,3.92,3.04,5.64,4.99c0.24,1.02,0.67,2.69,0.67,2.69s0.92,2.75,1.42,4.2c-1.39,0.07-4.15,0.27-4.15,0.27l-4.76,0.12
				l-3.59-3.31l-1.21-0.99l-1.36,0.46l1.57,2.93c1.44,2.48,3.41,5.83,3.41,9v0.1c-6.5-1.01-8.45-3.02-12.32-8.35l-1.23,0.49
				c0.04,0.22,0.14,0.68,0.14,0.68c1.45,5.37,6.73,9.4,9.32,10.26l3.47,1.46l1.98,1.36l1.95,1.66l0.32-1.32c0,0,0.19-0.85,0.49-1.64
				c0.27-0.81,0.49-1.65,0.54-1.81c0.47,0.43,0.92,0.88,0.92,0.88c2.63,2.68,6.99,7.05,11.06,9c2.48,2.37,5.5,6.72,6.72,9.88
				c1.43,3.64-0.08,10.9-1.19,12.87c-0.1,0.2-0.16,0.2-0.2,0.2c-0.93,0-2.98-2.43-3.8-3.93l-0.9-1.95l-1.94-3.7l-0.91-1.18
				c0,0-0.72,1.8-0.54,2.82c-1.5-2.78-2.88-4.17-4.16-5.71c0,0-0.22-0.31-0.32-0.43c0.74,0.15,2.94,0.71,2.94,0.71l0.11-0.83
				c0.44-2.35-0.42-9.65-1.82-11.53l-0.85-1.3l-1.16-1.65l-1.73-1.27c0,0-2.29-1.61-2.4-1.17L443.29,110.67z M412.74,149.32
				c1.24-2.39,1.66-5.33,1.66-7.84c0-1.78-0.16-3.3-0.33-4.21l-0.89-2.64c0,0-0.33-1.22-0.61-2.18c0.26,0.45,0.52,0.9,0.52,0.9
				l2.37,3.72c19.09,47.29,38.04,75.48,51.19,92.91c0.37,3.16,0.69,6.25,0.97,9.09C453.77,224.86,422.22,176.19,412.74,149.32
				 M468.08,244.33c0.08,0.99,0.14,1.89,0.19,2.82c-16.91-13.68-38.33-46.95-49.81-75.35C430.59,196.75,449.78,227.18,468.08,244.33
				 M424.37,111.26c2.63,5.06,2.28,5.36,0.73,6.62l-0.68,0.57l0.67,0.62c1.29,1.19,3.19,4.66,2.78,8.88
				c-0.21,2.32-0.82,3.82-1.64,3.98c-0.68,0.17-1.97-0.62-3.25-2.79c-0.02,0-3.84-9.74-3.84-9.74c-1.4-2.82-2.54-4.17-3.65-4.94
				c0.79-0.63,1.61-1.23,1.61-1.23l3.26-1.73l0.31-0.25c0,0,0.14-0.17,0.25-0.32c0.49-0.66,1.7-2.24,1.7-2.24l2.4-2.55
				c0.23-0.08,1.24,0.85,2.35,4.43c0,0,0.04,0.32,0.1,0.61c-0.18-0.21-0.81-0.98-0.81-0.98l-1.25-0.17l-1.5,0.33L424.37,111.26z
				 M416.55,135.6v-2.29l-0.37-9.16c0.09-0.01,0.19-0.04,0.25-0.07c0.3,2.37,1.79,7.57,3.26,9.91l5.41,5.03l3.09,2.52
				c1.05,1.19,2.36,5.19,3.37,8.41l1.78,5.09l8.79,17.93l0.8,4.32l0.48,3.9c0.69,1.46,1.73,1.66,2.58,1.84l1.61,0.73l8.25,13.46
				l4.79,7.31l3.42,5.05c0.81,5.8,1.6,11.67,2.25,17.29C453.23,209.26,434.94,181.32,416.55,135.6 M441.88,153.16
				c0.81,2.59,1.63,7.59,1.63,10.89c0,0.35-0.07,0.52-0.09,0.81c-1.35-2.28-3.52-6.71-4.96-9.65l-2.95-5.67
				c-0.97-1.37-4.84-13.55-5.26-15.34c-0.03-0.08-0.03-0.18-0.03-0.26c0-0.39,0.4-0.77,0.64-1.22c0.08,0.36,0.49,2.06,0.49,2.06
				s1.61-1.23,2.17-1.63c0.88,1.11,6.12,7.66,6.12,7.66c0.62,0.5,1.71,0.67,2.56,1.03c-0.44,1.51-0.85,4.06-0.85,6.79
				C441.34,150.31,441.47,151.93,441.88,153.16 M452.48,182.42c-0.14-0.28-0.21-0.65-0.21-1.06c0-1.26,0.53-2.82,1.05-4.13
				c0.96,0.53,2.23,1.06,3.07,0.71c0.72-0.32,1.37-0.9,1.94-1.81c1.27,5.39,2.72,13.42,4.15,22.58
				C458.7,193.15,453.66,184.8,452.48,182.42 M452.68,136.82l1.19,1.98c0.39,5.31,1.11,7.22,2.29,9.59c0.14,0.3,1.13,2.06,1.13,2.06
				c0.9,1.45,1.66,2.75,1.66,4.39c0,0.31-0.02,0.64-0.07,0.97c-0.08,0.4-0.1,1.85-0.63,3.13c-0.6,1.39-1.7,2.58-1.7,2.58l-0.4,0.92
				l-0.24,4.62l-0.62,3.19c0,0-0.5,1.55-0.74,2.08c0-0.01-0.01-0.82-0.01-0.84l-1.02-3.21l-1.31-5.01l-0.98,3.05l-0.95,4.87
				l-0.69,1.82l-0.86,1.43c-0.94,1.55-1.5,1.65-1.5,1.65c0.04-0.07-0.08-0.85,0.41-2.06c0.63-1.55,0.79-4.87,0.79-8.76
				c0-1.09-0.01-2.21-0.02-3.36v-3.03l-0.7-4.61c-0.52-2.58-1.21-6.05-1.21-8.86c0-0.82,0.08-1.33,0.22-1.99
				c1.86,0.31,3.92,0.5,5.27,0.56l0.76,0.02l0.06-0.73c0.11-0.86,0.15-1.68,0.15-2.5L452.68,136.82z M379.8,173.08
				c-0.43-1.1-0.63-2.44-0.63-3.43c0-0.72,0.12-1.26,0.29-1.36l0.76-0.03c1.1,0.42,2.53,2.41,3.86,5.43l0.7,1.55l1.5-3.08
				c0.85-1.69,1.66-3.43,2.44-5.11c11.76,32.74,38.36,75.73,56.33,95.31c0.3,2.66,0.56,5.81,0.65,9.12
				c-25.53-21.19-53.75-65.57-64.91-95.6l0.08,0.08L379.8,173.08z M391.88,164.38c-0.09-0.24-0.58-1.33-1.13-2.55
				c0.17-0.67,0.34-1.33,0.36-1.83c0.14-3.05,0.57-3.26,1.88-3.55c0.06,0,0.15,0.04,0.18,0.04c0.08,0.66,0.14,1.34,0.14,2.11
				C393.31,160.86,392.83,163.08,391.88,164.38 M325.48,213.07c0.97,4.9,3.38,11.47,5.77,14.54l-1.11,2.99
				c-0.45,1.38-0.72,2.59-0.98,3.8c-1.47-0.85-3.53-2.07-3.53-2.07l-3.91-2c-0.52-0.31-0.76-0.37-1.14-0.49l-0.34-2.8l-0.83-3.61
				c-1.19-3.46-2.83-8.29-1.93-10.37l1.1-2.55l3.6-9.02c0.39-1.54,2.19-9.48,2.01-13.09c0.06,0.28,0.13,0.55,0.13,0.55
				c1.15,3.01,2.41,6.39,2.41,8.64c0,0.07-0.01,0.15-0.01,0.2l-0.53,3.1c-0.49,2.17-1.1,4.88-1.1,7.99
				C325.1,210.22,325.23,211.61,325.48,213.07 M329.01,206.93l0.68-8.5l0.03-1.23c2.06,1.48,4.77,4.84,5.63,12.71
				c0.08,0.69,0.11,1.37,0.11,2.02c0,3.31-0.86,6.45-1.92,9.49C330.63,218.48,329.11,213.77,329.01,206.93 M334.62,232.23
				c0.05-0.14,0.2-0.49,0.35-0.82c0.75,1.12,1.22,2.54,1.22,4.75c0,0.84-0.05,1.73-0.18,2.76c-0.41,3.14-0.99,5.05-1.56,6.32
				l-0.61-2.06C332.36,238.35,333.45,235.38,334.62,232.23 M277.02,58.51c1.33-1.32,9.22-2.29,14.27-2.38
				c9.4-0.18,15.15,2.22,19.34,3.96l2.74,1.21l1.6,0.49l1.76,0.22l1.38-0.15l1.01-0.26l2.65-1.02c0,0,1.47-0.53,1.62-0.57
				c-0.21,0.08-0.35,0.93-0.35,0.93l-0.17,0.55l-1.28,0.63c-1.95,1.12-3.65,2.1-9.13,1.98l-9.3-2.25c-4.44-1.42-9.47-3-13.95-3
				l-4.36,0.53l-3.98,1.07c-3.42,1.06-5.75,1.67-7.38,0.27C274.87,60.2,276.13,59.42,277.02,58.51 M298.13,65.5l-0.24,1.05l-0.49,1
				l-0.61,0.75l-0.79,0.61l-1.04,0.59l-1.27,0.38l-1.02,0.2l-0.93,0.12l-1.42,0.07l1.6-0.19l1.41-0.39l1.29-0.77l0.89-0.99
				l0.58-1.09l0.27-0.93l0.2-0.72L298.13,65.5z M284.16,66.4l0.37,0.96l0.7,1.04l0.96,0.83l0.94,0.5l2.01,0.46l-2.5-0.32l-0.75-0.17
				l-0.98-0.36l-0.35-0.16l-0.85-0.53L283,67.93l-0.51-0.73l-0.35-0.92l-0.16-0.88l1.96-0.32l0.02,0.54L284.16,66.4z M286.83,66.13
				c-1.07-0.03-0.97-1.29-0.89-2.28c0.87-0.08,1.49,0,2.42,0.46C288.24,65.27,288.09,66.17,286.83,66.13 M271.6,97.93l-1.77,0.02
				c-1.95,0-6.77,1.45-11.88,3.04l-10.71,2.81c-6.68,0.27-10.15-2.36-12.45-5.78c4.22,2.58,8.84,2.3,16.64,0.29
				c7.4-1.9,9.18-2.08,15.57-1.55l11.65,0.71c0.28,0.25,0.28,0.25,0.57,0.54L271.6,97.93z M322.45,183.47
				c-1.16-2.78-4.23-6.68-5.11-7.81l0.37,2.73l1.08,3.87l1.27,7.14c0,4.3-2.28,13.29-3.36,15.4l-0.72,1.61
				c-0.63,1.33-1.4,3.13-2.04,3.16c-0.09,0.02-0.83-0.1-2.19-2.57c-2.57-4.63-2.84-12.22-2.29-14.8l0.56-2.31l0.93-4.52l-1.11,0.21
				c-0.25,0.06-0.43,0.54-0.65,0.71c0-0.02-0.01-0.05-0.01-0.05l-0.02,0.08c-1.34,0.93-2.38,3.3-2.91,7.98
				c-0.1,1.03-0.29,2.59-0.29,4.5c0,4.07,0.83,9.68,4.76,14.73l0.04,0.08c3.91,3.9,5.93,12.96,6.63,17.59
				c-0.2,0.18-0.4,0.38-0.4,0.38c0.02,0,0.05-0.02,0.05-0.05c0-0.29-0.75-1.65-0.75-1.65c-0.62-1.41-1.64-2.85-2.83-3.11
				c-1.35,0.84-0.57,1.8,0.13,3.57l1.22,4.41c0,1.56-2.08,5.88-3.9,7.11c-0.27,0.19-0.61,0.36-0.87,0.25
				c-1.88-0.77-5.09-8.71-5.69-11.52l-0.39-2.63l-0.08-3.17l-0.19-3.19l-1.08-0.15l-0.72,0.27l-0.41,0.33l-0.34,0.66l-0.23,2.35
				c0,0-0.12,1.53-0.29,2.44c-0.48-1.29-1-3.42-1.09-4.94l-0.17-1.08l-0.49-0.85l-0.96-0.26l-1.18,0.16l0.21,2.19l0.02,1.74
				l0.51,1.85c0.9,2.72,1.91,6.73,0.3,10.06c-0.43,0.93-1.01,1.43-1.67,1.48c-1.27,0.07-2.76-1.16-3.6-2.4
				c-1.18-1.8-1.38-6.89-1.51-9.93c-0.01-0.46-0.06-1.87-0.06-1.87c-0.06-2.14-0.09-3.02-1.68-4.05l-1.19-0.63c0,0-0.11,1.8,0,3.63
				c0.08,1.88,0.41,3.81,0.41,3.86c0,2.49-3.46,5.55-5.42,7.04c-0.93-1.32-2.21-4.61-2.21-7.45c0-0.31,0.01-0.6,0.04-0.86
				c0,0,0.14-4.47,0.18-6.34l0.28-3.35l0.88-3.2c0.68-1.63,2.79-6.53,4.79-6.53c0.35,0,0.48,1,0.63,2.66l0.51,4.05
				c0,0,0.42,1.99,1.04,3.86l0.61,1.62l0.54,1.14c1.16,2.46,2.26,3.57,3.39,3.48c0.96-0.05,2.04-1.07,3.66-3.37l0.91-1.34l2.57-4.29
				c1.2-2.77,2.94-6.4,2.94-6.4c1.25-3.3,2.18-15.26,0.32-17.9l-1.17-1.92l-1.34-1.74l-2.76-1.54l0.68,1.81l0.55,2.16l1,3.92
				c0.99,2.59-0.59,12.88-1.75,14.79l-1.07,2.07c-1.17,2.34-3.9,7.8-5.64,7.65c-0.88-0.08-1.12-2.45-1.31-4.17
				c-0.07-0.66-0.01-4.22-0.01-4.22c0.17-3.95,0.45-9.94-1.09-13.54l-1-2.47l-1.67-3.04l-2.26-1.56l-0.06,1.3l0.08,1.84l0.08,4.65
				c-0.2,5.01-1.67,6.84-3.75,9.39l-2.48,3.33c-0.92,1.35-1.56,1.81-1.93,1.76c-0.68-0.09-1.31-2.05-1.53-2.8
				c-0.61-1.77-1.05-10.32-0.53-12.9c0.15-0.6,0.5-2.19-0.64-2.49l0.65-7.16c0,0,7.18-5.51,8.57-6.57c2.13,4.86,4.31,7.45,6.56,7.32
				c4.91-0.34,8.5-7.8,9.49-11.41c2.39,3,3.58,6.13,3.83,10.24l0.1,1.14l1.05-0.46c3.06-1.37,7.16-6.69,7.89-9.52
				c0.01-0.05,0.97-7.52,0.97-7.52c-0.01,0-0.45-4.07-0.45-4.07l-0.36-4.32c0.04-1.14,0.78-3.61,2.66-6.89
				c4.3-7.45,4.53-22.52,4.4-24.97l-0.07-1.24l-1.1,0.58c-1.54,0.83-2.04,0.81-2.44,0.48l-1.43-1.15l0.13,1.83
				c0.12,1.6,0.18,3.51,0.18,5.53c0,6.36-0.64,13.94-2.63,17.54l-1.12,1.87c-1.62,2.69-2.49,4.15-2.49,10.02c0,1.8,0.09,4,0.26,6.77
				c0.02,0.21,0.02,0.4,0.02,0.62c0,3.43-1.61,7.45-3.13,8.98c-1.42-3.37-2.07-5.85-5.46-9.75c-0.1-0.12-0.17-0.14-0.29-0.22
				c0.16-3.2,0.12-6.99-0.08-8.49l-0.11-0.86l-1,0.26l-2.23,0.52l0.06,0.75c1.08,5.51-0.55,15.36-3.95,19
				c-0.95,1.04-1.96,1.48-3.07,1.34c-1.25-0.14-2.41-2.68-3.1-6.8v-4.65l0.87-6.63l-1.27,0.64c-2.58,1.39-5.86,7.72-6.13,9.98
				c-0.26,1.73-3.75,5.88-5.48,6.56c-0.46-2.88-0.75-4.84-0.77-6.41c0.28-0.78,0.46-1.6,0.32-2.48l-0.02-0.22
				c0.15-0.55,0.29-1.13,0.53-1.75c1.78-4.47,4.3-8.34,7.14-10.91c0.28-0.31,0.34-0.8,0.02-1.11c-0.27-0.32-0.76-0.35-1.11-0.08
				c-2.96,2.75-5.66,6.82-7.52,11.5c-0.37,0.89-0.61,1.73-0.76,2.57c-2.26,2.85-6.57,7.26-9.8,7.51l-1.27,0.01
				c-4.94-1.25,3.39-12.37,5.49-13.52c5.17-2.83,7.39-4.33,9.19-9.16c0.04-0.12,0.11-0.15,0.14-0.26l-1.3-0.79l-4.84,3.23
				c-2.12,1.13-4.61,2.97-6.96,4.95c1.03-4.46,3.51-9.85,7.97-13.1c3.99-2.88,8.11-4.54,17.41-4.54l0.04-1.57
				c-7.82-0.44-8.7-2.09-8.92-3.3c3.81-0.51,11.93-6.23,14.27-8.35c2.92-0.88,5.19-2.75,6.45-5.35c0.74-1.55,1.13-3.32,1.13-5.26
				c0-2.08-0.43-4.38-1.3-6.8l-0.66-1.86l-0.79,1.79c-0.31,0.64-0.64,1.08-2.42,0.67l-1.68-0.38l0.8,1.5
				c0.81,1.56,1.1,2.76,1.1,3.79c0,1.32-0.47,2.41-0.98,3.61c0,0-0.16,0.42-0.23,0.67c-0.25-0.72-0.52-1.48-0.52-1.48l-0.81-2.89
				l-1.55,0.22c0,2.62-1.02,5.24-2.72,7.62l-3,0.63c-0.22,0.09-0.25,0.15-0.27,0.16c-0.09-0.12-0.13-0.26-0.13-0.42
				c0-0.56,0.35-1.32,0.61-1.88l1.12-4.27c-0.25-2.37-0.83-7.89-5.63-8.23l-4.73,0.76c-2.06,0.58-4.28,1.02-6.05,0.23
				c2.04-1.23,8.75-5.44,8.75-5.44c1.4-0.97,3.84-2.07,10.18-1.85c3.93,0.11,10.4,4.43,11.76,7.11c0,0,0.51,0.52,0.51,0.53
				c0-0.01,0.56,0.24,0.62,0.22c1.47,0.24,1.07-1.61,1.07-1.61c-1.15-3.09-4.94-5.92-7.79-7.97c0,0-0.58-0.42-0.73-0.54
				c0.12,0.24,1.05,0.32,1.7,0.65c2.11,1.03,6.46,3.95,7.88,7.59c0.34,0.99,1.07,1.29,1.57,1.16c0.32-0.09,0.99-0.46,0.75-1.84
				c-0.51-2.78-3.92-7.02-9.27-9.5l-3.22-1.02l-4.04-2.05l-3.1-2.88l-7.42-6.18l-0.31-0.11l0.01-0.03l-6.19-3.14l-4.62-2.35
				c-2.56-3.94-4.56-6.94-9.19-6.87c-7.21,0.14-9.14,3.86-10.53,6.58c-0.72-0.41-3.77-3.36-3.53-6.47
				c0.4-5.43,6.87-11.01,10.97-12.35c0.83-0.27,2.23-0.51,3,0.13l-1.77,2.96l-4.75,2.16l-0.97,0.35c-1.53,0.54-1.36,1.45-1.28,1.71
				c0.25,0.69,1.18,1.03,2.07,0.73l3.59-1.09c0,0,0.33-0.15,0.64-0.29c-0.5,0.29-1.03,0.63-1.11,0.9c-0.05,0.18-0.08,0.36-0.08,0.53
				c0,0.89,0.55,1.77,1.18,2.29c0.78,0.68,2.49,1.4,3.64,0.74c0.39-0.22,1.04-0.79,0.84-2.15c-0.07-0.39,0.06-0.74,0.38-1.07
				c0.46-0.52,1.57-0.96,3.06-0.99l3.02,3.46c3.42,2.92,7.16,5.67,11.33,6.15l2.87,0.22c4.38,0.34,12.49,0.95,15.21,2.69l4.16,2.43
				l2.75,1.78l0.49,0.27c0.55,0.41,1.88-0.78,1.42-1.21l-0.3-0.76l-3.9-2.43l-3.42-2.13c-2.26-1.73-8.02-2.39-12.58-2.91l-4.83-0.72
				c-2.58-0.85-10.94-5.72-12.87-8.66l-1.06-1.58c-1.61-2.26-4.32-6.1-3.61-7.82c0.24-0.49,0.83-0.86,1.8-1.02
				c0.72-0.1,1.23-0.21,1.84-0.32c2.49,2.48,7.32,4.47,9.41,4.39c1.78,2.99,3.71,5.15,5.8,5.87c6.77,2.4,8.4,1.67,13.3-0.5
				l1.78-0.76l2.36-2.02l1.46-1.28l6.04-0.24h2.01c5.44,0,8.86-0.91,11.36-2.09c-0.1,0.4-0.2,0.81-0.2,1.16
				c0,0.66,0.14,1.24,0.52,1.69c0.57,0.7,1.46,0.99,2.76,0.9c2.31-0.16,5.72-3.34,6.9-5.84l1.21-2.24l0.82-1.9
				c0.43,1.01,0.73,2.13,0.74,3.75c0.07,4.83-2.14,8.72-5.95,10.4c-4.31,1.87-7,2.01-9.25,1.86l0.31,1.72
				c3.45,1.06,9.22,2.85,9.44,5.22c0,0-0.11,1.79-0.11,2.01c-0.57-0.24-1.65-0.7-1.65-0.7c-2.3-2.28-6.03-4.24-7.58-3.48
				c-0.15,0.37-0.26,0.69-0.26,0.97c0,1.14,1.28,1.71,2.45,2.21l2.74,1.53l6.29,6.03l2.61,1.91c0,0,0.57,0.46,1.11,0.89
				c-1.97,0.02-3.57-0.27-4.88-1.52l-0.91-0.86l-0.78,2.3l-1.75,2.26l0.14,0.58c2.59,4.29,4.45,8.75,5.73,13.62l3.33,8.38
				c0,0,1.15,2.97,1.77,4.7c-3.08-2.3-5.94-7-6.42-8.67l-0.47-1.81c-1.11-4.54-2.38-8.29-4.35-9.57c0-0.02-0.22-0.26-0.23-0.24
				c-0.13-0.09-0.22-0.42-0.37-0.48l-1.42-0.38l0.56,1.55l2.93,8.68l0.35,1.66l1.1,3.57c1.29,4.06,3.71,11.67,3.74,15.92
				c-1.45-2.87-3.15-7.32-4.26-10.55l-0.93-2.62l-1.51,0.39c0,0,0.48,7.79,0.71,11.47c-0.24-0.38-0.61-0.94-0.61-0.94l-0.93-1.65
				l-1.45,0.56l1.14,3.75l1.34,5.33l0.13,0.93c0.19,1.51,0.5,3.9,0.5,6.19c0,1.01-0.33,1.68-0.49,2.54
				c-1.12-2.83-2.25-5.05-3.51-6.33l-1.29,0.87c1.17,2.99,1.75,5.55,1.75,7.73c0,1.01-0.38,1.75-0.64,2.64l-1.88-4.03
				c0,0-0.29,5.33-0.29,5.43c-0.91-0.52-3.75-2.18-3.75-2.18l1.63,5.51c-0.47,3.51,1.27,10.2,2.65,13.02l4.66,6.25
				c2.78,3.44,6.25,7.71,6.61,9.58l1.35,5.04c0.41,1.25,0.53,1.55-0.05,3.56c-0.52-0.56-1.01-1.15-1.65-1.65
				c-2.02-1.61-3.11-2.41-3.77-2.78l-1.5-3.24l-2.67-5.48l-1.54,0.12c0,0-0.14,0.33-0.14,0.35V183.47z M285.08,246.05l-1.23,1.48
				l-2.23,3.4l-2.14,6.42c-0.17,0.68-1.14,1.88-1.69,1.95c-0.12,0.01-0.27-0.14-0.42-0.45c-1.26-2.71-0.44-5.21,0.44-7.88l0.99-3.38
				l0.35-2.43l-1.72,1.75c-1.66,1.81-6.66,8.33-2,15.59c0.29,0.48,0.64,0.78,1.05,1.04c0.48,4.02-0.14,9.19-1.43,12.47
				c-1.63-1.95-3.28-4.67-3.62-8.98c-0.39-5.25,1.65-14.68,2.6-17.09c0.98-2.5,0.93-7.75-0.99-9.09l-1.2-0.84l-0.08,3.2l-0.76,4.87
				c-1.02,1.37-4.44,3.82-6.66,3.69c-3.54-0.22-4.15-3.44-4.5-7.01c-0.01-0.15-0.02-0.3-0.02-0.45c0-3.55,3.55-9.11,5.25-10.99
				c0.9,1.26,2.21,2.13,3.53,2.44c1.21,0.29,2.33,0.05,3.23-0.7c1.37-1.1,2.22-3.75,2.96-6.13l0.99-2.7l0.77-0.74l-0.2-1.17
				l-0.63-0.49c-0.65-0.15-1.63,0.05-2.25,0.9l-1.21,2.96l-1.06,2.78c-0.57,0.94-1.4,1.5-2.13,1.4c-0.64-0.1-1.15-0.71-1.41-1.76
				c-0.69-2.72-1.04-5.62,1.22-8.26c1.84-2.12,2.93-5.26,3.21-9.3l0.05-0.71l-0.84-0.83c-1.1-0.22-1.69,1.44-1.84,1.95
				c-1.61,5.49-3.94,9.16-6.44,10.09l-1.57,0.69c-1.09,0.52-3.36,1.53-3.72,1.06c-0.98-1.27-0.59-5.99-0.43-8.25
				c0.35-4.19,2.19-7.73,3.94-11.15c1.73-3.28,3.35-6.42,3.12-9.57l-0.03-0.29c1.79-3.41,3.84-8.55,4.18-10.12
				c0.09-0.41-0.18-0.83-0.61-0.93c-0.43-0.09-0.83,0.18-0.93,0.6c-0.35,1.56-2.61,7.15-4.36,10.33l-3.14,1.08l-2.74,1.27l-1.67,0.6
				l-1.36,0.45c-0.01-0.05-0.34-0.67,0.28-4.16c0.6-3.56,1.77-6.24,3.49-8.08l11.92-6.7l0.9-0.84c0.7-0.64,1.55-1.46,2.29-2.36
				c0.15,1.35,0.37,2.86,0.68,4.89l0.19,1.05l0.11,4.4l-0.66,4.49l-0.1,1.17c-0.31,0.56-0.51,1.13-0.59,1.34
				c-0.37,1.2-0.51,3.01-0.51,4.93c0,2.46,0.21,5.19,0.36,7.14l0.09,1.48c0.32,4.47,3.29,6.88,6.31,7.65
				c-0.09,0.41-0.32,1.66-0.53,2.7h-0.01l-0.09,0.61c-0.1,0.52-0.15,0.95-0.15,0.95h0.04l-1.11,7.24c0.27,4.1,4.74,12.68,6.35,14.14
				l0.64,0.58l1.56-2.16c0,0,1.82-2.36,2.9-3.74c0.43,1.84,1.27,5.54,1.27,5.54c0,1.5,0.35,4.09,1.2,5.46l-4.2,10.14l-1.59,3.68
				l-1.13-3.52c0-0.01,1.18-5.34,1.18-5.34l0.73-4.1L285.08,246.05z M278.07,263.7c1.01-0.2,1.96-0.87,2.8-1.6
				c0.31,1.02,0.75,3.22,0.96,5.04l-1.88,4.32c-0.89,2.04-1.7,3.88-2.31,5.73c-0.62,0.26-1.04,0.26-1.41,0.02
				C277.89,273.65,278.53,268.05,278.07,263.7 M265.41,261.98c-0.33,1.24-0.77,2.71-1.24,4.29l-1.56-4.65l-0.21-0.57
				c0.39-1.37,1.38-2.8,2.14-3.11c0.2-0.09,0.26-0.03,0.31,0.03C265.42,258.54,265.44,260.17,265.41,261.98 M259.57,233.91
				c-1,1.08-2.41,3.23-3.37,5.5c0.31-2.25,0.53-4.34,0.68-6.11c2.35,0.74,3.94-1.3,5.14-2.87c0.63-0.86,1.4-1.91,1.88-1.82
				C263.56,228.92,261.55,231.79,259.57,233.91 M271.31,212.8v-0.05c0.07-0.11,0.13-0.27,0.13-0.27
				C271.39,212.61,271.37,212.69,271.31,212.8 M254.35,229.46c-0.16,1.45-0.37,3.21-0.61,5.21c-2.9-5.02-6.9-13.13-1.91-26.43
				c0.06-0.16,0.15-0.37,0.23-0.58c0.12-0.29,0.18-0.55,0.31-0.87c0.58-1.44,1.46-2.93,2.38-3.3c0.32-0.12,0.64-0.09,0.98,0.13
				c0.84,0.51-0.46,4.24-1.32,6.69l-1.85,7.89C253.06,223.16,253.57,226.89,254.35,229.46 M164.44,104c0,0,0.15-0.86,0.13-0.86
				c-0.12-0.07-0.21-0.18-0.32-0.31l-0.42-0.3c-0.36-0.24-0.96,0.56-0.96,0.56l-2.74,2.85c-1.08,3.24-3.49,5.27-5.54,6.25
				c-1.71,0.8-3.08,0.89-3.72,0.61c0,0-0.39-0.04-0.62-0.29c-0.19-0.19-0.26-0.62-0.26-0.62c-0.44-1.51,1.23-4.27,2.57-6.47
				l2.09-4.22l0.38-2.08l-1.67,1.36c-6.45,5.65-7.68,4.73-10.36,2.73c-0.4-0.3-0.59-0.69-0.55-1.24c0.15-2.71,4.99-7.1,5.72-7.51
				c3.17-1.67,6.8-2.44,8.44-1.78c1.36,0.55,1.22,1.83,0.85,3.74c-0.24,1.14-0.42,2.12,0.19,2.75l0.31,0.28l1.17,0.05
				c2.07-0.4,8.9-4.31,11.23-9.62l0.24-0.52v-0.02l0.39-1.06l0.21-1.05l-0.29-4.13l-1.28,2.43l-1.84,3.11l-0.6,1.2
				c-2.03,2.44-3.54,3.83-4.64,4l-0.98-0.28c0-0.01-0.48-0.62,0.17-4.35v-0.01l1.4-6.53l0.37-1.62l-1.45-0.53
				c-2.67,4.66-5.09,7.03-7.86,7.72l0.35-0.78c2.9-3.05,2.69-3.73,2.59-4.02c-1.01-0.68-1.79-0.86-4.82,2.61c0,0-0.69,0.71-1.5,1.51
				c0.54-2.01,2.47-6.62,4.08-8.34L153.93,78l-2.64,1.6c-0.21,0.2-4.53,8.62-4.53,8.62l-0.5,1.12c-0.46,1.09-1,2.81-1,2.81
				c-0.85,3.07-6.95,5.9-9.07,6.06l-0.99,0.14l-2.25,0.04l-0.12-0.31c-0.32-2.57,2.75-6.06,5.05-8.47l0.85-0.88
				c0.06-0.07,0.24-0.22,0.24-0.22l0.09-0.11l0.12-0.12h-0.02l1.79-2.23c0-0.06,0.02-0.09,0.02-0.15c0-0.48-0.36-0.89-1.06-1.61
				c-1.23-1.34-3.21-3.49-3.21-6.27c0-0.98,0.4-2.07,0.99-3.2c3.18,1.12,13.77,2.52,20.77,0.19l11.66-5l5.98-2.42
				c2.84-0.36,8.12-1.04,11.76,0.52c3.41,1.44,4.87,2.5,6.3,4.43l-2.11-0.5L190,72.08l1.34,1.38l1.43,1.24
				c1.94,1.6,4.84,4.2,5.69,7.06c-0.04-0.04-0.24-0.23-0.24-0.23s-2.47-2.1-3.46-2.67c-0.02-0.02-0.64-0.22-0.64-0.22v0.04
				c-0.09-0.06-0.39-0.15-0.39-0.15l-2.3-0.46l1.49,1.57l0.9,1.06c1.72,1.97,4.6,5.27,5.1,8.44c-0.41-0.31-0.83-0.63-0.84-0.66
				L197.52,88c-1.86-1.55-3.45-2.88-4.87-2.27l-1.12,0.49l3.58,3.21l0.23,0.22c2.18,2,3.48,3.81,3.73,6.02
				c-1.21-0.68-2.7-1.5-2.7-1.5l-0.89-0.37l-1.21,1.16l1.13,1.51l2.29,1.92l2.1,2.52c0.27,2.06,1.95,6.31,4.05,6.88
				c0.15,0.04,4.02,1.38,6.18,2.14c-1.27,0.8-2.63,1.22-4.76,0.49l-2.51-2.98c-1.39-2.31-3.1-5.18-6.42-4.79l-1.62,0.21l1.39,1.75
				l1.32,1.13l2.95,3.79c0,0,1.08,2.73,1.69,4.32c0,0,1.64,3.78,2.38,5.46c-3.25-0.61-4.92-1.35-7.02-3.66c0,0-0.9-1.3-0.95-1.38
				l-1.75-4.21c-0.95-2.61-1.7-4.68-3.18-4.9l-1.05-0.14l0.17,1.02l0.36,2.44l0.49,6.21l-0.02,0.21c-0.09,2.42-1.94,4.64-3.74,6.79
				l-3.16,4.72c-1.32,3.83-1.56,9.14,1.02,11.73c3.37,3.36,2.3,6.28,1.25,9.11l-0.91,3.74c0,3.33,1.03,5.07,3.94,6.62
				c5.28,2.86,10.2,1.58,19.23-2.32c4.21-1.81,15.32-3.22,22.65,4.12l1.23-0.99c-0.05-0.05-0.13-0.13-0.13-0.13
				c-2.62-4.14-5.06-5.76-7.03-7.03l-3.03-2.44c-2.3-2.86-3.46-5.95-3.46-9.32c0-2.52,1.22-5.31,2.56-8.12
				c0.76,2.44,2.17,5.21,4.24,7.84c0.06,0.18,5.17,5.31,8.44,5.61l1.71,0.16l-3.02-4.26c-1.77-2.5-2.55-3.59-2.55-5.19
				c0-0.67,0.14-1.44,0.41-2.49c0.17-0.59,0.97-3.08,1.52-4.78c1.02,1.73,1.55,3.61,1.93,5.89c0.83,5.03,3.3,7.91,7.06,8.97
				c9.56,2.76,14.99,13.36,16.1,22.24c-0.06,0.76-0.17,1.53-0.22,2.25l-0.09,2.19l-1.56,2.35c-1.64,2.81-4.36,7.49-5.74,6.72
				c-3.6-2-3.71-5.31-2.51-11.9c0.41-2.29,0.08-2.92-0.3-3.24l-0.36-0.3l-0.63,0.17c-1.09,0.44-1.46,2.8-1.5,3.27
				c-0.22,1.43-2.86,6.22-5.06,7.83l-1.1,0.49l-2.14-1.19c-0.98-1.48-0.47-4.43,0.16-7.12c0.24-1.12-0.01-2.39-0.62-2.92l-0.36-0.31
				l-0.69,0.13c-0.59,0.23-0.88,0.91-1,2.16c-0.52,5.83-5.7,8.79-7.04,8.67c-1.56-0.11-2-0.52-2.21-0.83
				c-0.54-0.93-0.15-3.05,1.22-6.51c0.64-1.59,0.39-2.98-0.66-3.43c-0.78-0.33-1.94,0-2.86,1.97c-3.84,8.15-6.38,11.11-7.09,11.07
				c-0.19-0.06-0.51-0.46-0.78-1.36c-0.77-2.65-0.45-7.11,0.21-7.9c1.56-1.92,2.33-3.85,1.93-4.81l-0.19-0.45l-0.71-0.21
				c-0.46-0.04-1.26,0.19-2.59,2.34l-0.64,1.12c-1.45,2.62-4.8,8.72-8.42,8.21c-0.85-0.14-1.13-0.52-1.25-0.8
				c-0.72-1.6,1.02-5.4,2.07-6.99c0.64-0.92,1.05-2.46,0.65-3.3l-0.22-0.39l-0.68-0.2c-0.74-0.06-1.33,0.71-1.74,1.37
				c-1.75,2.68-7.89,7.38-10.28,6.99c-0.79-0.15-1.8-0.44-2-1.13c-0.37-1.3,1.68-4,3.91-5.94c1.08-0.96,1.63-2.02,1.46-2.77
				l-0.12-0.45l-0.65-0.32c-0.67-0.19-1.53,0.28-2.63,1.43c-3.32,3.57-6.96,5.02-12.11,5.16c0-2.91,1.68-9.51,3.29-11.84
				c0.66-0.94,1.21-1.77,1.21-2.41c0-0.25-0.1-0.48-0.3-0.68c-0.67-0.58-1.58,0-2.91,1.26l-1.17,1.49
				c-0.67,1.18-1.21,2.08-5.79,1.81l-0.77-0.51c-0.83-1.06-1.42-3.56-0.92-6.31l0.59-2.03l2.05-4.65c2.59-5.64,4.41-9.78,4.21-11.64
				l-0.07-0.68l-1.01-0.51c-1.36-0.07-2.92,2.75-3.18,4.17c-0.28,1.1-5.12,4.54-7.29,5.1c-0.23-1.7-0.45-3.98-0.45-6.31
				c0-1.54,0.09-3.02,0.35-4.13c1.09-4.66,5.28-8.01,8.36-10.44l1.77-1.44c0.39-0.31,1.57-1.24,1.57-2.54
				c0-0.14-0.03-0.32-0.09-0.52l-0.28-1.25l-0.88,0.74l-7.84,6.72c1.13-2.73,3.1-7.99,3.64-12.66c0.65-5.58,4.22-17.21,5.96-17.13
				c1.9,0.1,2.11,1.07,2.35,3.07c0.75,5.31-3.39,10.24-4.92,11.58c-1.45,1.33-0.96,2.19-0.77,2.42c0.19,0.27,0.94,0.96,2.71-0.19
				c4.23-4.21,8.22-11.77,7.95-18.25c-0.16-3.58-0.88-5.67-2.26-6.59c-0.98-0.61-2.19-0.63-3.68-0.05
				c-5.95,2.34-12.26,15.53-12.52,26.14c-0.27,10.06-5.95,16.46-8.92,18.44c-1.21,0.81-3.64,2.5-4.35,1.97
				c-0.24-0.19-0.49-0.81-0.49-1.74c0-1.19,0.41-2.41,0.91-2.84l-0.69-1.38c-0.14,0.06-0.14,0.15-0.26,0.2l-0.02-0.04
				c-0.02,0.01-0.01,0.06-0.02,0.07c-2.12,0.77-2.44,2.27-2.57,3.54l-0.87,2.58l-1.13,1.49c-1.35,1.81-3.03,3.8-5.08,4.47
				c-0.18-0.92-0.36-1.94-0.36-3.29c0-2.2,0.28-4.65,0.87-6.15l0.87-3.15l0.87-2.64l-0.72-0.39c-2.11-0.52-3.01,1.85-3.7,3.6
				c-0.92,2.3-4.02,6.82-6.22,7.79c-3.56,1.56-5.24,1.29-5.91,1l-1.07-1.23c-0.16-0.42,0.89-2.06,1.56-3.14
				c1.57-2.5,3.63-5.91,3.25-9.3c-0.01-0.07,0-0.11,0-0.18l-0.32-2.2l-1.17,1.91c-1.51,2.53-5.78,7.98-9.37,8.72l-2.56-0.51
				c-0.01,0-1.21-1.5-1.21-1.5l0.81-1.61c0.41-0.54,3.57-4.29,3.57-4.29c3.05-3.17,6.5-6.8,5.35-10.45l-0.45-1.45l-0.94,1.19
				c-6.82,8.98-9.41,10.15-16.05,10l-0.8-0.29l-0.09-3.14c0.47-3.6,3-6.41,5.05-8.7l1.98-2.32l-1.16-1.06
				c-5.45,4.59-18.62,8.58-25.78,5.13c0.55-0.12,1.49-0.55,1.49-0.55c10.23-2.21,20.38-5.79,31.92-11.27l2.08-1.31
				c0,0,2.85-1.63,2.91-1.65c-0.24,0.04-0.59,3.24-0.59,3.24l-1.68,5.48c-0.51,1.4-0.86,2.34-0.86,3.02c0,0.34,0.09,0.63,0.33,0.87
				l0.39,0.42l1.03-0.16l2.98-1.37c1.29-0.68,3.47-1.77,3.8-1.25c0.89,1.36,0.66,2.69-0.05,5.54c-0.56,2.47-0.76,3.25-0.08,3.76
				c0.65,0.51,1.35,0.14,3.01-0.79c0.19-0.1,2.16-1.34,2.16-1.34l1.92-0.93l3.38-0.23c0.19,0,0.26,0.05,0.34,0.2
				c0.43,0.77,0.13,2.87-0.95,4.81l-0.33,0.55l0.62,0.96l0.14,0.21c0.44,0.74,0.92,0.94,2.2,0.94l4.88-0.96
				c0.09-0.01,1.36-0.49,1.36-0.49c0.78-0.43,2.71-1.71,2.71-1.71c1.1-0.95,1.33-1.08,1.97-0.68c1.33,0.79,2.16,0.54,2.65,0.19
				c0.72-0.55,0.94-1.64,0.94-2.69c0-1.16-0.25-2.3-0.34-2.66c-0.07-0.27-0.11-0.4-0.11-0.52c0-0.14,0.07-0.21,0.27-0.34l1.23-1.37
				L164.44,104z M242.24,182.94l-0.65-0.65l-1.24,0.89l-3.73,5.27c-1.04,1.76-3.09,2.87-4.41,3.38c-0.04-0.29-0.19-2.41-0.19-2.41
				c0-2.65,2.3-4.45,4.34-6.02l2.57-2.39c0.15-0.18,0.15-0.4,0.21-0.6c1.39-0.49,2.76-1.14,3.8-2.14c0.22,0.53,0.94,2.54,1.56,4.2
				c-1.28,3.58-2.84,6.27-6.15,8.01c0.95-1.84,2.58-4.4,3.41-5.2c0.61-0.62,0.82-1.16,0.82-1.55
				C242.58,183.29,242.33,183.03,242.24,182.94 M227.68,179.69c2.36-1.02,4.56-2.08,5.62-2.61c0.11,0.29,0.22,0.6,0.22,0.6
				l0.94,1.42l-1.1,1.69c-1.63,1.35-4.01,2.71-5.72,2.71c-0.37-0.02-0.42,0-0.42,0.03c0-0.05,0.51-3.18,0.51-3.18
				c0.02-0.16,0.03-0.32,0.03-0.47C227.76,179.81,227.68,179.77,227.68,179.69 M219.86,182.22l0.81-0.11
				c0.63-0.08,1.51-0.32,2.51-0.65l-0.27,2.07c-0.18,0.33-0.26,0.72-0.26,1.12c-1.48,1.52-3.99,3.66-6.68,4.87
				c-0.02,0-3.01,0.43-3.01,0.43l-0.36-0.02v-0.02c0.32-1.21,0.69-2.38,1.01-3.6c0.27-0.49,0.56-1.03,0.9-1.66l0.89-1.94l0.59-1.08
				l2.84-0.96c0.01,0,1.03,0.16,1.1,0.16c-0.1,0-0.12,0.3-0.12,0.46C219.8,181.36,219.86,182.22,219.86,182.22 M220.51,180.54
				c0.01-0.02,0-0.02,0.02-0.04v0.04H220.51z M209.38,184.11l1.39-0.53c-0.62,1.2-1.37,2.21-2.33,2.79
				c-1.54,0.89-3.47,1.52-5.97,1.99c0.06-0.1,0.17-0.24,0.22-0.31l0.66-0.92c1.28-1.6,2.24-5.12,2.61-7.07
				c1.65-1.24,3.15-2.59,4.23-3.82c0.01,0.33,0.09,0.75,0.09,1.1c0,2.28-0.51,4.01-1.56,5.51l-1.48,2.13L209.38,184.11z
				 M198.12,176.19c0.41,1.58,0.46,4.21-0.79,6.32l-0.66,1.13l1.31,0.06c0.95,0.04,2.06-0.26,3.22-0.72
				c-0.94,2.1-2.76,4.36-3.88,5.06c-1.24,0.76-3.7,1.2-5.95,1.34c0.74-3.16,1.4-6.27,2.09-9.45l0.64-2.95
				c0.03-0.06,0.03-0.26,0.03-0.39c0.28-0.1,0.51-0.21,0.72-0.33c0.98-0.31,1.94-0.74,2.82-1.44
				C197.43,174.84,198.12,176.19,198.12,176.19 M186.25,173.43l-0.76,0.68l-3.4,2.82c0,0-1.37,0.43-2.49,0.79
				c0.26-1.05,0.53-2.2,0.53-2.2l0.74-2.72l1.14-0.46l2.92-1.46l0.97,0.15l0.26,2.17C186.16,173.31,186.24,173.37,186.25,173.43
				 M174.56,175.27l-1.68,8.38c-2.79,19.88-21.45,60.8-48.25,85.93c-0.06-0.89-0.12-1.77-0.16-2.69
				c13.94-13.58,26.4-36.19,33.05-52.03c5.49-13.14,14.34-36.99,16.14-50.82c0.49-0.23,0.9-0.4,0.9-0.4s1.51-0.72,2.33-1.1
				c0.02,0.09,0.03,0.17,0.03,0.27c0,2.17-0.67,4.74-1.38,7.41L174.56,175.27z M136.5,283.03c0,2.11-0.02,3.72-0.02,3.76
				c0,0.83,0.05,1.55,0.08,2.28c-1.23,1-4.03,2.61-7.14,3.58c-1.02,0.33-1.92,0.48-2.7,0.56c-0.18-1.5-0.37-3.22-0.57-5.14
				C128.89,286.1,133.9,283.25,136.5,283.03 M125.55,281.78c-0.08-1.01-0.17-1.98-0.24-3.04c3.12-1.99,8.48-6.04,11.26-8.21
				c0,0.93-0.01,2.29-0.01,3.91C133.89,276.95,128.43,280.99,125.55,281.78 M124.91,272.88c-0.04,0-0.04,0.02-0.07,0.06
				c-0.03-0.45-0.05-0.87-0.09-1.33c4.15-3.79,8.13-8,11.88-12.5l-0.02,5.78C133.3,267.91,129.12,270.8,124.91,272.88
				 M126.19,236.73c1.45-2.9,9.4-24.66,10.5-29.73c0-0.01,0.64-2.72,0.64-2.72c1.59-6.64,5.01-20.88,4.92-28.52l9.12-15.84
				c0.72-1.12,1.29-2.1,1.96-3.14c-1.78,19.9-11.49,65.04-29.31,87.61c0.05-1.59,0.14-3.07,0.26-4.58
				C125.08,238.83,125.71,237.76,126.19,236.73 M125.97,226.52l0.84-4.55c2.24-12.43,4.15-22,8.96-33.58l-1.52,8.39l-0.93,4.49
				C132.67,204.7,128.13,220.09,125.97,226.52 M155.11,153.91c3.34-5.46,5.68-9.68,5.77-11.9v-4.4c-0.12-3.02-0.21-5.03,1.45-7.95
				l0.11-0.17c0.64-0.47,1.25-0.96,1.88-1.49c-1.8,4.35-2.63,10.59-1.04,18.69c-0.56,40.46-20.68,88.53-39.32,107.38
				c-0.03-2.46-0.02-4.83,0.03-7.18C143.78,223.4,154.11,172.44,155.11,153.91 M167.59,146.29c0.85-0.37,2.05-0.84,2.79-1.16
				c-0.14,0.83-0.33,2.16-0.45,3.23h-0.04l-0.06,0.71v0.02c-0.06,0.53-0.11,0.9-0.11,0.9h0.05c-0.28,4.36-0.35,10.24,0.08,13.24
				c-1.95,12.57-10.26,36.82-16.25,51.15c-8.07,19.26-19.95,38.22-29.39,47.23c-0.03-0.94-0.05-1.86-0.09-2.76
				C144.42,240.06,166.01,193.31,167.59,146.29 M102.19,143.9c-0.35-0.45,0.95-3.28,0.95-3.28l0.56-1.24l0.44-1.76l1.37-2.6
				l1.56-1.5c3.81-3.61,6.67-6.02,8.76-3.83c0.01,0,1.39,1.24,1.39,1.24c0.78,0.66,1.22,1.06,1.22,1.47
				c0.03,1.05-2.41,3.28-4.23,4.84l-1.28,0.84L102.19,143.9z M53.4,143.8c0.95-0.78,3.72-1.66,5.41-2.14l3.23-1.09l3.1-1.37
				l10.21-4.96l1.12-0.54l1.54-0.86l4.21-2.34c2.75-1.53,5.84-3.23,8.85-4.96c-0.28,0.57-0.47,0.95-0.47,0.95
				c-0.61,1.13-1.13,2.15-1.6,3.07c-8.08,6.59-24.47,12.63-35.5,14.21C53.46,143.75,53.46,143.8,53.4,143.8 M87.06,140.19
				c-4.4,1.34-16.93,4.19-27.52,4.39l-1.08,0.04c-0.29,0-0.73,0.04-1.24,0.04c9.19-1.84,21.97-6.31,30.29-12.02
				c-0.48,1.21-0.88,2.75-0.82,3.29c0.63,0.67,9.78,0.19,9.78,0.19s0.91-0.03,1.79-0.03C94.99,137.49,88.94,139.61,87.06,140.19
				 M93.5,131.51c0.56-0.09,2.87-4.72,2.87-4.72l2.19-3.42l1.9-3.47c1.83-1.22,3.29-2.26,4.07-3.06c1.47-1.54,2.55-1.92,3.02-1.77
				c0.51,0.18,0.69,0.98,0.76,1.47l0.42,2.65l0.72,1.34l1.22,1.22c0.81,0.87,1.02,1.19,0.96,1.48c-0.1,0.72-1.48,1.87-4.08,3.45
				l-4.49,2.79l-0.87,0.61C100,130.81,94.55,131.71,93.5,131.51 M43.73,181.97c0.25-0.65,0.67-1.06,1.25-1.22l11.62-4.35h0.06
				l0.1-0.07l18.4-9.62l25.66-17.57c0.02,0,3-1.24,3-1.24c0.65-0.21,1.47-0.49,2.24-0.8c-15.26,13.6-43.64,30.03-62.54,35.99
				C43.53,182.75,43.57,182.35,43.73,181.97 M84.03,175.46c-15.39,7-35.48,12.28-39.94,9.14c20.38-6.5,51.9-25.01,66.23-39.19
				c0.04-0.01-0.02-0.06,0-0.09c2.98-1.41,6.09-3.26,8.6-6.01l0.96-1.05h-0.02c1.39-1.2,3.14-2.87,3.14-2.87
				c1.05-1,2.18-2.08,3.29-3.16c-0.9,2.36-1.38,4.39-1.11,5.76l0.12,0.64l1.71,0.04c-8.21,14.37-13.67,17.61-16.84,17.61l-0.66-0.24
				c-0.62-0.71-0.31-2.9-0.12-4.36l0.3-4l-1.33,0.97c-2.19,1.35-2.24,3.87-2.28,6.29c-0.04,2.21-0.1,4.49-1.58,6.19l-8.94,7.11
				l-2.44,1.65C93.13,169.88,87.13,173.56,84.03,175.46 M53.4,219c11.04-8.35,27.53-23.87,32.77-30.26l8.37-9.25l4.28-4.66h-0.09
				c1.37-1.43,3.05-3.26,3.05-3.26c4.9-5.35,9.49-10.41,11.02-11.5c0.61-0.02,1.23-0.15,1.8-0.33
				c-21.06,29.68-48.29,55.37-67.22,67.34C47.28,224.9,49.26,222.14,53.4,219 M76.64,215.15c-0.3,0.29-1.8,1.66-1.8,1.66
				c-4.64,4.26-11.64,10.71-21.29,13.67c-1.54,0.47-4.43-0.18-5.66-1.86c19.6-12.3,48.29-39.41,69.77-70.47
				c0.79-0.57,1.53-1.26,2.27-2.03c-0.04,2.97-0.52,6.06-2.65,9.73c-4.51,4.96-9.27,11.36-11.63,14.96l-4.14,6.43
				C95.24,196.5,86.41,206.41,76.64,215.15 M68.48,278.53c2.12-15.15,5.73-28.49,11.06-41.01v0.01
				c6.16-14.34,17.33-35.96,28.46-51.87c5.62-8.1,9.81-13.42,14.37-17.72c-15.3,22.36-45.94,72.33-54.02,124.34
				C67.64,291.25,67.23,287.14,68.48,278.53 M90.88,236.12l-5.67,15.7c-4.78,12.78-10.72,28.67-11.64,35.35
				c-0.31,2.1-1.16,3.76-2.45,4.7l-1.17,0.32c8.1-51.48,38.41-101,53.62-123.26c-3.44,6.56-7.58,15.13-10.99,22.21l-4.65,9.5
				C107.93,200.65,90.88,236.12,90.88,236.12 M144.3,367.9c0.77,1.98,1.46,3.92,1.46,4.72c0,0.1-0.02,0.19-0.06,0.25
				c-0.17-0.15-1.63-0.85-6.89-5.75c-13.81-12.8-24.31-43.68-27.17-54.5c-9.32-34.89-6.38-81.8-2.34-103.15l5.92-11.45
				C106.15,247.15,108.82,317.06,144.3,367.9 M140.87,359.71c-31.93-51.85-32.63-121.13-22.81-167.84l2.36-4.79l1.65-3.92
				c2.8-6.83,7.46-18.24,11.82-23.82c5.39-6.94,6.4-10.86,6.4-13.49c0-0.88-0.09-1.6-0.19-2.25l-0.11-1.5
				c0.05-0.28,0.06-0.57,0.06-0.83c0-0.85-0.24-1.52-0.73-1.88l-0.36-0.27l-0.97,0.1c-0.61,0.29-1.01,1.02-1.07,2.01
				c-0.09,0.99-0.58,6.13-3.07,9.99l-4.89,5.03l-5.85,4.02c-0.21,0.19-0.5,0.43-0.76,0.63c0-3.61,1.22-7.62,2.48-11.29
				c0.02-0.05,0.06-0.1,0.1-0.17c2.94-4.64,5.11-9.33,5.92-11.53l2.91-0.57c0,0,6.96-2.5,6.99-2.53c0.1,1.37,0.54,6.72,0.54,6.72
				l1.43-0.49l8.73-3.82l2.13-1.99l3.99-2.86c0.12,1.36-0.26,2.45-1.68,5.85c-0.28,3.67-1.43,7.37-1.98,7.8
				c0.39-0.08-0.72-5.21-0.72-5.21l-0.73-3.66l-0.95,1.82l-0.61,1.09l-0.45,1.29l-0.28,3.09v2.48l-1.67,6.25
				c-0.11,0.26-7.07,13.26-7.07,13.26c-0.14,0.22-13.71,20.82-18.81,48.13c-2.48,13.49-3.71,26.79-3.71,40.56
				c0,10.92,0.77,22.13,2.33,33.9C125.81,322.9,134.47,344.75,140.87,359.71 M144.42,310.76c-0.46-0.08-5.46,1.22-8.45,2l-5.14,1.46
				c-0.05,0.02-0.05,0.04-0.06,0.04l-3.08-15.78c5.28-3.05,8.06-4.01,9.49-4.13c0.15,0.82,0.34,1.63,0.52,2.32
				c-3.64,1.99-5.8,3.71-6.3,5.52l-0.13,0.78l0.04,0.95l0.32,1.07l0.63,1.23c1.81,2.6,9.16,2.02,10.76,1.87
				c-0.04,0.03-0.07,0.03-0.07,0.07C142.95,308.64,144.42,310.76,144.42,310.76 M140.22,304.1c-3.87,0.49-4.92-0.15-5.08-0.63
				c-0.02-0.05-0.02-0.09-0.02-0.14c0-0.83,2.33-2.32,3.56-3.07C138.71,300.45,139.71,302.85,140.22,304.1 M142.4,259.78
				c-1.48-0.77-2.99-1.21-5.06-1.04l-0.4,0.06c20.96-25.16,35.12-58.24,37.54-75.47l-0.49-0.05l0.21-0.04
				c2.95-0.72,8.24-2.27,13.07-3.96c-2.9,9.79-12.12,33.53-17.74,43.74C161.49,237.62,154.77,246.08,142.4,259.78 M147.96,264.13
				c-0.61-0.68-1.25-1.35-1.96-1.9c-0.14-0.12-0.28-0.23-0.43-0.33c5.12-5.54,19.68-22.4,27.27-37.33
				c3.3-6.46,8.08-16.36,12.06-26.51c-3.02,10.32-6.47,19.79-10.28,27.47C167.34,240.31,159.18,251.09,147.96,264.13 M150.58,267.66
				c11.7-13.04,18.29-21.87,27.39-40.32c6.57-13.3,9.99-24.01,12.49-34.24l6.48-0.67c-5.04,22.21-25.03,58.1-45.95,76.01
				C150.83,268.21,150.72,267.91,150.58,267.66 M151.72,269.86c22.08-18.69,42.01-55.16,46.86-77.71c2.69-0.32,7.11-1.25,10.3-2.4
				c-9.41,34.73-29.43,67.1-54.3,87.6C153.88,275.01,152.95,272.37,151.72,269.86 M156.36,285.92l-0.29-2.04
				c-0.09-0.48-0.25-1.35-0.47-2.36c8.11-6.58,15.42-13.94,22.08-21.95c-0.44,1.62-0.7,4.13-0.81,7.28
				c-4.06,5.25-13.56,15-20.51,19.17V285.92z M156.99,289.87c4.95-2.72,14.75-12.22,19.79-18.06v0.67c0,1.05,0.02,2.17,0.02,3.26
				c-5.42,5.44-13.29,12.11-19.38,16.47C157.27,291.42,157.11,290.64,156.99,289.87 M168.05,288.23l-0.65,0.33
				c-0.94,0.53-3.41,3.05-4.68,6.48c-0.02,0-1.75,3.47-2.7,5.37c-0.95-1.6-1.66-4-2.21-6.5c5.83-4.13,13.44-10.53,19.04-16.03
				c0.03,1.55,0.03,3.07,0.06,4.59l0.06,4.1c-0.57,0.6-4.18,2.46-6.13,3.46c0,0-0.63,0.33-1.13,0.61
				C169.6,290.53,168.05,288.23,168.05,288.23 M170.51,295.39c0.18-0.1,0.48-0.28,0.48-0.28s5.28-2.97,6.43-3.61
				c0.92,2.81,2.67,10.3,2.84,13.97C177.27,304.46,171.86,297.57,170.51,295.39 M179.13,258.03l-0.17-0.09
				c8.9-11.01,16.43-23.34,22.57-36.89c-5.53,15.84-13.08,32.5-19.89,38.96C180.83,259.25,179.98,258.56,179.13,258.03
				 M185.71,265.14c-0.51-0.8-1.11-1.6-1.7-2.42c12.73-13.85,26.09-52.28,28.59-69.12c1.71-0.23,3.49-0.73,5.22-1.6
				C215.42,206.28,198.38,249.68,185.71,265.14 M186.6,266.52c13.13-15.61,31.09-61.66,32.97-75.23c0-0.13-0.06-0.22-0.11-0.33
				c0.36-0.24,0.78-0.41,1.07-0.67l1.71-1.47c1.69-1.48,2.25-1.83,3.98-1.62c0.29,1.25-0.21,4.28-0.59,6.62l-0.19,1.28
				c-0.14,0.32-0.21,0.64-0.26,0.99c-1.93,17.88-18.92,62.9-35.24,76.96C189.8,272.7,188.53,269.81,186.6,266.52 M194.1,282.75
				l-2.6-6.09c7.79-7.65,15.2-19.82,21.31-32.83c-2.82,7.71-5.89,15.24-9.07,21.97c-0.04,0.01-0.08,0-0.13,0l-2.13,0.07l1.61,1.29
				C200.12,273.31,197.09,278.65,194.1,282.75 M195.82,286.74c3.52-3.75,6.96-9.29,10.19-15.93c0.13,0.67,0.26,1.53,0.44,2.78
				c0.01,0.11-0.03,0.23,0,0.32c-2.26,3.23-7.2,9.95-10.38,13.4L195.82,286.74z M203.6,295.48l-0.33,1.31
				c-0.21,0.9-0.36,2.82-0.22,5.04l-1.99-2.88l-1.12-2.6l0.69-0.58c1.15-0.9,2.42-1.94,3.67-3.14
				C204.06,293.61,203.82,294.65,203.6,295.48 M205.9,284.78l-5.27,5.54l-2.37,2.08l-1.53-3.51c2.78-2.89,7.05-8.55,9.75-12.33
				C206.54,279.25,206.35,282.03,205.9,284.78 M211.38,267.5c-1-0.53-2.1-0.94-3.29-1.24c10.27-23.2,17.98-55.53,19.57-68.27
				l4.83-1.19l2.4-0.84c0.66,0.33,1.42,0.3,2.21,0.16C233.79,215.01,224.1,247.84,211.38,267.5 M221.16,280.74
				c-0.9-2.43-1.94-4.77-3.23-6.88l4.84-6.69l0.41-0.65c0.37,1.59,0.76,3.24,1.39,5.04c0.28,0.73,0.63,1.44,0.91,2.17
				c-0.31,0.62-0.66,1.3-0.66,1.3L221.16,280.74z M250.4,322.98c4.15,4.17,23.76,14.83,26.74,16.32c2.46,1.22,5.14,3.79,7.31,6.44
				c-3.39-2.8-6.94-5.17-10.7-6.51l-2.37-0.81c-8.03-2.76-26.86-9.17-32.38-16.88c-1.48-2.02-1.9-3.74-2.83-5.6
				c0.97,0.65,2.11,1.03,3.59,0.75c0,0,2.44-1.5,3.93-2.4C245.6,317.32,248.09,320.72,250.4,322.98 M238.57,301
				c0.5,1.6,1.12,3.64,1.12,3.64l1.36,4.75c0.11,0.38,0.47,0.96,0.71,1.46c-1.4,1-2.96,2.15-3.87,1.78
				c-0.59-0.21-0.86-1.11-0.99-1.84c-0.13-0.88-0.19-1.74-0.19-2.55C236.71,305.04,237.7,302.7,238.57,301 M236.87,296.49
				c-0.1-0.68-1.12,1.75-1.12,1.75l-2.06,6.44c-0.09,1.02-0.19,2.32-0.19,3.71c0,0.96,0.17,1.88,0.29,2.83
				c-1.19-3.58-1.72-6.88-1.91-9.83l1.41-1.94l3.22-4.02L236.87,296.49z M234.02,290.53l-1.7,2.54c-2.05,3.24-4.93,7.49-7.29,9.39
				c-0.13-2.64-0.31-5.45-0.68-8.3l4.33-6.88l1.82-2.79C231.8,286.83,232.96,288.83,234.02,290.53 M226.59,279.46l0.79-1.25
				c0.73,1.63,1.51,3.18,2.29,4.67l-2.28,3.54l-3.39,5.33c-0.34-2.21-0.81-4.37-1.43-6.53L226.59,279.46z M225.49,254.2
				c-0.26-0.38-0.48-0.7-0.56-0.82l-0.66-1.39l-0.72,1.38c-0.81,1.53-1.33,4-1.23,7.21l-0.73,1.4c-1.48,2.79-3.62,6.7-5.77,9.03
				c-0.9-1.06-1.96-1.91-3.07-2.68c12.97-20.11,22.85-53.81,26.07-72.69c1.12-0.47,2.28-1.15,3.4-1.79l1.44-0.86
				c0.19-0.09,0.35-0.25,0.54-0.43c-0.16,1.15-0.3,2.29-0.48,3.47C239.7,216.56,231.42,242.6,225.49,254.2 M229.53,259.42
				c-0.59-0.73-1.17-1.43-1.71-2.11c3.01-5.32,6.17-13.72,9.12-23.07C234.69,244.42,232.13,253.54,229.53,259.42 M234.19,264.77
				c-0.55-0.5-1.34-1.39-2.21-2.38c7.72-13.69,13.68-53.73,15.98-71.45c0.54-2.76,0.9-5.1,1.08-6.71l0.06-0.51v-0.02
				c2.72-1.47,5.73-3.96,7.78-5.81l-0.4,5.93c-2.44,2-6.09,6.51-6.53,15.91l-0.31,2.13l0.34,3.05c-0.16,0.15-0.37,0.25-0.46,0.46
				c-3.76,8.95-3.74,15.87-2.47,21.25l-1.72,8.01c-1.93,9.49-3.84,18.61-9.17,31.71L234.19,264.77z M244.9,273.31l-7.45-5.94
				c5.52-13.49,7.47-22.76,9.41-32.43l1.1-5.12c1.06,2.95,2.41,5.34,3.46,7.16l1.4,2.7c0.03,0.09,0.13,0.11,0.19,0.18
				C251.26,251.02,248.27,265.69,244.9,273.31 M256.2,284.96l-1.21-0.21c-1.36-0.32-2.77-2.58-4.16-4.75l-2.77-3.68
				c2.34-6.38,5.32-19.52,7.2-30.75c0.63,3.76,2.89,13.03,5.47,16.97l1.09,1.62l1.55,4.6C261.44,274.74,258.81,281.5,256.2,284.96
				 M266.58,286.98l-2.29-0.56l-3.31-0.62c1.18-3.21,3.88-10.7,3.88-10.7l2-5.9c0.3,0.57,0.55,1.05,0.55,1.05
				C264.62,275.98,265.52,282.21,266.58,286.98 M270.01,287.8c-0.68-3.31-2.01-10.52-0.42-14.69c0.57,1.09,1.11,2.45,1.54,4.5
				l1.21,4.01l0.96,3.67l0.99-0.3l1.89-0.92c0,0.12-0.06,0.21-0.06,0.35l-0.05,1.28c-0.07,1.33-0.09,2.43-0.12,3.51l-3.75-0.87
				L270.01,287.8z M275.46,304.99c-0.38-1.51-0.52-2.88-0.52-4.1c0-2.28,0.52-4.08,0.96-5.51c0,0,0.05-0.21,0.12-0.44l0.42,0.13
				c0.08,1.04,0.19,2.11,0.52,3.54c0,0,2.38,10.35,3.62,15.93C278.88,312.45,276.69,309.58,275.46,304.99 M299.39,343
				c0.01,0.17,0.02,0.48,0.07,0.69c-0.98-2.21-1.92-4.24-2.51-5.18c-9.76-15.61-10.49-18.6-14.02-32.94l-0.27-1.1
				c-1.16-4.8-1.64-9.3-1.64-13.39c0-8.76,2.08-15.67,3.7-19.71l2.75-7.16c0,0,4.99-11.22,6.16-13.8c3.82,8.8,4.74,14.62,4.74,30.46
				c0,7.85-0.27,9.43-2.18,19.69l-0.97,5.34c-0.55,3.01-0.78,5.94-0.78,8.74c0,7.72,1.73,14.65,3.2,20.49L299.39,343z M321.09,268.5
				c-0.17-3.17,0.07-6.25,0.07-6.25l-1.52-0.3c-1.4,3.64-6.5,12.04-9.07,14.48l-7.37,6.75c0.65-6.81-0.19-12.55-1-17.63l-0.71-4.69
				c-0.55-4.62-2.46-9.57-4.38-14.12c1.36-1.22,2.6-2.87,3.05-3.81c0,0,0.68-1.42,1.18-3.23c0.38-1.3,0.55-2.88,0.88-3.96
				c1.64,2.61,4.45,8.52,5.15,11.09c0,0.02,0.29,2.2,0.29,2.2l0.41,2.08l1.22,2.22l0.87-0.98l4.11-7.37l5.78-10.4
				c1.38,0.82,6.66,5.46,8.9,8.85c0.36,2.19,0.88,4.46,1.75,7.14l0.67,2c1.15,3.61,2.09,6.54,2.09,9.02c0,1.43-0.83,2.57-1.59,3.77
				c-0.17-0.53-1.93-5.81-1.93-5.81l-1.5,0.27l-0.05,5.4l-0.48,11.11c-0.61,4.27-2.03,6.97-3.35,8.89l-1.32-3.96l-0.97-2.7
				l-0.44-2.62C321.82,275.92,321.26,272.12,321.09,268.5 M348.52,317.72c0,0-0.1,0.12-0.22,0.32l0.1-3.81l-0.63-3.42
				c-1.43-4.62-4.45-10.68-5.44-12.11l-0.46-0.65l-0.63,0.43c-0.5,0.35-1.14,1.1-1.21,1.17c-0.06,0.09-0.18,0.28-0.28,0.39v0.02
				c-2.81,3.59-6.44,11.48-7.25,17.25c-0.3,2.26-0.8,5.59-1.48,9.06c-1.69-6.26-4.07-12.25-5.66-14.3l-0.62-0.79l-0.63,0.8
				c-1.08,1.46-1.8,2.55-1.98,3.75c-2.36,5.37-3.37,11.39-2.66,16.84c0.8,6.01-0.72,8.7-3.64,11.32c-0.02,0.04-1.24,1.42-2.67,3.37
				l2.58-12.74l3.67-11.88c3.26-9.24,7.19-20.46,6.81-28.62c2.91-3.51,4.36-9.01,4.77-10.85l0.52-2.9c0.55-3.27,1.1-6.33,2.94-9.28
				l1.79-3.4c0,0,0.04-0.08,0.21-0.45c0.5,0.82,1.3,2.15,2.21,3.72c1.45,2.44,3.2,4.83,3.2,4.83c1.09,1.7,3.14,4.64,5.6,7.78
				c-1.92,4.38-1.97,10.92,0.02,17.79C350.1,310.48,350.53,313.09,348.52,317.72 M366.13,263.18
				c-5.61-10.27-12.64-28.08-18.89-44.44l-1.49,0.5l15.61,54.88c-0.58,3.41-0.76,6.53-0.76,8.55l-0.82,8.48
				c-3.38-2.95-8.21-8.78-11.22-13.22c-4.05-5.91-8.97-14.59-10.13-18.97l-2.04-6.95c2.66-3.52,5.78-9.81,4.93-15.88
				c-0.69-4.74-2.19-7.9-3.93-10.34l2.17-6.34c0.47-3.84,1.16-10.34-1.07-16.54c0.72-2.5,1.22-5.58,1.22-8.59
				c0-2.76-0.39-5.45-1.37-7.62c0,0-0.69-1.01-1.6-2.31c1.28-2.58,2.26-4.45,3.07-4.58c0.38-0.07,1,0.26,1.83,1.04
				c1.3,1.17,2.25,3.64,3.11,8.01l0.42,2.28c2.65,20.12,13.56,46.68,27.58,69.69C370.72,261.1,368.19,261.67,366.13,263.18
				 M377.86,292.96c0,0-1.48,0.78-2.71,1.43c0.07-1.67,0.26-5.17,0.42-9.45c1.02,1.3,1.83,1.94,1.83,1.94s2.94,3.5,3.77,4.49
				C380.16,291.89,377.86,292.96,377.86,292.96 M366.53,318.56c-2.79,6.66-6.65,11.03-10.34,14.77c3.35-5.42,6.95-11.49,9.83-16.35
				l4.38-7.35c3.09-4.94,10.65-11.27,15.5-13.32c0.18,0.22,0.35,0.46,0.48,0.62C374.25,306.71,369.3,312.07,366.53,318.56
				 M401.01,301.55c-1.39-0.67-3.25-2.17-4.96-3.54l-4.15-3.16c-2.31-1.44-12.48-11.88-16.43-17.9c-0.88-4.78-1.01-9.06-0.54-10.31
				c0.27-0.72,0.5-1.08,0.69-1.26c8.32,12.94,17.55,24.49,26.74,32.69C401.9,299.48,401.43,300.73,401.01,301.55 M402.94,296.54
				c-8.79-7.97-17.22-18.41-25.21-30.76l-0.48-0.86l0.63-0.45l-1.29-2.36l-0.74-1.53l-1.28,0.14l-0.6-0.84
				c-14.47-23.87-25.09-50.81-27.64-71.16c0.83-1.4,2.42-2.73,4.66-4.52c5.47,21.99,11.98,40.36,21.08,56.34
				c6.38,17.21,22.75,42.21,32.11,50.89C403.74,293.18,403.38,294.99,402.94,296.54 M405.06,287.79c-0.15,0.59-0.3,1.22-0.44,1.82
				c-8.04-7.76-19.92-25.76-27.22-40.86c7.66,11.45,17.07,22.52,28.91,34.39L405.06,287.79z M363.27,192.22l0.41,1.3
				c4.96,15.91,27.69,56.3,48.13,78.24c-1.63,1.82-3.07,3.96-4.35,7.03l-0.13,0.55c-29.61-29.95-43.1-55.15-52.29-98.36
				c0.94-0.7,1.88-1.4,2.74-2l2.84-2.08c1.33-1,1.77-0.87,1.77-0.87c0.34,0.26,0.22,1.9-0.38,4.89c-0.01,0-0.35,0.4-0.35,1.87
				c-0.08,0.85-0.08,1.18-0.04,1.46l-0.02,1.33c0,1.74,0.54,3.32,0.54,3.32 M412.83,270.52c-20.27-21.83-42.75-61.72-47.63-77.48
				l-0.44-1.32l-1-5.24l2.2-2.78l1.79-2.85c1.1-1.69,1.63-1.62,1.63-1.62c0.52,0.06,1.53,3.17,1.53,3.17
				c4.47,17.97,15.03,37.22,27.96,54.51c5.08,7.28,13.32,18.37,21.54,28.83C417.38,267.14,414.91,268.54,412.83,270.52
				 M417.17,309.71c0.42-1.46,0.93-3.28,0.93-3.28c0.52-1.82,1.04-3.61,1.53-5.4c2.02,1.88,3.82,4,3.29,5.92
				C420.69,308.02,418.45,309.1,417.17,309.71 M429.42,303.82c0,0-2.29,1.1-4.93,2.38c-0.07-2.55-2.21-4.88-4.44-6.9
				c0.47-1.84,0.86-3.68,1.19-5.48c2.5,1.59,6.15,3.7,6.15,3.7l5.85,3.37C431.98,302.06,430.67,303.09,429.42,303.82 M421.98,287.56
				c0.03-0.5,0.11-1.01,0.11-1.51c0-0.82-0.02-1.65-0.11-2.48c-0.01-0.17-0.01-0.31-0.05-0.5c4.13,3.71,10.7,9.37,15.4,12.79
				C433.46,294.1,425.5,289.81,421.98,287.56 M438.54,294.78c-5.2-3.76-12.94-10.53-16.89-14.12c-0.24-2.26-0.39-4.46-0.39-6.41
				c0-2.72,0.16-5.02,0.37-6.94c7.75,9.79,15.25,18.69,19.79,22.94C440.56,291.75,439.6,293.26,438.54,294.78 M444.4,283.84
				c-0.42,1.41-1.18,3.13-2.18,5.02c-5.9-5.7-17.19-19.58-27.22-32.71c9.86,10.54,20.18,19.44,29.77,25.72
				C444.64,282.52,444.57,283.24,444.4,283.84 M445.49,277.47c-33.85-22.75-63.5-73.98-71.78-94.72l3.37-7.58
				c0.5-1.23,0.89-1.42,0.98-1.43c0.04-0.02,0.19,0.09,0.31,0.18c10.72,30.6,40.65,78.02,67.32,99.61
				C445.69,274.84,445.61,276.17,445.49,277.47 M456.11,269.33c-2.53-4.13-7.11-9.37-10.3-12l-0.64-0.51
				c-2.41-3.16-4.87-6.44-7.1-9.55c7.26,7.11,16.64,14.55,20.37,17.49l0.68,0.56C457.92,266.93,456.73,268.5,456.11,269.33
				 M462.79,260.49c0,0-0.41,0.55-1.04,1.41c-27.52-21.77-56.11-60.67-68.32-93.24c2.01-2.64,3.86-5.92,4.4-9.49
				c0.92,0.77,1.89,1.59,2.86,2.58l0.1,0.12c6.42,23.39,41.58,77.68,63.17,97.47C463.57,259.72,463.09,260.09,462.79,260.49
				 M468.55,256.33c-1.21,0.59-2.4,1.22-3.38,1.97c-21.72-19.81-57.47-75.11-63.09-97.79c0.06-2.99,0.53-11.68,1.42-13.45
				c0.74-0.4,3.09,2.22,4.22,3.45l2.33,1.95c0.35,0.91,0.74,1.88,1.12,2.84c8.27,31.32,36.47,78.01,57.26,93.96
				C468.57,252.22,468.63,254.58,468.55,256.33 M473.03,254.64c-0.1-17.99-8.02-74.51-12.14-85.42c0.15-0.56,0.31-1.09,0.47-1.69
				l0.31-1.13l0.45-3.35l0.46-3.34c0.3-1.4,0.46-2.65,0.57-3.82c5.87,16.27,15.72,65.95,16.14,97.39
				C477.33,253.54,475.18,253.99,473.03,254.64 M469.53,288.81c0.33-1.21,0.83-2.82,0.83-2.82c1.69-6.11,4.22-15.27,8.84-23.6
				c-0.22,8.52-0.65,16.86-1.39,25.16C474.67,287.69,471.42,288.31,469.53,288.81 M460.17,361.96c-3.33,3.83-6.87,7.13-10.58,9.61
				c-1.32,0.89-2.03,0.93-2.18,0.89c0.14,0,0.76-1.13,0.76-1.13c3.02-3.89,20.91-40.75,22.74-66.53l2.6-2.71
				c1.04-1.13,2.07-2.19,3.1-3.26C474.02,318.86,469.2,339.12,460.17,361.96 M490.76,249.01c0.29,4.1,0.39,8.21,0.39,12.33
				c0,37.65-11.07,75.14-27.94,97c8.29-22.02,12.89-41.82,15.25-61.37c2.19-2.13,4.61-4.19,7.53-6.17l0.57-0.38l-0.33-0.62
				c-0.86-1.76-3.66-2.28-6.83-2.28c0.84-9.2,1.25-18.4,1.44-27.87c1.21-1.92,2.46-3.76,3.91-5.47l1.42-1.25l-0.35-0.02l0.03-0.06
				h-1.68c-0.9,0-2.07,0.1-3.32,0.24c-0.52-34.39-12.2-90.32-17.78-101.41c-0.47-3.77-2.02-6.08-3.42-7.99c0,0-0.36-0.55-0.57-0.96
				c1.24,0.93,2.56,2.12,3.33,3.39l1.06,1.75l0.01-0.03C472.55,162.63,487.12,194.32,490.76,249.01 M514.34,292.82
				c-0.17,0.21-0.33,0.44-0.53,0.61c0,0-0.97,1.11-1.24,1.42c-0.02-0.41-0.05-0.9-0.05-0.9l-0.14-2.41
				c-0.5-9.27-1.78-33.86-12.92-76.22c-3.45-13.08-14.45-36.6-24.25-55.4c3.73,5.4,6.91,10.27,7.58,11.69l1.23,3.1
				c2.44,6.51,7.68,20.08,14.92,32.19l3.2,7.82c0.06,0.05,0.1,0.1,0.11,0.14C515.47,252.77,517.63,286.01,514.34,292.82
				 M522.64,258.72c0.02,0.72,0.05,1.46,0.05,2.2c0,11.76-2.15,21.88-5.74,28.25c1.73-12.06-1.64-40.14-11.82-70.89
				c2.51,2.7,5.92,5.75,9.52,8.42C519.31,233.32,522.33,245.22,522.64,258.72 M533.04,228.28c-2.38,1.14-7.97,1.26-12.62-1.95
				c-1.17-0.78-2.34-1.75-3.45-2.75c-0.21-0.23-0.39-0.56-0.59-0.74c-12.16-11.92-19.06-27.51-24.6-40.03l-6.29-13.15
				c-7.53-13.45-14.09-23.57-21.04-29.7c0.14-2.72,0.2-5.98,0.02-9.04c8.18,6.41,23.11,36.31,26.24,44.92
				c3.42,9.36,21.25,46.64,42.19,52.17C532.94,228.09,533.02,228.24,533.04,228.28 M506.25,183.96l10.27,16.73
				c5.67,8.98,12.95,20.62,15.54,25.49c-19.89-6.59-37.15-43.39-39.86-50.86c-3.36-9.23-19.12-40.74-27.52-46.22
				c-0.11-0.09-0.23-0.05-0.35-0.08c-0.22-2.13-0.6-4.06-1.19-5.45l-5.07-7.27l-0.78-1.07l6.12-0.2
				c7.12,1.94,31.36,19.46,34.28,25.78c2.45,5.43,17.26,29.51,33,40.82c-8.99-1.75-16.76-5.16-33.87-29.46
				c-5.42-7.68-18.1-22.78-22.91-26.16l-1.08,1.05C477.6,134.66,503.56,178.79,506.25,183.96"/>
			<path class="st3" d="M235.08,408.66c-0.11,0.01-0.29,0.68-0.29,0.68s-0.26,0.55-0.23,0.68c-0.23,0.65,0.02,1.33,0.02,2.12
				c0,0.84,0.11,1.71,0.2,2.37c0.62,5.23,6.25,14.83,13.98,18.59c1.46,0.7,4.08,1.81,5.07,1.13l0.38-0.24l0.06-0.65
				c-0.03-0.38-0.11-1.28-4.69-3.47c-5.46-2.59-11.56-12.06-12.02-16.09c-0.53-4.88-1.55-5.12-1.94-5.28"/>
			<path class="st3" d="M401.41,93.96c0.29-0.71-0.22-1.47-0.86-1.84c-0.01,0-1.44-0.63-1.44-0.63c-2.4-0.97-6.47-2.58-6.72-7.71
				c-0.13-2,0.28-3.21,1.18-3.63c2.16-1.02,6.87,1.92,9.37,4.24c5.41,5.01,7.5,11.4,5.87,18.04l1.37,0.68
				c0.09-0.11,0.04-0.23,0.13-0.35c0,0.03,0.04,0.04,0.04,0.04c0-0.08,0-0.15,0.02-0.23c1.27-1.75,1.94-3.67,1.94-5.6
				c0-4.95-3.13-9.98-4.41-12.06c-5.24-9-13.83-10.86-16.44-10.86c-3.41,0-5.59,1.33-6.07,3.66c-0.27,1.62,0.36,2.2,1.14,2.73
				l1.15,1.33l0.31,2.35l0.25,2.33c1.45,3.64,6.52,6.66,10.58,7.93C399.35,94.53,400.94,95.04,401.41,93.96"/>
		</g>
	</g>
</g>
<g id="TMs" class="st0">
	<g class="st7">
		<path class="st3" d="M417.57,409.54h-2.48v-11.72h-4.43v-2.28H422v2.28h-4.43V409.54z"/>
		<path class="st3" d="M431.49,406.1h-0.08l-4.38-6.56v10h-2.44v-14h2.62l4.25,6.62l4.25-6.62h2.62v14h-2.44V399.5L431.49,406.1z"/>
	</g>
</g>
</svg>
